%TF.GenerationSoftware,KiCad,Pcbnew,8.0.3*%
%TF.CreationDate,2024-08-03T11:39:00-05:00*%
%TF.ProjectId,1024 Capacitor Discharger,31303234-2043-4617-9061-6369746f7220,rev?*%
%TF.SameCoordinates,PX4153a20PY6dac2c0*%
%TF.FileFunction,Legend,Bot*%
%TF.FilePolarity,Positive*%
%FSLAX46Y46*%
G04 Gerber Fmt 4.6, Leading zero omitted, Abs format (unit mm)*
G04 Created by KiCad (PCBNEW 8.0.3) date 2024-08-03 11:39:00*
%MOMM*%
%LPD*%
G01*
G04 APERTURE LIST*
%ADD10C,0.200000*%
%ADD11C,0.000000*%
G04 APERTURE END LIST*
D10*
X156747469Y29792856D02*
X156021755Y29792856D01*
X156384612Y28522856D02*
X156384612Y29792856D01*
X155598422Y28522856D02*
X155598422Y29792856D01*
X155054136Y28522856D02*
X155054136Y29188094D01*
X155054136Y29188094D02*
X155114612Y29309047D01*
X155114612Y29309047D02*
X155235564Y29369523D01*
X155235564Y29369523D02*
X155416993Y29369523D01*
X155416993Y29369523D02*
X155537945Y29309047D01*
X155537945Y29309047D02*
X155598422Y29248571D01*
X154449374Y28522856D02*
X154449374Y29369523D01*
X154449374Y29792856D02*
X154509850Y29732380D01*
X154509850Y29732380D02*
X154449374Y29671904D01*
X154449374Y29671904D02*
X154388897Y29732380D01*
X154388897Y29732380D02*
X154449374Y29792856D01*
X154449374Y29792856D02*
X154449374Y29671904D01*
X153905088Y28583332D02*
X153784135Y28522856D01*
X153784135Y28522856D02*
X153542231Y28522856D01*
X153542231Y28522856D02*
X153421278Y28583332D01*
X153421278Y28583332D02*
X153360802Y28704285D01*
X153360802Y28704285D02*
X153360802Y28764761D01*
X153360802Y28764761D02*
X153421278Y28885713D01*
X153421278Y28885713D02*
X153542231Y28946190D01*
X153542231Y28946190D02*
X153723659Y28946190D01*
X153723659Y28946190D02*
X153844612Y29006666D01*
X153844612Y29006666D02*
X153905088Y29127618D01*
X153905088Y29127618D02*
X153905088Y29188094D01*
X153905088Y29188094D02*
X153844612Y29309047D01*
X153844612Y29309047D02*
X153723659Y29369523D01*
X153723659Y29369523D02*
X153542231Y29369523D01*
X153542231Y29369523D02*
X153421278Y29309047D01*
X151848898Y28522856D02*
X151848898Y29792856D01*
X151304612Y28522856D02*
X151304612Y29188094D01*
X151304612Y29188094D02*
X151365088Y29309047D01*
X151365088Y29309047D02*
X151486040Y29369523D01*
X151486040Y29369523D02*
X151667469Y29369523D01*
X151667469Y29369523D02*
X151788421Y29309047D01*
X151788421Y29309047D02*
X151848898Y29248571D01*
X150155564Y28522856D02*
X150155564Y29188094D01*
X150155564Y29188094D02*
X150216040Y29309047D01*
X150216040Y29309047D02*
X150336992Y29369523D01*
X150336992Y29369523D02*
X150578897Y29369523D01*
X150578897Y29369523D02*
X150699850Y29309047D01*
X150155564Y28583332D02*
X150276516Y28522856D01*
X150276516Y28522856D02*
X150578897Y28522856D01*
X150578897Y28522856D02*
X150699850Y28583332D01*
X150699850Y28583332D02*
X150760326Y28704285D01*
X150760326Y28704285D02*
X150760326Y28825237D01*
X150760326Y28825237D02*
X150699850Y28946190D01*
X150699850Y28946190D02*
X150578897Y29006666D01*
X150578897Y29006666D02*
X150276516Y29006666D01*
X150276516Y29006666D02*
X150155564Y29067142D01*
X149550802Y28522856D02*
X149550802Y29369523D01*
X149550802Y29127618D02*
X149490325Y29248571D01*
X149490325Y29248571D02*
X149429849Y29309047D01*
X149429849Y29309047D02*
X149308897Y29369523D01*
X149308897Y29369523D02*
X149187944Y29369523D01*
X148220326Y28522856D02*
X148220326Y29792856D01*
X148220326Y28583332D02*
X148341278Y28522856D01*
X148341278Y28522856D02*
X148583183Y28522856D01*
X148583183Y28522856D02*
X148704135Y28583332D01*
X148704135Y28583332D02*
X148764612Y28643809D01*
X148764612Y28643809D02*
X148825088Y28764761D01*
X148825088Y28764761D02*
X148825088Y29127618D01*
X148825088Y29127618D02*
X148764612Y29248571D01*
X148764612Y29248571D02*
X148704135Y29309047D01*
X148704135Y29309047D02*
X148583183Y29369523D01*
X148583183Y29369523D02*
X148341278Y29369523D01*
X148341278Y29369523D02*
X148220326Y29309047D01*
X147736516Y29369523D02*
X147494611Y28522856D01*
X147494611Y28522856D02*
X147252706Y29127618D01*
X147252706Y29127618D02*
X147010802Y28522856D01*
X147010802Y28522856D02*
X146768897Y29369523D01*
X145740802Y28522856D02*
X145740802Y29188094D01*
X145740802Y29188094D02*
X145801278Y29309047D01*
X145801278Y29309047D02*
X145922230Y29369523D01*
X145922230Y29369523D02*
X146164135Y29369523D01*
X146164135Y29369523D02*
X146285088Y29309047D01*
X145740802Y28583332D02*
X145861754Y28522856D01*
X145861754Y28522856D02*
X146164135Y28522856D01*
X146164135Y28522856D02*
X146285088Y28583332D01*
X146285088Y28583332D02*
X146345564Y28704285D01*
X146345564Y28704285D02*
X146345564Y28825237D01*
X146345564Y28825237D02*
X146285088Y28946190D01*
X146285088Y28946190D02*
X146164135Y29006666D01*
X146164135Y29006666D02*
X145861754Y29006666D01*
X145861754Y29006666D02*
X145740802Y29067142D01*
X145136040Y28522856D02*
X145136040Y29369523D01*
X145136040Y29127618D02*
X145075563Y29248571D01*
X145075563Y29248571D02*
X145015087Y29309047D01*
X145015087Y29309047D02*
X144894135Y29369523D01*
X144894135Y29369523D02*
X144773182Y29369523D01*
X143866040Y28583332D02*
X143986992Y28522856D01*
X143986992Y28522856D02*
X144228897Y28522856D01*
X144228897Y28522856D02*
X144349850Y28583332D01*
X144349850Y28583332D02*
X144410326Y28704285D01*
X144410326Y28704285D02*
X144410326Y29188094D01*
X144410326Y29188094D02*
X144349850Y29309047D01*
X144349850Y29309047D02*
X144228897Y29369523D01*
X144228897Y29369523D02*
X143986992Y29369523D01*
X143986992Y29369523D02*
X143866040Y29309047D01*
X143866040Y29309047D02*
X143805564Y29188094D01*
X143805564Y29188094D02*
X143805564Y29067142D01*
X143805564Y29067142D02*
X144410326Y28946190D01*
X142293660Y28522856D02*
X142293660Y29369523D01*
X142293660Y29792856D02*
X142354136Y29732380D01*
X142354136Y29732380D02*
X142293660Y29671904D01*
X142293660Y29671904D02*
X142233183Y29732380D01*
X142233183Y29732380D02*
X142293660Y29792856D01*
X142293660Y29792856D02*
X142293660Y29671904D01*
X141749374Y28583332D02*
X141628421Y28522856D01*
X141628421Y28522856D02*
X141386517Y28522856D01*
X141386517Y28522856D02*
X141265564Y28583332D01*
X141265564Y28583332D02*
X141205088Y28704285D01*
X141205088Y28704285D02*
X141205088Y28764761D01*
X141205088Y28764761D02*
X141265564Y28885713D01*
X141265564Y28885713D02*
X141386517Y28946190D01*
X141386517Y28946190D02*
X141567945Y28946190D01*
X141567945Y28946190D02*
X141688898Y29006666D01*
X141688898Y29006666D02*
X141749374Y29127618D01*
X141749374Y29127618D02*
X141749374Y29188094D01*
X141749374Y29188094D02*
X141688898Y29309047D01*
X141688898Y29309047D02*
X141567945Y29369523D01*
X141567945Y29369523D02*
X141386517Y29369523D01*
X141386517Y29369523D02*
X141265564Y29309047D01*
X139511755Y28522856D02*
X139632707Y28583332D01*
X139632707Y28583332D02*
X139693184Y28704285D01*
X139693184Y28704285D02*
X139693184Y29792856D01*
X139027946Y28522856D02*
X139027946Y29369523D01*
X139027946Y29792856D02*
X139088422Y29732380D01*
X139088422Y29732380D02*
X139027946Y29671904D01*
X139027946Y29671904D02*
X138967469Y29732380D01*
X138967469Y29732380D02*
X139027946Y29792856D01*
X139027946Y29792856D02*
X139027946Y29671904D01*
X137878898Y28583332D02*
X137999850Y28522856D01*
X137999850Y28522856D02*
X138241755Y28522856D01*
X138241755Y28522856D02*
X138362707Y28583332D01*
X138362707Y28583332D02*
X138423184Y28643809D01*
X138423184Y28643809D02*
X138483660Y28764761D01*
X138483660Y28764761D02*
X138483660Y29127618D01*
X138483660Y29127618D02*
X138423184Y29248571D01*
X138423184Y29248571D02*
X138362707Y29309047D01*
X138362707Y29309047D02*
X138241755Y29369523D01*
X138241755Y29369523D02*
X137999850Y29369523D01*
X137999850Y29369523D02*
X137878898Y29309047D01*
X136850803Y28583332D02*
X136971755Y28522856D01*
X136971755Y28522856D02*
X137213660Y28522856D01*
X137213660Y28522856D02*
X137334613Y28583332D01*
X137334613Y28583332D02*
X137395089Y28704285D01*
X137395089Y28704285D02*
X137395089Y29188094D01*
X137395089Y29188094D02*
X137334613Y29309047D01*
X137334613Y29309047D02*
X137213660Y29369523D01*
X137213660Y29369523D02*
X136971755Y29369523D01*
X136971755Y29369523D02*
X136850803Y29309047D01*
X136850803Y29309047D02*
X136790327Y29188094D01*
X136790327Y29188094D02*
X136790327Y29067142D01*
X136790327Y29067142D02*
X137395089Y28946190D01*
X136246042Y29369523D02*
X136246042Y28522856D01*
X136246042Y29248571D02*
X136185565Y29309047D01*
X136185565Y29309047D02*
X136064613Y29369523D01*
X136064613Y29369523D02*
X135883184Y29369523D01*
X135883184Y29369523D02*
X135762232Y29309047D01*
X135762232Y29309047D02*
X135701756Y29188094D01*
X135701756Y29188094D02*
X135701756Y28522856D01*
X135157470Y28583332D02*
X135036517Y28522856D01*
X135036517Y28522856D02*
X134794613Y28522856D01*
X134794613Y28522856D02*
X134673660Y28583332D01*
X134673660Y28583332D02*
X134613184Y28704285D01*
X134613184Y28704285D02*
X134613184Y28764761D01*
X134613184Y28764761D02*
X134673660Y28885713D01*
X134673660Y28885713D02*
X134794613Y28946190D01*
X134794613Y28946190D02*
X134976041Y28946190D01*
X134976041Y28946190D02*
X135096994Y29006666D01*
X135096994Y29006666D02*
X135157470Y29127618D01*
X135157470Y29127618D02*
X135157470Y29188094D01*
X135157470Y29188094D02*
X135096994Y29309047D01*
X135096994Y29309047D02*
X134976041Y29369523D01*
X134976041Y29369523D02*
X134794613Y29369523D01*
X134794613Y29369523D02*
X134673660Y29309047D01*
X133585089Y28583332D02*
X133706041Y28522856D01*
X133706041Y28522856D02*
X133947946Y28522856D01*
X133947946Y28522856D02*
X134068899Y28583332D01*
X134068899Y28583332D02*
X134129375Y28704285D01*
X134129375Y28704285D02*
X134129375Y29188094D01*
X134129375Y29188094D02*
X134068899Y29309047D01*
X134068899Y29309047D02*
X133947946Y29369523D01*
X133947946Y29369523D02*
X133706041Y29369523D01*
X133706041Y29369523D02*
X133585089Y29309047D01*
X133585089Y29309047D02*
X133524613Y29188094D01*
X133524613Y29188094D02*
X133524613Y29067142D01*
X133524613Y29067142D02*
X134129375Y28946190D01*
X132436042Y28522856D02*
X132436042Y29792856D01*
X132436042Y28583332D02*
X132556994Y28522856D01*
X132556994Y28522856D02*
X132798899Y28522856D01*
X132798899Y28522856D02*
X132919851Y28583332D01*
X132919851Y28583332D02*
X132980328Y28643809D01*
X132980328Y28643809D02*
X133040804Y28764761D01*
X133040804Y28764761D02*
X133040804Y29127618D01*
X133040804Y29127618D02*
X132980328Y29248571D01*
X132980328Y29248571D02*
X132919851Y29309047D01*
X132919851Y29309047D02*
X132798899Y29369523D01*
X132798899Y29369523D02*
X132556994Y29369523D01*
X132556994Y29369523D02*
X132436042Y29309047D01*
X130319375Y29369523D02*
X130319375Y28522856D01*
X130863661Y29369523D02*
X130863661Y28704285D01*
X130863661Y28704285D02*
X130803184Y28583332D01*
X130803184Y28583332D02*
X130682232Y28522856D01*
X130682232Y28522856D02*
X130500803Y28522856D01*
X130500803Y28522856D02*
X130379851Y28583332D01*
X130379851Y28583332D02*
X130319375Y28643809D01*
X129714613Y29369523D02*
X129714613Y28522856D01*
X129714613Y29248571D02*
X129654136Y29309047D01*
X129654136Y29309047D02*
X129533184Y29369523D01*
X129533184Y29369523D02*
X129351755Y29369523D01*
X129351755Y29369523D02*
X129230803Y29309047D01*
X129230803Y29309047D02*
X129170327Y29188094D01*
X129170327Y29188094D02*
X129170327Y28522856D01*
X128021279Y28522856D02*
X128021279Y29792856D01*
X128021279Y28583332D02*
X128142231Y28522856D01*
X128142231Y28522856D02*
X128384136Y28522856D01*
X128384136Y28522856D02*
X128505088Y28583332D01*
X128505088Y28583332D02*
X128565565Y28643809D01*
X128565565Y28643809D02*
X128626041Y28764761D01*
X128626041Y28764761D02*
X128626041Y29127618D01*
X128626041Y29127618D02*
X128565565Y29248571D01*
X128565565Y29248571D02*
X128505088Y29309047D01*
X128505088Y29309047D02*
X128384136Y29369523D01*
X128384136Y29369523D02*
X128142231Y29369523D01*
X128142231Y29369523D02*
X128021279Y29309047D01*
X126932707Y28583332D02*
X127053659Y28522856D01*
X127053659Y28522856D02*
X127295564Y28522856D01*
X127295564Y28522856D02*
X127416517Y28583332D01*
X127416517Y28583332D02*
X127476993Y28704285D01*
X127476993Y28704285D02*
X127476993Y29188094D01*
X127476993Y29188094D02*
X127416517Y29309047D01*
X127416517Y29309047D02*
X127295564Y29369523D01*
X127295564Y29369523D02*
X127053659Y29369523D01*
X127053659Y29369523D02*
X126932707Y29309047D01*
X126932707Y29309047D02*
X126872231Y29188094D01*
X126872231Y29188094D02*
X126872231Y29067142D01*
X126872231Y29067142D02*
X127476993Y28946190D01*
X126327946Y28522856D02*
X126327946Y29369523D01*
X126327946Y29127618D02*
X126267469Y29248571D01*
X126267469Y29248571D02*
X126206993Y29309047D01*
X126206993Y29309047D02*
X126086041Y29369523D01*
X126086041Y29369523D02*
X125965088Y29369523D01*
X124755565Y29369523D02*
X124271756Y29369523D01*
X124574137Y29792856D02*
X124574137Y28704285D01*
X124574137Y28704285D02*
X124513660Y28583332D01*
X124513660Y28583332D02*
X124392708Y28522856D01*
X124392708Y28522856D02*
X124271756Y28522856D01*
X123848423Y28522856D02*
X123848423Y29792856D01*
X123304137Y28522856D02*
X123304137Y29188094D01*
X123304137Y29188094D02*
X123364613Y29309047D01*
X123364613Y29309047D02*
X123485565Y29369523D01*
X123485565Y29369523D02*
X123666994Y29369523D01*
X123666994Y29369523D02*
X123787946Y29309047D01*
X123787946Y29309047D02*
X123848423Y29248571D01*
X122215565Y28583332D02*
X122336517Y28522856D01*
X122336517Y28522856D02*
X122578422Y28522856D01*
X122578422Y28522856D02*
X122699375Y28583332D01*
X122699375Y28583332D02*
X122759851Y28704285D01*
X122759851Y28704285D02*
X122759851Y29188094D01*
X122759851Y29188094D02*
X122699375Y29309047D01*
X122699375Y29309047D02*
X122578422Y29369523D01*
X122578422Y29369523D02*
X122336517Y29369523D01*
X122336517Y29369523D02*
X122215565Y29309047D01*
X122215565Y29309047D02*
X122155089Y29188094D01*
X122155089Y29188094D02*
X122155089Y29067142D01*
X122155089Y29067142D02*
X122759851Y28946190D01*
X119917470Y28643809D02*
X119977946Y28583332D01*
X119977946Y28583332D02*
X120159375Y28522856D01*
X120159375Y28522856D02*
X120280327Y28522856D01*
X120280327Y28522856D02*
X120461756Y28583332D01*
X120461756Y28583332D02*
X120582708Y28704285D01*
X120582708Y28704285D02*
X120643185Y28825237D01*
X120643185Y28825237D02*
X120703661Y29067142D01*
X120703661Y29067142D02*
X120703661Y29248571D01*
X120703661Y29248571D02*
X120643185Y29490475D01*
X120643185Y29490475D02*
X120582708Y29611428D01*
X120582708Y29611428D02*
X120461756Y29732380D01*
X120461756Y29732380D02*
X120280327Y29792856D01*
X120280327Y29792856D02*
X120159375Y29792856D01*
X120159375Y29792856D02*
X119977946Y29732380D01*
X119977946Y29732380D02*
X119917470Y29671904D01*
X119373185Y29188094D02*
X118949851Y29188094D01*
X118768423Y28522856D02*
X119373185Y28522856D01*
X119373185Y28522856D02*
X119373185Y29792856D01*
X119373185Y29792856D02*
X118768423Y29792856D01*
X117498422Y28522856D02*
X117921756Y29127618D01*
X118224137Y28522856D02*
X118224137Y29792856D01*
X118224137Y29792856D02*
X117740327Y29792856D01*
X117740327Y29792856D02*
X117619375Y29732380D01*
X117619375Y29732380D02*
X117558898Y29671904D01*
X117558898Y29671904D02*
X117498422Y29550952D01*
X117498422Y29550952D02*
X117498422Y29369523D01*
X117498422Y29369523D02*
X117558898Y29248571D01*
X117558898Y29248571D02*
X117619375Y29188094D01*
X117619375Y29188094D02*
X117740327Y29127618D01*
X117740327Y29127618D02*
X118224137Y29127618D01*
X116954137Y28522856D02*
X116954137Y29792856D01*
X116954137Y29792856D02*
X116228422Y28522856D01*
X116228422Y28522856D02*
X116228422Y29792856D01*
X156324136Y27748227D02*
X156082231Y27748227D01*
X156082231Y27748227D02*
X155961279Y27687751D01*
X155961279Y27687751D02*
X155840326Y27566799D01*
X155840326Y27566799D02*
X155779850Y27324894D01*
X155779850Y27324894D02*
X155779850Y26901561D01*
X155779850Y26901561D02*
X155840326Y26659656D01*
X155840326Y26659656D02*
X155961279Y26538703D01*
X155961279Y26538703D02*
X156082231Y26478227D01*
X156082231Y26478227D02*
X156324136Y26478227D01*
X156324136Y26478227D02*
X156445088Y26538703D01*
X156445088Y26538703D02*
X156566041Y26659656D01*
X156566041Y26659656D02*
X156626517Y26901561D01*
X156626517Y26901561D02*
X156626517Y27324894D01*
X156626517Y27324894D02*
X156566041Y27566799D01*
X156566041Y27566799D02*
X156445088Y27687751D01*
X156445088Y27687751D02*
X156324136Y27748227D01*
X155235565Y27324894D02*
X155235565Y26054894D01*
X155235565Y27264418D02*
X155114612Y27324894D01*
X155114612Y27324894D02*
X154872707Y27324894D01*
X154872707Y27324894D02*
X154751755Y27264418D01*
X154751755Y27264418D02*
X154691279Y27203942D01*
X154691279Y27203942D02*
X154630803Y27082989D01*
X154630803Y27082989D02*
X154630803Y26720132D01*
X154630803Y26720132D02*
X154691279Y26599180D01*
X154691279Y26599180D02*
X154751755Y26538703D01*
X154751755Y26538703D02*
X154872707Y26478227D01*
X154872707Y26478227D02*
X155114612Y26478227D01*
X155114612Y26478227D02*
X155235565Y26538703D01*
X153602707Y26538703D02*
X153723659Y26478227D01*
X153723659Y26478227D02*
X153965564Y26478227D01*
X153965564Y26478227D02*
X154086517Y26538703D01*
X154086517Y26538703D02*
X154146993Y26659656D01*
X154146993Y26659656D02*
X154146993Y27143465D01*
X154146993Y27143465D02*
X154086517Y27264418D01*
X154086517Y27264418D02*
X153965564Y27324894D01*
X153965564Y27324894D02*
X153723659Y27324894D01*
X153723659Y27324894D02*
X153602707Y27264418D01*
X153602707Y27264418D02*
X153542231Y27143465D01*
X153542231Y27143465D02*
X153542231Y27022513D01*
X153542231Y27022513D02*
X154146993Y26901561D01*
X152997946Y27324894D02*
X152997946Y26478227D01*
X152997946Y27203942D02*
X152937469Y27264418D01*
X152937469Y27264418D02*
X152816517Y27324894D01*
X152816517Y27324894D02*
X152635088Y27324894D01*
X152635088Y27324894D02*
X152514136Y27264418D01*
X152514136Y27264418D02*
X152453660Y27143465D01*
X152453660Y27143465D02*
X152453660Y26478227D01*
X150881279Y26478227D02*
X150881279Y27748227D01*
X150881279Y27143465D02*
X150155564Y27143465D01*
X150155564Y26478227D02*
X150155564Y27748227D01*
X149006517Y26478227D02*
X149006517Y27143465D01*
X149006517Y27143465D02*
X149066993Y27264418D01*
X149066993Y27264418D02*
X149187945Y27324894D01*
X149187945Y27324894D02*
X149429850Y27324894D01*
X149429850Y27324894D02*
X149550803Y27264418D01*
X149006517Y26538703D02*
X149127469Y26478227D01*
X149127469Y26478227D02*
X149429850Y26478227D01*
X149429850Y26478227D02*
X149550803Y26538703D01*
X149550803Y26538703D02*
X149611279Y26659656D01*
X149611279Y26659656D02*
X149611279Y26780608D01*
X149611279Y26780608D02*
X149550803Y26901561D01*
X149550803Y26901561D02*
X149429850Y26962037D01*
X149429850Y26962037D02*
X149127469Y26962037D01*
X149127469Y26962037D02*
X149006517Y27022513D01*
X148401755Y26478227D02*
X148401755Y27324894D01*
X148401755Y27082989D02*
X148341278Y27203942D01*
X148341278Y27203942D02*
X148280802Y27264418D01*
X148280802Y27264418D02*
X148159850Y27324894D01*
X148159850Y27324894D02*
X148038897Y27324894D01*
X147071279Y26478227D02*
X147071279Y27748227D01*
X147071279Y26538703D02*
X147192231Y26478227D01*
X147192231Y26478227D02*
X147434136Y26478227D01*
X147434136Y26478227D02*
X147555088Y26538703D01*
X147555088Y26538703D02*
X147615565Y26599180D01*
X147615565Y26599180D02*
X147676041Y26720132D01*
X147676041Y26720132D02*
X147676041Y27082989D01*
X147676041Y27082989D02*
X147615565Y27203942D01*
X147615565Y27203942D02*
X147555088Y27264418D01*
X147555088Y27264418D02*
X147434136Y27324894D01*
X147434136Y27324894D02*
X147192231Y27324894D01*
X147192231Y27324894D02*
X147071279Y27264418D01*
X146587469Y27324894D02*
X146345564Y26478227D01*
X146345564Y26478227D02*
X146103659Y27082989D01*
X146103659Y27082989D02*
X145861755Y26478227D01*
X145861755Y26478227D02*
X145619850Y27324894D01*
X144591755Y26478227D02*
X144591755Y27143465D01*
X144591755Y27143465D02*
X144652231Y27264418D01*
X144652231Y27264418D02*
X144773183Y27324894D01*
X144773183Y27324894D02*
X145015088Y27324894D01*
X145015088Y27324894D02*
X145136041Y27264418D01*
X144591755Y26538703D02*
X144712707Y26478227D01*
X144712707Y26478227D02*
X145015088Y26478227D01*
X145015088Y26478227D02*
X145136041Y26538703D01*
X145136041Y26538703D02*
X145196517Y26659656D01*
X145196517Y26659656D02*
X145196517Y26780608D01*
X145196517Y26780608D02*
X145136041Y26901561D01*
X145136041Y26901561D02*
X145015088Y26962037D01*
X145015088Y26962037D02*
X144712707Y26962037D01*
X144712707Y26962037D02*
X144591755Y27022513D01*
X143986993Y26478227D02*
X143986993Y27324894D01*
X143986993Y27082989D02*
X143926516Y27203942D01*
X143926516Y27203942D02*
X143866040Y27264418D01*
X143866040Y27264418D02*
X143745088Y27324894D01*
X143745088Y27324894D02*
X143624135Y27324894D01*
X142716993Y26538703D02*
X142837945Y26478227D01*
X142837945Y26478227D02*
X143079850Y26478227D01*
X143079850Y26478227D02*
X143200803Y26538703D01*
X143200803Y26538703D02*
X143261279Y26659656D01*
X143261279Y26659656D02*
X143261279Y27143465D01*
X143261279Y27143465D02*
X143200803Y27264418D01*
X143200803Y27264418D02*
X143079850Y27324894D01*
X143079850Y27324894D02*
X142837945Y27324894D01*
X142837945Y27324894D02*
X142716993Y27264418D01*
X142716993Y27264418D02*
X142656517Y27143465D01*
X142656517Y27143465D02*
X142656517Y27022513D01*
X142656517Y27022513D02*
X143261279Y26901561D01*
X140539851Y26478227D02*
X141144613Y26478227D01*
X141144613Y26478227D02*
X141144613Y27748227D01*
X140116518Y26478227D02*
X140116518Y27324894D01*
X140116518Y27748227D02*
X140176994Y27687751D01*
X140176994Y27687751D02*
X140116518Y27627275D01*
X140116518Y27627275D02*
X140056041Y27687751D01*
X140056041Y27687751D02*
X140116518Y27748227D01*
X140116518Y27748227D02*
X140116518Y27627275D01*
X138967470Y26538703D02*
X139088422Y26478227D01*
X139088422Y26478227D02*
X139330327Y26478227D01*
X139330327Y26478227D02*
X139451279Y26538703D01*
X139451279Y26538703D02*
X139511756Y26599180D01*
X139511756Y26599180D02*
X139572232Y26720132D01*
X139572232Y26720132D02*
X139572232Y27082989D01*
X139572232Y27082989D02*
X139511756Y27203942D01*
X139511756Y27203942D02*
X139451279Y27264418D01*
X139451279Y27264418D02*
X139330327Y27324894D01*
X139330327Y27324894D02*
X139088422Y27324894D01*
X139088422Y27324894D02*
X138967470Y27264418D01*
X137939375Y26538703D02*
X138060327Y26478227D01*
X138060327Y26478227D02*
X138302232Y26478227D01*
X138302232Y26478227D02*
X138423185Y26538703D01*
X138423185Y26538703D02*
X138483661Y26659656D01*
X138483661Y26659656D02*
X138483661Y27143465D01*
X138483661Y27143465D02*
X138423185Y27264418D01*
X138423185Y27264418D02*
X138302232Y27324894D01*
X138302232Y27324894D02*
X138060327Y27324894D01*
X138060327Y27324894D02*
X137939375Y27264418D01*
X137939375Y27264418D02*
X137878899Y27143465D01*
X137878899Y27143465D02*
X137878899Y27022513D01*
X137878899Y27022513D02*
X138483661Y26901561D01*
X137334614Y27324894D02*
X137334614Y26478227D01*
X137334614Y27203942D02*
X137274137Y27264418D01*
X137274137Y27264418D02*
X137153185Y27324894D01*
X137153185Y27324894D02*
X136971756Y27324894D01*
X136971756Y27324894D02*
X136850804Y27264418D01*
X136850804Y27264418D02*
X136790328Y27143465D01*
X136790328Y27143465D02*
X136790328Y26478227D01*
X136246042Y26538703D02*
X136125089Y26478227D01*
X136125089Y26478227D02*
X135883185Y26478227D01*
X135883185Y26478227D02*
X135762232Y26538703D01*
X135762232Y26538703D02*
X135701756Y26659656D01*
X135701756Y26659656D02*
X135701756Y26720132D01*
X135701756Y26720132D02*
X135762232Y26841084D01*
X135762232Y26841084D02*
X135883185Y26901561D01*
X135883185Y26901561D02*
X136064613Y26901561D01*
X136064613Y26901561D02*
X136185566Y26962037D01*
X136185566Y26962037D02*
X136246042Y27082989D01*
X136246042Y27082989D02*
X136246042Y27143465D01*
X136246042Y27143465D02*
X136185566Y27264418D01*
X136185566Y27264418D02*
X136064613Y27324894D01*
X136064613Y27324894D02*
X135883185Y27324894D01*
X135883185Y27324894D02*
X135762232Y27264418D01*
X134673661Y26538703D02*
X134794613Y26478227D01*
X134794613Y26478227D02*
X135036518Y26478227D01*
X135036518Y26478227D02*
X135157471Y26538703D01*
X135157471Y26538703D02*
X135217947Y26659656D01*
X135217947Y26659656D02*
X135217947Y27143465D01*
X135217947Y27143465D02*
X135157471Y27264418D01*
X135157471Y27264418D02*
X135036518Y27324894D01*
X135036518Y27324894D02*
X134794613Y27324894D01*
X134794613Y27324894D02*
X134673661Y27264418D01*
X134673661Y27264418D02*
X134613185Y27143465D01*
X134613185Y27143465D02*
X134613185Y27022513D01*
X134613185Y27022513D02*
X135217947Y26901561D01*
X133101281Y26962037D02*
X132133662Y26962037D01*
X130621757Y26538703D02*
X130440328Y26478227D01*
X130440328Y26478227D02*
X130137947Y26478227D01*
X130137947Y26478227D02*
X130016995Y26538703D01*
X130016995Y26538703D02*
X129956519Y26599180D01*
X129956519Y26599180D02*
X129896042Y26720132D01*
X129896042Y26720132D02*
X129896042Y26841084D01*
X129896042Y26841084D02*
X129956519Y26962037D01*
X129956519Y26962037D02*
X130016995Y27022513D01*
X130016995Y27022513D02*
X130137947Y27082989D01*
X130137947Y27082989D02*
X130379852Y27143465D01*
X130379852Y27143465D02*
X130500804Y27203942D01*
X130500804Y27203942D02*
X130561281Y27264418D01*
X130561281Y27264418D02*
X130621757Y27385370D01*
X130621757Y27385370D02*
X130621757Y27506323D01*
X130621757Y27506323D02*
X130561281Y27627275D01*
X130561281Y27627275D02*
X130500804Y27687751D01*
X130500804Y27687751D02*
X130379852Y27748227D01*
X130379852Y27748227D02*
X130077471Y27748227D01*
X130077471Y27748227D02*
X129896042Y27687751D01*
X129533185Y27324894D02*
X129049376Y27324894D01*
X129351757Y27748227D02*
X129351757Y26659656D01*
X129351757Y26659656D02*
X129291280Y26538703D01*
X129291280Y26538703D02*
X129170328Y26478227D01*
X129170328Y26478227D02*
X129049376Y26478227D01*
X128626043Y26478227D02*
X128626043Y27324894D01*
X128626043Y27082989D02*
X128565566Y27203942D01*
X128565566Y27203942D02*
X128505090Y27264418D01*
X128505090Y27264418D02*
X128384138Y27324894D01*
X128384138Y27324894D02*
X128263185Y27324894D01*
X127658424Y26478227D02*
X127779376Y26538703D01*
X127779376Y26538703D02*
X127839853Y26599180D01*
X127839853Y26599180D02*
X127900329Y26720132D01*
X127900329Y26720132D02*
X127900329Y27082989D01*
X127900329Y27082989D02*
X127839853Y27203942D01*
X127839853Y27203942D02*
X127779376Y27264418D01*
X127779376Y27264418D02*
X127658424Y27324894D01*
X127658424Y27324894D02*
X127476995Y27324894D01*
X127476995Y27324894D02*
X127356043Y27264418D01*
X127356043Y27264418D02*
X127295567Y27203942D01*
X127295567Y27203942D02*
X127235091Y27082989D01*
X127235091Y27082989D02*
X127235091Y26720132D01*
X127235091Y26720132D02*
X127295567Y26599180D01*
X127295567Y26599180D02*
X127356043Y26538703D01*
X127356043Y26538703D02*
X127476995Y26478227D01*
X127476995Y26478227D02*
X127658424Y26478227D01*
X126690805Y27324894D02*
X126690805Y26478227D01*
X126690805Y27203942D02*
X126630328Y27264418D01*
X126630328Y27264418D02*
X126509376Y27324894D01*
X126509376Y27324894D02*
X126327947Y27324894D01*
X126327947Y27324894D02*
X126206995Y27264418D01*
X126206995Y27264418D02*
X126146519Y27143465D01*
X126146519Y27143465D02*
X126146519Y26478227D01*
X124997471Y27324894D02*
X124997471Y26296799D01*
X124997471Y26296799D02*
X125057947Y26175846D01*
X125057947Y26175846D02*
X125118423Y26115370D01*
X125118423Y26115370D02*
X125239376Y26054894D01*
X125239376Y26054894D02*
X125420804Y26054894D01*
X125420804Y26054894D02*
X125541757Y26115370D01*
X124997471Y26538703D02*
X125118423Y26478227D01*
X125118423Y26478227D02*
X125360328Y26478227D01*
X125360328Y26478227D02*
X125481280Y26538703D01*
X125481280Y26538703D02*
X125541757Y26599180D01*
X125541757Y26599180D02*
X125602233Y26720132D01*
X125602233Y26720132D02*
X125602233Y27082989D01*
X125602233Y27082989D02*
X125541757Y27203942D01*
X125541757Y27203942D02*
X125481280Y27264418D01*
X125481280Y27264418D02*
X125360328Y27324894D01*
X125360328Y27324894D02*
X125118423Y27324894D01*
X125118423Y27324894D02*
X124997471Y27264418D01*
X124211280Y26478227D02*
X124332232Y26538703D01*
X124332232Y26538703D02*
X124392709Y26659656D01*
X124392709Y26659656D02*
X124392709Y27748227D01*
X123848423Y27324894D02*
X123546042Y26478227D01*
X123243661Y27324894D02*
X123546042Y26478227D01*
X123546042Y26478227D02*
X123666994Y26175846D01*
X123666994Y26175846D02*
X123727471Y26115370D01*
X123727471Y26115370D02*
X123848423Y26054894D01*
X121066518Y26478227D02*
X121489852Y27082989D01*
X121792233Y26478227D02*
X121792233Y27748227D01*
X121792233Y27748227D02*
X121308423Y27748227D01*
X121308423Y27748227D02*
X121187471Y27687751D01*
X121187471Y27687751D02*
X121126994Y27627275D01*
X121126994Y27627275D02*
X121066518Y27506323D01*
X121066518Y27506323D02*
X121066518Y27324894D01*
X121066518Y27324894D02*
X121126994Y27203942D01*
X121126994Y27203942D02*
X121187471Y27143465D01*
X121187471Y27143465D02*
X121308423Y27082989D01*
X121308423Y27082989D02*
X121792233Y27082989D01*
X120038423Y26538703D02*
X120159375Y26478227D01*
X120159375Y26478227D02*
X120401280Y26478227D01*
X120401280Y26478227D02*
X120522233Y26538703D01*
X120522233Y26538703D02*
X120582709Y26659656D01*
X120582709Y26659656D02*
X120582709Y27143465D01*
X120582709Y27143465D02*
X120522233Y27264418D01*
X120522233Y27264418D02*
X120401280Y27324894D01*
X120401280Y27324894D02*
X120159375Y27324894D01*
X120159375Y27324894D02*
X120038423Y27264418D01*
X120038423Y27264418D02*
X119977947Y27143465D01*
X119977947Y27143465D02*
X119977947Y27022513D01*
X119977947Y27022513D02*
X120582709Y26901561D01*
X118889376Y26538703D02*
X119010328Y26478227D01*
X119010328Y26478227D02*
X119252233Y26478227D01*
X119252233Y26478227D02*
X119373185Y26538703D01*
X119373185Y26538703D02*
X119433662Y26599180D01*
X119433662Y26599180D02*
X119494138Y26720132D01*
X119494138Y26720132D02*
X119494138Y27082989D01*
X119494138Y27082989D02*
X119433662Y27203942D01*
X119433662Y27203942D02*
X119373185Y27264418D01*
X119373185Y27264418D02*
X119252233Y27324894D01*
X119252233Y27324894D02*
X119010328Y27324894D01*
X119010328Y27324894D02*
X118889376Y27264418D01*
X118345091Y26478227D02*
X118345091Y27324894D01*
X118345091Y27748227D02*
X118405567Y27687751D01*
X118405567Y27687751D02*
X118345091Y27627275D01*
X118345091Y27627275D02*
X118284614Y27687751D01*
X118284614Y27687751D02*
X118345091Y27748227D01*
X118345091Y27748227D02*
X118345091Y27627275D01*
X117740329Y27324894D02*
X117740329Y26054894D01*
X117740329Y27264418D02*
X117619376Y27324894D01*
X117619376Y27324894D02*
X117377471Y27324894D01*
X117377471Y27324894D02*
X117256519Y27264418D01*
X117256519Y27264418D02*
X117196043Y27203942D01*
X117196043Y27203942D02*
X117135567Y27082989D01*
X117135567Y27082989D02*
X117135567Y26720132D01*
X117135567Y26720132D02*
X117196043Y26599180D01*
X117196043Y26599180D02*
X117256519Y26538703D01*
X117256519Y26538703D02*
X117377471Y26478227D01*
X117377471Y26478227D02*
X117619376Y26478227D01*
X117619376Y26478227D02*
X117740329Y26538703D01*
X116591281Y26478227D02*
X116591281Y27324894D01*
X116591281Y27082989D02*
X116530804Y27203942D01*
X116530804Y27203942D02*
X116470328Y27264418D01*
X116470328Y27264418D02*
X116349376Y27324894D01*
X116349376Y27324894D02*
X116228423Y27324894D01*
X115623662Y26478227D02*
X115744614Y26538703D01*
X115744614Y26538703D02*
X115805091Y26599180D01*
X115805091Y26599180D02*
X115865567Y26720132D01*
X115865567Y26720132D02*
X115865567Y27082989D01*
X115865567Y27082989D02*
X115805091Y27203942D01*
X115805091Y27203942D02*
X115744614Y27264418D01*
X115744614Y27264418D02*
X115623662Y27324894D01*
X115623662Y27324894D02*
X115442233Y27324894D01*
X115442233Y27324894D02*
X115321281Y27264418D01*
X115321281Y27264418D02*
X115260805Y27203942D01*
X115260805Y27203942D02*
X115200329Y27082989D01*
X115200329Y27082989D02*
X115200329Y26720132D01*
X115200329Y26720132D02*
X115260805Y26599180D01*
X115260805Y26599180D02*
X115321281Y26538703D01*
X115321281Y26538703D02*
X115442233Y26478227D01*
X115442233Y26478227D02*
X115623662Y26478227D01*
X114111757Y26538703D02*
X114232709Y26478227D01*
X114232709Y26478227D02*
X114474614Y26478227D01*
X114474614Y26478227D02*
X114595566Y26538703D01*
X114595566Y26538703D02*
X114656043Y26599180D01*
X114656043Y26599180D02*
X114716519Y26720132D01*
X114716519Y26720132D02*
X114716519Y27082989D01*
X114716519Y27082989D02*
X114656043Y27203942D01*
X114656043Y27203942D02*
X114595566Y27264418D01*
X114595566Y27264418D02*
X114474614Y27324894D01*
X114474614Y27324894D02*
X114232709Y27324894D01*
X114232709Y27324894D02*
X114111757Y27264418D01*
X113023186Y26478227D02*
X113023186Y27143465D01*
X113023186Y27143465D02*
X113083662Y27264418D01*
X113083662Y27264418D02*
X113204614Y27324894D01*
X113204614Y27324894D02*
X113446519Y27324894D01*
X113446519Y27324894D02*
X113567472Y27264418D01*
X113023186Y26538703D02*
X113144138Y26478227D01*
X113144138Y26478227D02*
X113446519Y26478227D01*
X113446519Y26478227D02*
X113567472Y26538703D01*
X113567472Y26538703D02*
X113627948Y26659656D01*
X113627948Y26659656D02*
X113627948Y26780608D01*
X113627948Y26780608D02*
X113567472Y26901561D01*
X113567472Y26901561D02*
X113446519Y26962037D01*
X113446519Y26962037D02*
X113144138Y26962037D01*
X113144138Y26962037D02*
X113023186Y27022513D01*
X112236995Y26478227D02*
X112357947Y26538703D01*
X112357947Y26538703D02*
X112418424Y26659656D01*
X112418424Y26659656D02*
X112418424Y27748227D01*
X110422709Y25994418D02*
X110483186Y26054894D01*
X110483186Y26054894D02*
X110604138Y26236323D01*
X110604138Y26236323D02*
X110664614Y26357275D01*
X110664614Y26357275D02*
X110725090Y26538703D01*
X110725090Y26538703D02*
X110785567Y26841084D01*
X110785567Y26841084D02*
X110785567Y27082989D01*
X110785567Y27082989D02*
X110725090Y27385370D01*
X110725090Y27385370D02*
X110664614Y27566799D01*
X110664614Y27566799D02*
X110604138Y27687751D01*
X110604138Y27687751D02*
X110483186Y27869180D01*
X110483186Y27869180D02*
X110422709Y27929656D01*
X109213185Y26599180D02*
X109273661Y26538703D01*
X109273661Y26538703D02*
X109455090Y26478227D01*
X109455090Y26478227D02*
X109576042Y26478227D01*
X109576042Y26478227D02*
X109757471Y26538703D01*
X109757471Y26538703D02*
X109878423Y26659656D01*
X109878423Y26659656D02*
X109938900Y26780608D01*
X109938900Y26780608D02*
X109999376Y27022513D01*
X109999376Y27022513D02*
X109999376Y27203942D01*
X109999376Y27203942D02*
X109938900Y27445846D01*
X109938900Y27445846D02*
X109878423Y27566799D01*
X109878423Y27566799D02*
X109757471Y27687751D01*
X109757471Y27687751D02*
X109576042Y27748227D01*
X109576042Y27748227D02*
X109455090Y27748227D01*
X109455090Y27748227D02*
X109273661Y27687751D01*
X109273661Y27687751D02*
X109213185Y27627275D01*
X108668900Y27143465D02*
X108245566Y27143465D01*
X108064138Y26478227D02*
X108668900Y26478227D01*
X108668900Y26478227D02*
X108668900Y27748227D01*
X108668900Y27748227D02*
X108064138Y27748227D01*
X106794137Y26478227D02*
X107217471Y27082989D01*
X107519852Y26478227D02*
X107519852Y27748227D01*
X107519852Y27748227D02*
X107036042Y27748227D01*
X107036042Y27748227D02*
X106915090Y27687751D01*
X106915090Y27687751D02*
X106854613Y27627275D01*
X106854613Y27627275D02*
X106794137Y27506323D01*
X106794137Y27506323D02*
X106794137Y27324894D01*
X106794137Y27324894D02*
X106854613Y27203942D01*
X106854613Y27203942D02*
X106915090Y27143465D01*
X106915090Y27143465D02*
X107036042Y27082989D01*
X107036042Y27082989D02*
X107519852Y27082989D01*
X106249852Y26478227D02*
X106249852Y27748227D01*
X106249852Y27748227D02*
X105524137Y26478227D01*
X105524137Y26478227D02*
X105524137Y27748227D01*
X104919376Y26962037D02*
X103951757Y26962037D01*
X103105090Y27748227D02*
X102863185Y27748227D01*
X102863185Y27748227D02*
X102742233Y27687751D01*
X102742233Y27687751D02*
X102621280Y27566799D01*
X102621280Y27566799D02*
X102560804Y27324894D01*
X102560804Y27324894D02*
X102560804Y26901561D01*
X102560804Y26901561D02*
X102621280Y26659656D01*
X102621280Y26659656D02*
X102742233Y26538703D01*
X102742233Y26538703D02*
X102863185Y26478227D01*
X102863185Y26478227D02*
X103105090Y26478227D01*
X103105090Y26478227D02*
X103226042Y26538703D01*
X103226042Y26538703D02*
X103346995Y26659656D01*
X103346995Y26659656D02*
X103407471Y26901561D01*
X103407471Y26901561D02*
X103407471Y27324894D01*
X103407471Y27324894D02*
X103346995Y27566799D01*
X103346995Y27566799D02*
X103226042Y27687751D01*
X103226042Y27687751D02*
X103105090Y27748227D01*
X102016519Y26478227D02*
X102016519Y27748227D01*
X102016519Y27143465D02*
X101290804Y27143465D01*
X101290804Y26478227D02*
X101290804Y27748227D01*
X100081281Y26478227D02*
X100686043Y26478227D01*
X100686043Y26478227D02*
X100686043Y27748227D01*
X99657948Y26962037D02*
X98690329Y26962037D01*
X98146043Y26538703D02*
X97964614Y26478227D01*
X97964614Y26478227D02*
X97662233Y26478227D01*
X97662233Y26478227D02*
X97541281Y26538703D01*
X97541281Y26538703D02*
X97480805Y26599180D01*
X97480805Y26599180D02*
X97420328Y26720132D01*
X97420328Y26720132D02*
X97420328Y26841084D01*
X97420328Y26841084D02*
X97480805Y26962037D01*
X97480805Y26962037D02*
X97541281Y27022513D01*
X97541281Y27022513D02*
X97662233Y27082989D01*
X97662233Y27082989D02*
X97904138Y27143465D01*
X97904138Y27143465D02*
X98025090Y27203942D01*
X98025090Y27203942D02*
X98085567Y27264418D01*
X98085567Y27264418D02*
X98146043Y27385370D01*
X98146043Y27385370D02*
X98146043Y27506323D01*
X98146043Y27506323D02*
X98085567Y27627275D01*
X98085567Y27627275D02*
X98025090Y27687751D01*
X98025090Y27687751D02*
X97904138Y27748227D01*
X97904138Y27748227D02*
X97601757Y27748227D01*
X97601757Y27748227D02*
X97420328Y27687751D01*
X96876043Y26962037D02*
X95908424Y26962037D01*
X95364138Y27627275D02*
X95303662Y27687751D01*
X95303662Y27687751D02*
X95182709Y27748227D01*
X95182709Y27748227D02*
X94880328Y27748227D01*
X94880328Y27748227D02*
X94759376Y27687751D01*
X94759376Y27687751D02*
X94698900Y27627275D01*
X94698900Y27627275D02*
X94638423Y27506323D01*
X94638423Y27506323D02*
X94638423Y27385370D01*
X94638423Y27385370D02*
X94698900Y27203942D01*
X94698900Y27203942D02*
X95424614Y26478227D01*
X95424614Y26478227D02*
X94638423Y26478227D01*
X94094138Y26599180D02*
X94033661Y26538703D01*
X94033661Y26538703D02*
X94094138Y26478227D01*
X94094138Y26478227D02*
X94154614Y26538703D01*
X94154614Y26538703D02*
X94094138Y26599180D01*
X94094138Y26599180D02*
X94094138Y26478227D01*
X93247471Y27748227D02*
X93126518Y27748227D01*
X93126518Y27748227D02*
X93005566Y27687751D01*
X93005566Y27687751D02*
X92945090Y27627275D01*
X92945090Y27627275D02*
X92884614Y27506323D01*
X92884614Y27506323D02*
X92824137Y27264418D01*
X92824137Y27264418D02*
X92824137Y26962037D01*
X92824137Y26962037D02*
X92884614Y26720132D01*
X92884614Y26720132D02*
X92945090Y26599180D01*
X92945090Y26599180D02*
X93005566Y26538703D01*
X93005566Y26538703D02*
X93126518Y26478227D01*
X93126518Y26478227D02*
X93247471Y26478227D01*
X93247471Y26478227D02*
X93368423Y26538703D01*
X93368423Y26538703D02*
X93428899Y26599180D01*
X93428899Y26599180D02*
X93489376Y26720132D01*
X93489376Y26720132D02*
X93549852Y26962037D01*
X93549852Y26962037D02*
X93549852Y27264418D01*
X93549852Y27264418D02*
X93489376Y27506323D01*
X93489376Y27506323D02*
X93428899Y27627275D01*
X93428899Y27627275D02*
X93368423Y27687751D01*
X93368423Y27687751D02*
X93247471Y27748227D01*
X92400804Y25994418D02*
X92340328Y26054894D01*
X92340328Y26054894D02*
X92219375Y26236323D01*
X92219375Y26236323D02*
X92158899Y26357275D01*
X92158899Y26357275D02*
X92098423Y26538703D01*
X92098423Y26538703D02*
X92037947Y26841084D01*
X92037947Y26841084D02*
X92037947Y27082989D01*
X92037947Y27082989D02*
X92098423Y27385370D01*
X92098423Y27385370D02*
X92158899Y27566799D01*
X92158899Y27566799D02*
X92219375Y27687751D01*
X92219375Y27687751D02*
X92340328Y27869180D01*
X92340328Y27869180D02*
X92400804Y27929656D01*
X91433185Y26599180D02*
X91372708Y26538703D01*
X91372708Y26538703D02*
X91433185Y26478227D01*
X91433185Y26478227D02*
X91493661Y26538703D01*
X91493661Y26538703D02*
X91433185Y26599180D01*
X91433185Y26599180D02*
X91433185Y26478227D01*
X156626517Y22449445D02*
X156445088Y22388969D01*
X156445088Y22388969D02*
X156142707Y22388969D01*
X156142707Y22388969D02*
X156021755Y22449445D01*
X156021755Y22449445D02*
X155961279Y22509922D01*
X155961279Y22509922D02*
X155900802Y22630874D01*
X155900802Y22630874D02*
X155900802Y22751826D01*
X155900802Y22751826D02*
X155961279Y22872779D01*
X155961279Y22872779D02*
X156021755Y22933255D01*
X156021755Y22933255D02*
X156142707Y22993731D01*
X156142707Y22993731D02*
X156384612Y23054207D01*
X156384612Y23054207D02*
X156505564Y23114684D01*
X156505564Y23114684D02*
X156566041Y23175160D01*
X156566041Y23175160D02*
X156626517Y23296112D01*
X156626517Y23296112D02*
X156626517Y23417065D01*
X156626517Y23417065D02*
X156566041Y23538017D01*
X156566041Y23538017D02*
X156505564Y23598493D01*
X156505564Y23598493D02*
X156384612Y23658969D01*
X156384612Y23658969D02*
X156082231Y23658969D01*
X156082231Y23658969D02*
X155900802Y23598493D01*
X154872707Y22449445D02*
X154993659Y22388969D01*
X154993659Y22388969D02*
X155235564Y22388969D01*
X155235564Y22388969D02*
X155356517Y22449445D01*
X155356517Y22449445D02*
X155416993Y22570398D01*
X155416993Y22570398D02*
X155416993Y23054207D01*
X155416993Y23054207D02*
X155356517Y23175160D01*
X155356517Y23175160D02*
X155235564Y23235636D01*
X155235564Y23235636D02*
X154993659Y23235636D01*
X154993659Y23235636D02*
X154872707Y23175160D01*
X154872707Y23175160D02*
X154812231Y23054207D01*
X154812231Y23054207D02*
X154812231Y22933255D01*
X154812231Y22933255D02*
X155416993Y22812303D01*
X153784136Y22449445D02*
X153905088Y22388969D01*
X153905088Y22388969D02*
X154146993Y22388969D01*
X154146993Y22388969D02*
X154267946Y22449445D01*
X154267946Y22449445D02*
X154328422Y22570398D01*
X154328422Y22570398D02*
X154328422Y23054207D01*
X154328422Y23054207D02*
X154267946Y23175160D01*
X154267946Y23175160D02*
X154146993Y23235636D01*
X154146993Y23235636D02*
X153905088Y23235636D01*
X153905088Y23235636D02*
X153784136Y23175160D01*
X153784136Y23175160D02*
X153723660Y23054207D01*
X153723660Y23054207D02*
X153723660Y22933255D01*
X153723660Y22933255D02*
X154328422Y22812303D01*
X152211756Y22388969D02*
X152211756Y23658969D01*
X151667470Y22388969D02*
X151667470Y23054207D01*
X151667470Y23054207D02*
X151727946Y23175160D01*
X151727946Y23175160D02*
X151848898Y23235636D01*
X151848898Y23235636D02*
X152030327Y23235636D01*
X152030327Y23235636D02*
X152151279Y23175160D01*
X152151279Y23175160D02*
X152211756Y23114684D01*
X151244136Y23235636D02*
X150760327Y23235636D01*
X151062708Y23658969D02*
X151062708Y22570398D01*
X151062708Y22570398D02*
X151002231Y22449445D01*
X151002231Y22449445D02*
X150881279Y22388969D01*
X150881279Y22388969D02*
X150760327Y22388969D01*
X150518422Y23235636D02*
X150034613Y23235636D01*
X150336994Y23658969D02*
X150336994Y22570398D01*
X150336994Y22570398D02*
X150276517Y22449445D01*
X150276517Y22449445D02*
X150155565Y22388969D01*
X150155565Y22388969D02*
X150034613Y22388969D01*
X149611280Y23235636D02*
X149611280Y21965636D01*
X149611280Y23175160D02*
X149490327Y23235636D01*
X149490327Y23235636D02*
X149248422Y23235636D01*
X149248422Y23235636D02*
X149127470Y23175160D01*
X149127470Y23175160D02*
X149066994Y23114684D01*
X149066994Y23114684D02*
X149006518Y22993731D01*
X149006518Y22993731D02*
X149006518Y22630874D01*
X149006518Y22630874D02*
X149066994Y22509922D01*
X149066994Y22509922D02*
X149127470Y22449445D01*
X149127470Y22449445D02*
X149248422Y22388969D01*
X149248422Y22388969D02*
X149490327Y22388969D01*
X149490327Y22388969D02*
X149611280Y22449445D01*
X148522708Y22449445D02*
X148401755Y22388969D01*
X148401755Y22388969D02*
X148159851Y22388969D01*
X148159851Y22388969D02*
X148038898Y22449445D01*
X148038898Y22449445D02*
X147978422Y22570398D01*
X147978422Y22570398D02*
X147978422Y22630874D01*
X147978422Y22630874D02*
X148038898Y22751826D01*
X148038898Y22751826D02*
X148159851Y22812303D01*
X148159851Y22812303D02*
X148341279Y22812303D01*
X148341279Y22812303D02*
X148462232Y22872779D01*
X148462232Y22872779D02*
X148522708Y22993731D01*
X148522708Y22993731D02*
X148522708Y23054207D01*
X148522708Y23054207D02*
X148462232Y23175160D01*
X148462232Y23175160D02*
X148341279Y23235636D01*
X148341279Y23235636D02*
X148159851Y23235636D01*
X148159851Y23235636D02*
X148038898Y23175160D01*
X147434137Y22509922D02*
X147373660Y22449445D01*
X147373660Y22449445D02*
X147434137Y22388969D01*
X147434137Y22388969D02*
X147494613Y22449445D01*
X147494613Y22449445D02*
X147434137Y22509922D01*
X147434137Y22509922D02*
X147434137Y22388969D01*
X147434137Y23175160D02*
X147373660Y23114684D01*
X147373660Y23114684D02*
X147434137Y23054207D01*
X147434137Y23054207D02*
X147494613Y23114684D01*
X147494613Y23114684D02*
X147434137Y23175160D01*
X147434137Y23175160D02*
X147434137Y23054207D01*
X145922232Y23719445D02*
X147010803Y22086588D01*
X144591756Y23719445D02*
X145680327Y22086588D01*
X143986994Y22388969D02*
X144107946Y22449445D01*
X144107946Y22449445D02*
X144168423Y22509922D01*
X144168423Y22509922D02*
X144228899Y22630874D01*
X144228899Y22630874D02*
X144228899Y22993731D01*
X144228899Y22993731D02*
X144168423Y23114684D01*
X144168423Y23114684D02*
X144107946Y23175160D01*
X144107946Y23175160D02*
X143986994Y23235636D01*
X143986994Y23235636D02*
X143805565Y23235636D01*
X143805565Y23235636D02*
X143684613Y23175160D01*
X143684613Y23175160D02*
X143624137Y23114684D01*
X143624137Y23114684D02*
X143563661Y22993731D01*
X143563661Y22993731D02*
X143563661Y22630874D01*
X143563661Y22630874D02*
X143624137Y22509922D01*
X143624137Y22509922D02*
X143684613Y22449445D01*
X143684613Y22449445D02*
X143805565Y22388969D01*
X143805565Y22388969D02*
X143986994Y22388969D01*
X143019375Y22388969D02*
X143019375Y23658969D01*
X142475089Y22388969D02*
X142475089Y23054207D01*
X142475089Y23054207D02*
X142535565Y23175160D01*
X142535565Y23175160D02*
X142656517Y23235636D01*
X142656517Y23235636D02*
X142837946Y23235636D01*
X142837946Y23235636D02*
X142958898Y23175160D01*
X142958898Y23175160D02*
X143019375Y23114684D01*
X141991279Y23235636D02*
X141749374Y22388969D01*
X141749374Y22388969D02*
X141507469Y22993731D01*
X141507469Y22993731D02*
X141265565Y22388969D01*
X141265565Y22388969D02*
X141023660Y23235636D01*
X140539851Y22388969D02*
X140539851Y23235636D01*
X140539851Y22993731D02*
X140479374Y23114684D01*
X140479374Y23114684D02*
X140418898Y23175160D01*
X140418898Y23175160D02*
X140297946Y23235636D01*
X140297946Y23235636D02*
X140176993Y23235636D01*
X139753661Y22509922D02*
X139693184Y22449445D01*
X139693184Y22449445D02*
X139753661Y22388969D01*
X139753661Y22388969D02*
X139814137Y22449445D01*
X139814137Y22449445D02*
X139753661Y22509922D01*
X139753661Y22509922D02*
X139753661Y22388969D01*
X138967470Y22388969D02*
X139088422Y22449445D01*
X139088422Y22449445D02*
X139148899Y22509922D01*
X139148899Y22509922D02*
X139209375Y22630874D01*
X139209375Y22630874D02*
X139209375Y22993731D01*
X139209375Y22993731D02*
X139148899Y23114684D01*
X139148899Y23114684D02*
X139088422Y23175160D01*
X139088422Y23175160D02*
X138967470Y23235636D01*
X138967470Y23235636D02*
X138786041Y23235636D01*
X138786041Y23235636D02*
X138665089Y23175160D01*
X138665089Y23175160D02*
X138604613Y23114684D01*
X138604613Y23114684D02*
X138544137Y22993731D01*
X138544137Y22993731D02*
X138544137Y22630874D01*
X138544137Y22630874D02*
X138604613Y22509922D01*
X138604613Y22509922D02*
X138665089Y22449445D01*
X138665089Y22449445D02*
X138786041Y22388969D01*
X138786041Y22388969D02*
X138967470Y22388969D01*
X137999851Y22388969D02*
X137999851Y23235636D01*
X137999851Y22993731D02*
X137939374Y23114684D01*
X137939374Y23114684D02*
X137878898Y23175160D01*
X137878898Y23175160D02*
X137757946Y23235636D01*
X137757946Y23235636D02*
X137636993Y23235636D01*
X136669375Y23235636D02*
X136669375Y22207541D01*
X136669375Y22207541D02*
X136729851Y22086588D01*
X136729851Y22086588D02*
X136790327Y22026112D01*
X136790327Y22026112D02*
X136911280Y21965636D01*
X136911280Y21965636D02*
X137092708Y21965636D01*
X137092708Y21965636D02*
X137213661Y22026112D01*
X136669375Y22449445D02*
X136790327Y22388969D01*
X136790327Y22388969D02*
X137032232Y22388969D01*
X137032232Y22388969D02*
X137153184Y22449445D01*
X137153184Y22449445D02*
X137213661Y22509922D01*
X137213661Y22509922D02*
X137274137Y22630874D01*
X137274137Y22630874D02*
X137274137Y22993731D01*
X137274137Y22993731D02*
X137213661Y23114684D01*
X137213661Y23114684D02*
X137153184Y23175160D01*
X137153184Y23175160D02*
X137032232Y23235636D01*
X137032232Y23235636D02*
X136790327Y23235636D01*
X136790327Y23235636D02*
X136669375Y23175160D01*
X135157470Y23719445D02*
X136246041Y22086588D01*
X134189851Y22449445D02*
X134310803Y22388969D01*
X134310803Y22388969D02*
X134552708Y22388969D01*
X134552708Y22388969D02*
X134673660Y22449445D01*
X134673660Y22449445D02*
X134734137Y22509922D01*
X134734137Y22509922D02*
X134794613Y22630874D01*
X134794613Y22630874D02*
X134794613Y22993731D01*
X134794613Y22993731D02*
X134734137Y23114684D01*
X134734137Y23114684D02*
X134673660Y23175160D01*
X134673660Y23175160D02*
X134552708Y23235636D01*
X134552708Y23235636D02*
X134310803Y23235636D01*
X134310803Y23235636D02*
X134189851Y23175160D01*
X133161756Y22449445D02*
X133282708Y22388969D01*
X133282708Y22388969D02*
X133524613Y22388969D01*
X133524613Y22388969D02*
X133645566Y22449445D01*
X133645566Y22449445D02*
X133706042Y22570398D01*
X133706042Y22570398D02*
X133706042Y23054207D01*
X133706042Y23054207D02*
X133645566Y23175160D01*
X133645566Y23175160D02*
X133524613Y23235636D01*
X133524613Y23235636D02*
X133282708Y23235636D01*
X133282708Y23235636D02*
X133161756Y23175160D01*
X133161756Y23175160D02*
X133101280Y23054207D01*
X133101280Y23054207D02*
X133101280Y22933255D01*
X133101280Y22933255D02*
X133706042Y22812303D01*
X132556995Y22388969D02*
X132556995Y23235636D01*
X132556995Y22993731D02*
X132496518Y23114684D01*
X132496518Y23114684D02*
X132436042Y23175160D01*
X132436042Y23175160D02*
X132315090Y23235636D01*
X132315090Y23235636D02*
X132194137Y23235636D01*
X131770805Y23235636D02*
X131770805Y22388969D01*
X131770805Y23114684D02*
X131710328Y23175160D01*
X131710328Y23175160D02*
X131589376Y23235636D01*
X131589376Y23235636D02*
X131407947Y23235636D01*
X131407947Y23235636D02*
X131286995Y23175160D01*
X131286995Y23175160D02*
X131226519Y23054207D01*
X131226519Y23054207D02*
X131226519Y22388969D01*
X130924138Y22268017D02*
X129956518Y22268017D01*
X129472709Y22388969D02*
X129593661Y22449445D01*
X129593661Y22449445D02*
X129654138Y22509922D01*
X129654138Y22509922D02*
X129714614Y22630874D01*
X129714614Y22630874D02*
X129714614Y22993731D01*
X129714614Y22993731D02*
X129654138Y23114684D01*
X129654138Y23114684D02*
X129593661Y23175160D01*
X129593661Y23175160D02*
X129472709Y23235636D01*
X129472709Y23235636D02*
X129291280Y23235636D01*
X129291280Y23235636D02*
X129170328Y23175160D01*
X129170328Y23175160D02*
X129109852Y23114684D01*
X129109852Y23114684D02*
X129049376Y22993731D01*
X129049376Y22993731D02*
X129049376Y22630874D01*
X129049376Y22630874D02*
X129109852Y22509922D01*
X129109852Y22509922D02*
X129170328Y22449445D01*
X129170328Y22449445D02*
X129291280Y22388969D01*
X129291280Y22388969D02*
X129472709Y22388969D01*
X128505090Y22388969D02*
X128505090Y23658969D01*
X127960804Y22388969D02*
X127960804Y23054207D01*
X127960804Y23054207D02*
X128021280Y23175160D01*
X128021280Y23175160D02*
X128142232Y23235636D01*
X128142232Y23235636D02*
X128323661Y23235636D01*
X128323661Y23235636D02*
X128444613Y23175160D01*
X128444613Y23175160D02*
X128505090Y23114684D01*
X127174613Y22388969D02*
X127295565Y22449445D01*
X127295565Y22449445D02*
X127356042Y22570398D01*
X127356042Y22570398D02*
X127356042Y23658969D01*
X126993185Y22268017D02*
X126025565Y22268017D01*
X125783661Y22449445D02*
X125662708Y22388969D01*
X125662708Y22388969D02*
X125420804Y22388969D01*
X125420804Y22388969D02*
X125299851Y22449445D01*
X125299851Y22449445D02*
X125239375Y22570398D01*
X125239375Y22570398D02*
X125239375Y22630874D01*
X125239375Y22630874D02*
X125299851Y22751826D01*
X125299851Y22751826D02*
X125420804Y22812303D01*
X125420804Y22812303D02*
X125602232Y22812303D01*
X125602232Y22812303D02*
X125723185Y22872779D01*
X125723185Y22872779D02*
X125783661Y22993731D01*
X125783661Y22993731D02*
X125783661Y23054207D01*
X125783661Y23054207D02*
X125723185Y23175160D01*
X125723185Y23175160D02*
X125602232Y23235636D01*
X125602232Y23235636D02*
X125420804Y23235636D01*
X125420804Y23235636D02*
X125299851Y23175160D01*
X124997471Y22268017D02*
X124029851Y22268017D01*
X123848423Y23235636D02*
X123546042Y22388969D01*
X123546042Y22388969D02*
X123243661Y23235636D01*
X122820328Y23538017D02*
X122759852Y23598493D01*
X122759852Y23598493D02*
X122638899Y23658969D01*
X122638899Y23658969D02*
X122336518Y23658969D01*
X122336518Y23658969D02*
X122215566Y23598493D01*
X122215566Y23598493D02*
X122155090Y23538017D01*
X122155090Y23538017D02*
X122094613Y23417065D01*
X122094613Y23417065D02*
X122094613Y23296112D01*
X122094613Y23296112D02*
X122155090Y23114684D01*
X122155090Y23114684D02*
X122880804Y22388969D01*
X122880804Y22388969D02*
X122094613Y22388969D01*
X121550328Y22509922D02*
X121489851Y22449445D01*
X121489851Y22449445D02*
X121550328Y22388969D01*
X121550328Y22388969D02*
X121610804Y22449445D01*
X121610804Y22449445D02*
X121550328Y22509922D01*
X121550328Y22509922D02*
X121550328Y22388969D01*
X121126994Y23235636D02*
X120643185Y23235636D01*
X120945566Y23658969D02*
X120945566Y22570398D01*
X120945566Y22570398D02*
X120885089Y22449445D01*
X120885089Y22449445D02*
X120764137Y22388969D01*
X120764137Y22388969D02*
X120643185Y22388969D01*
X120340804Y22388969D02*
X119675566Y23235636D01*
X120340804Y23235636D02*
X119675566Y22388969D01*
X119373185Y23235636D02*
X118889376Y23235636D01*
X119191757Y23658969D02*
X119191757Y22570398D01*
X119191757Y22570398D02*
X119131280Y22449445D01*
X119131280Y22449445D02*
X119010328Y22388969D01*
X119010328Y22388969D02*
X118889376Y22388969D01*
X117679852Y23235636D02*
X117196043Y23235636D01*
X117498424Y22388969D02*
X117498424Y23477541D01*
X117498424Y23477541D02*
X117437947Y23598493D01*
X117437947Y23598493D02*
X117316995Y23658969D01*
X117316995Y23658969D02*
X117196043Y23658969D01*
X116591281Y22388969D02*
X116712233Y22449445D01*
X116712233Y22449445D02*
X116772710Y22509922D01*
X116772710Y22509922D02*
X116833186Y22630874D01*
X116833186Y22630874D02*
X116833186Y22993731D01*
X116833186Y22993731D02*
X116772710Y23114684D01*
X116772710Y23114684D02*
X116712233Y23175160D01*
X116712233Y23175160D02*
X116591281Y23235636D01*
X116591281Y23235636D02*
X116409852Y23235636D01*
X116409852Y23235636D02*
X116288900Y23175160D01*
X116288900Y23175160D02*
X116228424Y23114684D01*
X116228424Y23114684D02*
X116167948Y22993731D01*
X116167948Y22993731D02*
X116167948Y22630874D01*
X116167948Y22630874D02*
X116228424Y22509922D01*
X116228424Y22509922D02*
X116288900Y22449445D01*
X116288900Y22449445D02*
X116409852Y22388969D01*
X116409852Y22388969D02*
X116591281Y22388969D01*
X115623662Y22388969D02*
X115623662Y23235636D01*
X115623662Y22993731D02*
X115563185Y23114684D01*
X115563185Y23114684D02*
X115502709Y23175160D01*
X115502709Y23175160D02*
X115381757Y23235636D01*
X115381757Y23235636D02*
X115260804Y23235636D01*
X113325567Y22388969D02*
X113325567Y23658969D01*
X113325567Y22449445D02*
X113446519Y22388969D01*
X113446519Y22388969D02*
X113688424Y22388969D01*
X113688424Y22388969D02*
X113809376Y22449445D01*
X113809376Y22449445D02*
X113869853Y22509922D01*
X113869853Y22509922D02*
X113930329Y22630874D01*
X113930329Y22630874D02*
X113930329Y22993731D01*
X113930329Y22993731D02*
X113869853Y23114684D01*
X113869853Y23114684D02*
X113809376Y23175160D01*
X113809376Y23175160D02*
X113688424Y23235636D01*
X113688424Y23235636D02*
X113446519Y23235636D01*
X113446519Y23235636D02*
X113325567Y23175160D01*
X112236995Y22449445D02*
X112357947Y22388969D01*
X112357947Y22388969D02*
X112599852Y22388969D01*
X112599852Y22388969D02*
X112720805Y22449445D01*
X112720805Y22449445D02*
X112781281Y22570398D01*
X112781281Y22570398D02*
X112781281Y23054207D01*
X112781281Y23054207D02*
X112720805Y23175160D01*
X112720805Y23175160D02*
X112599852Y23235636D01*
X112599852Y23235636D02*
X112357947Y23235636D01*
X112357947Y23235636D02*
X112236995Y23175160D01*
X112236995Y23175160D02*
X112176519Y23054207D01*
X112176519Y23054207D02*
X112176519Y22933255D01*
X112176519Y22933255D02*
X112781281Y22812303D01*
X111813662Y23235636D02*
X111329853Y23235636D01*
X111632234Y23658969D02*
X111632234Y22570398D01*
X111632234Y22570398D02*
X111571757Y22449445D01*
X111571757Y22449445D02*
X111450805Y22388969D01*
X111450805Y22388969D02*
X111329853Y22388969D01*
X110362234Y22388969D02*
X110362234Y23054207D01*
X110362234Y23054207D02*
X110422710Y23175160D01*
X110422710Y23175160D02*
X110543662Y23235636D01*
X110543662Y23235636D02*
X110785567Y23235636D01*
X110785567Y23235636D02*
X110906520Y23175160D01*
X110362234Y22449445D02*
X110483186Y22388969D01*
X110483186Y22388969D02*
X110785567Y22388969D01*
X110785567Y22388969D02*
X110906520Y22449445D01*
X110906520Y22449445D02*
X110966996Y22570398D01*
X110966996Y22570398D02*
X110966996Y22691350D01*
X110966996Y22691350D02*
X110906520Y22812303D01*
X110906520Y22812303D02*
X110785567Y22872779D01*
X110785567Y22872779D02*
X110483186Y22872779D01*
X110483186Y22872779D02*
X110362234Y22933255D01*
X109757472Y22388969D02*
X109757472Y23235636D01*
X109757472Y23658969D02*
X109817948Y23598493D01*
X109817948Y23598493D02*
X109757472Y23538017D01*
X109757472Y23538017D02*
X109696995Y23598493D01*
X109696995Y23598493D02*
X109757472Y23658969D01*
X109757472Y23658969D02*
X109757472Y23538017D01*
X108971281Y22388969D02*
X109092233Y22449445D01*
X109092233Y22449445D02*
X109152710Y22570398D01*
X109152710Y22570398D02*
X109152710Y23658969D01*
X108547948Y22449445D02*
X108426995Y22388969D01*
X108426995Y22388969D02*
X108185091Y22388969D01*
X108185091Y22388969D02*
X108064138Y22449445D01*
X108064138Y22449445D02*
X108003662Y22570398D01*
X108003662Y22570398D02*
X108003662Y22630874D01*
X108003662Y22630874D02*
X108064138Y22751826D01*
X108064138Y22751826D02*
X108185091Y22812303D01*
X108185091Y22812303D02*
X108366519Y22812303D01*
X108366519Y22812303D02*
X108487472Y22872779D01*
X108487472Y22872779D02*
X108547948Y22993731D01*
X108547948Y22993731D02*
X108547948Y23054207D01*
X108547948Y23054207D02*
X108487472Y23175160D01*
X108487472Y23175160D02*
X108366519Y23235636D01*
X108366519Y23235636D02*
X108185091Y23235636D01*
X108185091Y23235636D02*
X108064138Y23175160D01*
X107459377Y22509922D02*
X107398900Y22449445D01*
X107398900Y22449445D02*
X107459377Y22388969D01*
X107459377Y22388969D02*
X107519853Y22449445D01*
X107519853Y22449445D02*
X107459377Y22509922D01*
X107459377Y22509922D02*
X107459377Y22388969D01*
X156747469Y19569711D02*
X156021755Y19569711D01*
X156384612Y18299711D02*
X156384612Y19569711D01*
X155598422Y18299711D02*
X155598422Y19569711D01*
X155054136Y18299711D02*
X155054136Y18964949D01*
X155054136Y18964949D02*
X155114612Y19085902D01*
X155114612Y19085902D02*
X155235564Y19146378D01*
X155235564Y19146378D02*
X155416993Y19146378D01*
X155416993Y19146378D02*
X155537945Y19085902D01*
X155537945Y19085902D02*
X155598422Y19025426D01*
X154449374Y18299711D02*
X154449374Y19146378D01*
X154449374Y19569711D02*
X154509850Y19509235D01*
X154509850Y19509235D02*
X154449374Y19448759D01*
X154449374Y19448759D02*
X154388897Y19509235D01*
X154388897Y19509235D02*
X154449374Y19569711D01*
X154449374Y19569711D02*
X154449374Y19448759D01*
X153905088Y18360187D02*
X153784135Y18299711D01*
X153784135Y18299711D02*
X153542231Y18299711D01*
X153542231Y18299711D02*
X153421278Y18360187D01*
X153421278Y18360187D02*
X153360802Y18481140D01*
X153360802Y18481140D02*
X153360802Y18541616D01*
X153360802Y18541616D02*
X153421278Y18662568D01*
X153421278Y18662568D02*
X153542231Y18723045D01*
X153542231Y18723045D02*
X153723659Y18723045D01*
X153723659Y18723045D02*
X153844612Y18783521D01*
X153844612Y18783521D02*
X153905088Y18904473D01*
X153905088Y18904473D02*
X153905088Y18964949D01*
X153905088Y18964949D02*
X153844612Y19085902D01*
X153844612Y19085902D02*
X153723659Y19146378D01*
X153723659Y19146378D02*
X153542231Y19146378D01*
X153542231Y19146378D02*
X153421278Y19085902D01*
X151969850Y19146378D02*
X151727945Y18299711D01*
X151727945Y18299711D02*
X151486040Y18904473D01*
X151486040Y18904473D02*
X151244136Y18299711D01*
X151244136Y18299711D02*
X151002231Y19146378D01*
X150336993Y18299711D02*
X150457945Y18360187D01*
X150457945Y18360187D02*
X150518422Y18420664D01*
X150518422Y18420664D02*
X150578898Y18541616D01*
X150578898Y18541616D02*
X150578898Y18904473D01*
X150578898Y18904473D02*
X150518422Y19025426D01*
X150518422Y19025426D02*
X150457945Y19085902D01*
X150457945Y19085902D02*
X150336993Y19146378D01*
X150336993Y19146378D02*
X150155564Y19146378D01*
X150155564Y19146378D02*
X150034612Y19085902D01*
X150034612Y19085902D02*
X149974136Y19025426D01*
X149974136Y19025426D02*
X149913660Y18904473D01*
X149913660Y18904473D02*
X149913660Y18541616D01*
X149913660Y18541616D02*
X149974136Y18420664D01*
X149974136Y18420664D02*
X150034612Y18360187D01*
X150034612Y18360187D02*
X150155564Y18299711D01*
X150155564Y18299711D02*
X150336993Y18299711D01*
X149369374Y18299711D02*
X149369374Y19146378D01*
X149369374Y18904473D02*
X149308897Y19025426D01*
X149308897Y19025426D02*
X149248421Y19085902D01*
X149248421Y19085902D02*
X149127469Y19146378D01*
X149127469Y19146378D02*
X149006516Y19146378D01*
X148583184Y18299711D02*
X148583184Y19569711D01*
X148462231Y18783521D02*
X148099374Y18299711D01*
X148099374Y19146378D02*
X148583184Y18662568D01*
X146587470Y18299711D02*
X146587470Y19146378D01*
X146587470Y19569711D02*
X146647946Y19509235D01*
X146647946Y19509235D02*
X146587470Y19448759D01*
X146587470Y19448759D02*
X146526993Y19509235D01*
X146526993Y19509235D02*
X146587470Y19569711D01*
X146587470Y19569711D02*
X146587470Y19448759D01*
X146043184Y18360187D02*
X145922231Y18299711D01*
X145922231Y18299711D02*
X145680327Y18299711D01*
X145680327Y18299711D02*
X145559374Y18360187D01*
X145559374Y18360187D02*
X145498898Y18481140D01*
X145498898Y18481140D02*
X145498898Y18541616D01*
X145498898Y18541616D02*
X145559374Y18662568D01*
X145559374Y18662568D02*
X145680327Y18723045D01*
X145680327Y18723045D02*
X145861755Y18723045D01*
X145861755Y18723045D02*
X145982708Y18783521D01*
X145982708Y18783521D02*
X146043184Y18904473D01*
X146043184Y18904473D02*
X146043184Y18964949D01*
X146043184Y18964949D02*
X145982708Y19085902D01*
X145982708Y19085902D02*
X145861755Y19146378D01*
X145861755Y19146378D02*
X145680327Y19146378D01*
X145680327Y19146378D02*
X145559374Y19085902D01*
X143261279Y18420664D02*
X143321755Y18360187D01*
X143321755Y18360187D02*
X143503184Y18299711D01*
X143503184Y18299711D02*
X143624136Y18299711D01*
X143624136Y18299711D02*
X143805565Y18360187D01*
X143805565Y18360187D02*
X143926517Y18481140D01*
X143926517Y18481140D02*
X143986994Y18602092D01*
X143986994Y18602092D02*
X144047470Y18843997D01*
X144047470Y18843997D02*
X144047470Y19025426D01*
X144047470Y19025426D02*
X143986994Y19267330D01*
X143986994Y19267330D02*
X143926517Y19388283D01*
X143926517Y19388283D02*
X143805565Y19509235D01*
X143805565Y19509235D02*
X143624136Y19569711D01*
X143624136Y19569711D02*
X143503184Y19569711D01*
X143503184Y19569711D02*
X143321755Y19509235D01*
X143321755Y19509235D02*
X143261279Y19448759D01*
X142535565Y18299711D02*
X142656517Y18360187D01*
X142656517Y18360187D02*
X142716994Y18420664D01*
X142716994Y18420664D02*
X142777470Y18541616D01*
X142777470Y18541616D02*
X142777470Y18904473D01*
X142777470Y18904473D02*
X142716994Y19025426D01*
X142716994Y19025426D02*
X142656517Y19085902D01*
X142656517Y19085902D02*
X142535565Y19146378D01*
X142535565Y19146378D02*
X142354136Y19146378D01*
X142354136Y19146378D02*
X142233184Y19085902D01*
X142233184Y19085902D02*
X142172708Y19025426D01*
X142172708Y19025426D02*
X142112232Y18904473D01*
X142112232Y18904473D02*
X142112232Y18541616D01*
X142112232Y18541616D02*
X142172708Y18420664D01*
X142172708Y18420664D02*
X142233184Y18360187D01*
X142233184Y18360187D02*
X142354136Y18299711D01*
X142354136Y18299711D02*
X142535565Y18299711D01*
X141567946Y19146378D02*
X141567946Y17876378D01*
X141567946Y19085902D02*
X141446993Y19146378D01*
X141446993Y19146378D02*
X141205088Y19146378D01*
X141205088Y19146378D02*
X141084136Y19085902D01*
X141084136Y19085902D02*
X141023660Y19025426D01*
X141023660Y19025426D02*
X140963184Y18904473D01*
X140963184Y18904473D02*
X140963184Y18541616D01*
X140963184Y18541616D02*
X141023660Y18420664D01*
X141023660Y18420664D02*
X141084136Y18360187D01*
X141084136Y18360187D02*
X141205088Y18299711D01*
X141205088Y18299711D02*
X141446993Y18299711D01*
X141446993Y18299711D02*
X141567946Y18360187D01*
X140539850Y19146378D02*
X140237469Y18299711D01*
X139935088Y19146378D02*
X140237469Y18299711D01*
X140237469Y18299711D02*
X140358421Y17997330D01*
X140358421Y17997330D02*
X140418898Y17936854D01*
X140418898Y17936854D02*
X140539850Y17876378D01*
X139451279Y18299711D02*
X139451279Y19146378D01*
X139451279Y18904473D02*
X139390802Y19025426D01*
X139390802Y19025426D02*
X139330326Y19085902D01*
X139330326Y19085902D02*
X139209374Y19146378D01*
X139209374Y19146378D02*
X139088421Y19146378D01*
X138665089Y18299711D02*
X138665089Y19146378D01*
X138665089Y19569711D02*
X138725565Y19509235D01*
X138725565Y19509235D02*
X138665089Y19448759D01*
X138665089Y19448759D02*
X138604612Y19509235D01*
X138604612Y19509235D02*
X138665089Y19569711D01*
X138665089Y19569711D02*
X138665089Y19448759D01*
X137516041Y19146378D02*
X137516041Y18118283D01*
X137516041Y18118283D02*
X137576517Y17997330D01*
X137576517Y17997330D02*
X137636993Y17936854D01*
X137636993Y17936854D02*
X137757946Y17876378D01*
X137757946Y17876378D02*
X137939374Y17876378D01*
X137939374Y17876378D02*
X138060327Y17936854D01*
X137516041Y18360187D02*
X137636993Y18299711D01*
X137636993Y18299711D02*
X137878898Y18299711D01*
X137878898Y18299711D02*
X137999850Y18360187D01*
X137999850Y18360187D02*
X138060327Y18420664D01*
X138060327Y18420664D02*
X138120803Y18541616D01*
X138120803Y18541616D02*
X138120803Y18904473D01*
X138120803Y18904473D02*
X138060327Y19025426D01*
X138060327Y19025426D02*
X137999850Y19085902D01*
X137999850Y19085902D02*
X137878898Y19146378D01*
X137878898Y19146378D02*
X137636993Y19146378D01*
X137636993Y19146378D02*
X137516041Y19085902D01*
X136911279Y18299711D02*
X136911279Y19569711D01*
X136366993Y18299711D02*
X136366993Y18964949D01*
X136366993Y18964949D02*
X136427469Y19085902D01*
X136427469Y19085902D02*
X136548421Y19146378D01*
X136548421Y19146378D02*
X136729850Y19146378D01*
X136729850Y19146378D02*
X136850802Y19085902D01*
X136850802Y19085902D02*
X136911279Y19025426D01*
X135943659Y19146378D02*
X135459850Y19146378D01*
X135762231Y19569711D02*
X135762231Y18481140D01*
X135762231Y18481140D02*
X135701754Y18360187D01*
X135701754Y18360187D02*
X135580802Y18299711D01*
X135580802Y18299711D02*
X135459850Y18299711D01*
X134552707Y18360187D02*
X134673659Y18299711D01*
X134673659Y18299711D02*
X134915564Y18299711D01*
X134915564Y18299711D02*
X135036517Y18360187D01*
X135036517Y18360187D02*
X135096993Y18481140D01*
X135096993Y18481140D02*
X135096993Y18964949D01*
X135096993Y18964949D02*
X135036517Y19085902D01*
X135036517Y19085902D02*
X134915564Y19146378D01*
X134915564Y19146378D02*
X134673659Y19146378D01*
X134673659Y19146378D02*
X134552707Y19085902D01*
X134552707Y19085902D02*
X134492231Y18964949D01*
X134492231Y18964949D02*
X134492231Y18843997D01*
X134492231Y18843997D02*
X135096993Y18723045D01*
X133403660Y18299711D02*
X133403660Y19569711D01*
X133403660Y18360187D02*
X133524612Y18299711D01*
X133524612Y18299711D02*
X133766517Y18299711D01*
X133766517Y18299711D02*
X133887469Y18360187D01*
X133887469Y18360187D02*
X133947946Y18420664D01*
X133947946Y18420664D02*
X134008422Y18541616D01*
X134008422Y18541616D02*
X134008422Y18904473D01*
X134008422Y18904473D02*
X133947946Y19025426D01*
X133947946Y19025426D02*
X133887469Y19085902D01*
X133887469Y19085902D02*
X133766517Y19146378D01*
X133766517Y19146378D02*
X133524612Y19146378D01*
X133524612Y19146378D02*
X133403660Y19085902D01*
X130803183Y19267330D02*
X130924136Y19327807D01*
X130924136Y19327807D02*
X131166040Y19327807D01*
X131166040Y19327807D02*
X131286993Y19267330D01*
X131286993Y19267330D02*
X131407945Y19146378D01*
X131407945Y19146378D02*
X131468421Y19025426D01*
X131468421Y19025426D02*
X131468421Y18783521D01*
X131468421Y18783521D02*
X131407945Y18662568D01*
X131407945Y18662568D02*
X131286993Y18541616D01*
X131286993Y18541616D02*
X131166040Y18481140D01*
X131166040Y18481140D02*
X130924136Y18481140D01*
X130924136Y18481140D02*
X130803183Y18541616D01*
X131045088Y19751140D02*
X131347469Y19690664D01*
X131347469Y19690664D02*
X131649850Y19509235D01*
X131649850Y19509235D02*
X131831279Y19206854D01*
X131831279Y19206854D02*
X131891755Y18904473D01*
X131891755Y18904473D02*
X131831279Y18602092D01*
X131831279Y18602092D02*
X131649850Y18299711D01*
X131649850Y18299711D02*
X131347469Y18118283D01*
X131347469Y18118283D02*
X131045088Y18057807D01*
X131045088Y18057807D02*
X130742707Y18118283D01*
X130742707Y18118283D02*
X130440326Y18299711D01*
X130440326Y18299711D02*
X130258898Y18602092D01*
X130258898Y18602092D02*
X130198421Y18904473D01*
X130198421Y18904473D02*
X130258898Y19206854D01*
X130258898Y19206854D02*
X130440326Y19509235D01*
X130440326Y19509235D02*
X130742707Y19690664D01*
X130742707Y19690664D02*
X131045088Y19751140D01*
X128746993Y19448759D02*
X128686517Y19509235D01*
X128686517Y19509235D02*
X128565564Y19569711D01*
X128565564Y19569711D02*
X128263183Y19569711D01*
X128263183Y19569711D02*
X128142231Y19509235D01*
X128142231Y19509235D02*
X128081755Y19448759D01*
X128081755Y19448759D02*
X128021278Y19327807D01*
X128021278Y19327807D02*
X128021278Y19206854D01*
X128021278Y19206854D02*
X128081755Y19025426D01*
X128081755Y19025426D02*
X128807469Y18299711D01*
X128807469Y18299711D02*
X128021278Y18299711D01*
X127235088Y19569711D02*
X127114135Y19569711D01*
X127114135Y19569711D02*
X126993183Y19509235D01*
X126993183Y19509235D02*
X126932707Y19448759D01*
X126932707Y19448759D02*
X126872231Y19327807D01*
X126872231Y19327807D02*
X126811754Y19085902D01*
X126811754Y19085902D02*
X126811754Y18783521D01*
X126811754Y18783521D02*
X126872231Y18541616D01*
X126872231Y18541616D02*
X126932707Y18420664D01*
X126932707Y18420664D02*
X126993183Y18360187D01*
X126993183Y18360187D02*
X127114135Y18299711D01*
X127114135Y18299711D02*
X127235088Y18299711D01*
X127235088Y18299711D02*
X127356040Y18360187D01*
X127356040Y18360187D02*
X127416516Y18420664D01*
X127416516Y18420664D02*
X127476993Y18541616D01*
X127476993Y18541616D02*
X127537469Y18783521D01*
X127537469Y18783521D02*
X127537469Y19085902D01*
X127537469Y19085902D02*
X127476993Y19327807D01*
X127476993Y19327807D02*
X127416516Y19448759D01*
X127416516Y19448759D02*
X127356040Y19509235D01*
X127356040Y19509235D02*
X127235088Y19569711D01*
X126327945Y19448759D02*
X126267469Y19509235D01*
X126267469Y19509235D02*
X126146516Y19569711D01*
X126146516Y19569711D02*
X125844135Y19569711D01*
X125844135Y19569711D02*
X125723183Y19509235D01*
X125723183Y19509235D02*
X125662707Y19448759D01*
X125662707Y19448759D02*
X125602230Y19327807D01*
X125602230Y19327807D02*
X125602230Y19206854D01*
X125602230Y19206854D02*
X125662707Y19025426D01*
X125662707Y19025426D02*
X126388421Y18299711D01*
X126388421Y18299711D02*
X125602230Y18299711D01*
X124513659Y19146378D02*
X124513659Y18299711D01*
X124816040Y19630187D02*
X125118421Y18723045D01*
X125118421Y18723045D02*
X124332230Y18723045D01*
X122880802Y18299711D02*
X122880802Y19569711D01*
X122880802Y19085902D02*
X122759849Y19146378D01*
X122759849Y19146378D02*
X122517944Y19146378D01*
X122517944Y19146378D02*
X122396992Y19085902D01*
X122396992Y19085902D02*
X122336516Y19025426D01*
X122336516Y19025426D02*
X122276040Y18904473D01*
X122276040Y18904473D02*
X122276040Y18541616D01*
X122276040Y18541616D02*
X122336516Y18420664D01*
X122336516Y18420664D02*
X122396992Y18360187D01*
X122396992Y18360187D02*
X122517944Y18299711D01*
X122517944Y18299711D02*
X122759849Y18299711D01*
X122759849Y18299711D02*
X122880802Y18360187D01*
X121852706Y19146378D02*
X121550325Y18299711D01*
X121247944Y19146378D02*
X121550325Y18299711D01*
X121550325Y18299711D02*
X121671277Y17997330D01*
X121671277Y17997330D02*
X121731754Y17936854D01*
X121731754Y17936854D02*
X121852706Y17876378D01*
X119796516Y18299711D02*
X119796516Y19569711D01*
X119796516Y19569711D02*
X119494135Y19569711D01*
X119494135Y19569711D02*
X119312706Y19509235D01*
X119312706Y19509235D02*
X119191754Y19388283D01*
X119191754Y19388283D02*
X119131277Y19267330D01*
X119131277Y19267330D02*
X119070801Y19025426D01*
X119070801Y19025426D02*
X119070801Y18843997D01*
X119070801Y18843997D02*
X119131277Y18602092D01*
X119131277Y18602092D02*
X119191754Y18481140D01*
X119191754Y18481140D02*
X119312706Y18360187D01*
X119312706Y18360187D02*
X119494135Y18299711D01*
X119494135Y18299711D02*
X119796516Y18299711D01*
X117982230Y18299711D02*
X117982230Y18964949D01*
X117982230Y18964949D02*
X118042706Y19085902D01*
X118042706Y19085902D02*
X118163658Y19146378D01*
X118163658Y19146378D02*
X118405563Y19146378D01*
X118405563Y19146378D02*
X118526516Y19085902D01*
X117982230Y18360187D02*
X118103182Y18299711D01*
X118103182Y18299711D02*
X118405563Y18299711D01*
X118405563Y18299711D02*
X118526516Y18360187D01*
X118526516Y18360187D02*
X118586992Y18481140D01*
X118586992Y18481140D02*
X118586992Y18602092D01*
X118586992Y18602092D02*
X118526516Y18723045D01*
X118526516Y18723045D02*
X118405563Y18783521D01*
X118405563Y18783521D02*
X118103182Y18783521D01*
X118103182Y18783521D02*
X117982230Y18843997D01*
X117377468Y19146378D02*
X117377468Y18299711D01*
X117377468Y19025426D02*
X117316991Y19085902D01*
X117316991Y19085902D02*
X117196039Y19146378D01*
X117196039Y19146378D02*
X117014610Y19146378D01*
X117014610Y19146378D02*
X116893658Y19085902D01*
X116893658Y19085902D02*
X116833182Y18964949D01*
X116833182Y18964949D02*
X116833182Y18299711D01*
X115381753Y19569711D02*
X115079372Y18299711D01*
X115079372Y18299711D02*
X114837467Y19206854D01*
X114837467Y19206854D02*
X114595562Y18299711D01*
X114595562Y18299711D02*
X114293182Y19569711D01*
X113809372Y18299711D02*
X113809372Y19146378D01*
X113809372Y19569711D02*
X113869848Y19509235D01*
X113869848Y19509235D02*
X113809372Y19448759D01*
X113809372Y19448759D02*
X113748895Y19509235D01*
X113748895Y19509235D02*
X113809372Y19569711D01*
X113809372Y19569711D02*
X113809372Y19448759D01*
X113023181Y18299711D02*
X113144133Y18360187D01*
X113144133Y18360187D02*
X113204610Y18481140D01*
X113204610Y18481140D02*
X113204610Y19569711D01*
X112599848Y18360187D02*
X112478895Y18299711D01*
X112478895Y18299711D02*
X112236991Y18299711D01*
X112236991Y18299711D02*
X112116038Y18360187D01*
X112116038Y18360187D02*
X112055562Y18481140D01*
X112055562Y18481140D02*
X112055562Y18541616D01*
X112055562Y18541616D02*
X112116038Y18662568D01*
X112116038Y18662568D02*
X112236991Y18723045D01*
X112236991Y18723045D02*
X112418419Y18723045D01*
X112418419Y18723045D02*
X112539372Y18783521D01*
X112539372Y18783521D02*
X112599848Y18904473D01*
X112599848Y18904473D02*
X112599848Y18964949D01*
X112599848Y18964949D02*
X112539372Y19085902D01*
X112539372Y19085902D02*
X112418419Y19146378D01*
X112418419Y19146378D02*
X112236991Y19146378D01*
X112236991Y19146378D02*
X112116038Y19085902D01*
X111329848Y18299711D02*
X111450800Y18360187D01*
X111450800Y18360187D02*
X111511277Y18420664D01*
X111511277Y18420664D02*
X111571753Y18541616D01*
X111571753Y18541616D02*
X111571753Y18904473D01*
X111571753Y18904473D02*
X111511277Y19025426D01*
X111511277Y19025426D02*
X111450800Y19085902D01*
X111450800Y19085902D02*
X111329848Y19146378D01*
X111329848Y19146378D02*
X111148419Y19146378D01*
X111148419Y19146378D02*
X111027467Y19085902D01*
X111027467Y19085902D02*
X110966991Y19025426D01*
X110966991Y19025426D02*
X110906515Y18904473D01*
X110906515Y18904473D02*
X110906515Y18541616D01*
X110906515Y18541616D02*
X110966991Y18420664D01*
X110966991Y18420664D02*
X111027467Y18360187D01*
X111027467Y18360187D02*
X111148419Y18299711D01*
X111148419Y18299711D02*
X111329848Y18299711D01*
X110362229Y19146378D02*
X110362229Y18299711D01*
X110362229Y19025426D02*
X110301752Y19085902D01*
X110301752Y19085902D02*
X110180800Y19146378D01*
X110180800Y19146378D02*
X109999371Y19146378D01*
X109999371Y19146378D02*
X109878419Y19085902D01*
X109878419Y19085902D02*
X109817943Y18964949D01*
X109817943Y18964949D02*
X109817943Y18299711D01*
X109152704Y18360187D02*
X109152704Y18299711D01*
X109152704Y18299711D02*
X109213181Y18178759D01*
X109213181Y18178759D02*
X109273657Y18118283D01*
X107096514Y18299711D02*
X107096514Y18964949D01*
X107096514Y18964949D02*
X107156990Y19085902D01*
X107156990Y19085902D02*
X107277942Y19146378D01*
X107277942Y19146378D02*
X107519847Y19146378D01*
X107519847Y19146378D02*
X107640800Y19085902D01*
X107096514Y18360187D02*
X107217466Y18299711D01*
X107217466Y18299711D02*
X107519847Y18299711D01*
X107519847Y18299711D02*
X107640800Y18360187D01*
X107640800Y18360187D02*
X107701276Y18481140D01*
X107701276Y18481140D02*
X107701276Y18602092D01*
X107701276Y18602092D02*
X107640800Y18723045D01*
X107640800Y18723045D02*
X107519847Y18783521D01*
X107519847Y18783521D02*
X107217466Y18783521D01*
X107217466Y18783521D02*
X107096514Y18843997D01*
X106310323Y18299711D02*
X106431275Y18360187D01*
X106431275Y18360187D02*
X106491752Y18481140D01*
X106491752Y18481140D02*
X106491752Y19569711D01*
X105645085Y18299711D02*
X105766037Y18360187D01*
X105766037Y18360187D02*
X105826514Y18481140D01*
X105826514Y18481140D02*
X105826514Y19569711D01*
X104193657Y18299711D02*
X104193657Y19146378D01*
X104193657Y18904473D02*
X104133180Y19025426D01*
X104133180Y19025426D02*
X104072704Y19085902D01*
X104072704Y19085902D02*
X103951752Y19146378D01*
X103951752Y19146378D02*
X103830799Y19146378D01*
X103407467Y18299711D02*
X103407467Y19146378D01*
X103407467Y19569711D02*
X103467943Y19509235D01*
X103467943Y19509235D02*
X103407467Y19448759D01*
X103407467Y19448759D02*
X103346990Y19509235D01*
X103346990Y19509235D02*
X103407467Y19569711D01*
X103407467Y19569711D02*
X103407467Y19448759D01*
X102258419Y19146378D02*
X102258419Y18118283D01*
X102258419Y18118283D02*
X102318895Y17997330D01*
X102318895Y17997330D02*
X102379371Y17936854D01*
X102379371Y17936854D02*
X102500324Y17876378D01*
X102500324Y17876378D02*
X102681752Y17876378D01*
X102681752Y17876378D02*
X102802705Y17936854D01*
X102258419Y18360187D02*
X102379371Y18299711D01*
X102379371Y18299711D02*
X102621276Y18299711D01*
X102621276Y18299711D02*
X102742228Y18360187D01*
X102742228Y18360187D02*
X102802705Y18420664D01*
X102802705Y18420664D02*
X102863181Y18541616D01*
X102863181Y18541616D02*
X102863181Y18904473D01*
X102863181Y18904473D02*
X102802705Y19025426D01*
X102802705Y19025426D02*
X102742228Y19085902D01*
X102742228Y19085902D02*
X102621276Y19146378D01*
X102621276Y19146378D02*
X102379371Y19146378D01*
X102379371Y19146378D02*
X102258419Y19085902D01*
X101653657Y18299711D02*
X101653657Y19569711D01*
X101109371Y18299711D02*
X101109371Y18964949D01*
X101109371Y18964949D02*
X101169847Y19085902D01*
X101169847Y19085902D02*
X101290799Y19146378D01*
X101290799Y19146378D02*
X101472228Y19146378D01*
X101472228Y19146378D02*
X101593180Y19085902D01*
X101593180Y19085902D02*
X101653657Y19025426D01*
X100686037Y19146378D02*
X100202228Y19146378D01*
X100504609Y19569711D02*
X100504609Y18481140D01*
X100504609Y18481140D02*
X100444132Y18360187D01*
X100444132Y18360187D02*
X100323180Y18299711D01*
X100323180Y18299711D02*
X100202228Y18299711D01*
X99839371Y18360187D02*
X99718418Y18299711D01*
X99718418Y18299711D02*
X99476514Y18299711D01*
X99476514Y18299711D02*
X99355561Y18360187D01*
X99355561Y18360187D02*
X99295085Y18481140D01*
X99295085Y18481140D02*
X99295085Y18541616D01*
X99295085Y18541616D02*
X99355561Y18662568D01*
X99355561Y18662568D02*
X99476514Y18723045D01*
X99476514Y18723045D02*
X99657942Y18723045D01*
X99657942Y18723045D02*
X99778895Y18783521D01*
X99778895Y18783521D02*
X99839371Y18904473D01*
X99839371Y18904473D02*
X99839371Y18964949D01*
X99839371Y18964949D02*
X99778895Y19085902D01*
X99778895Y19085902D02*
X99657942Y19146378D01*
X99657942Y19146378D02*
X99476514Y19146378D01*
X99476514Y19146378D02*
X99355561Y19085902D01*
X97783181Y18299711D02*
X97783181Y19146378D01*
X97783181Y18904473D02*
X97722704Y19025426D01*
X97722704Y19025426D02*
X97662228Y19085902D01*
X97662228Y19085902D02*
X97541276Y19146378D01*
X97541276Y19146378D02*
X97420323Y19146378D01*
X96513181Y18360187D02*
X96634133Y18299711D01*
X96634133Y18299711D02*
X96876038Y18299711D01*
X96876038Y18299711D02*
X96996991Y18360187D01*
X96996991Y18360187D02*
X97057467Y18481140D01*
X97057467Y18481140D02*
X97057467Y18964949D01*
X97057467Y18964949D02*
X96996991Y19085902D01*
X96996991Y19085902D02*
X96876038Y19146378D01*
X96876038Y19146378D02*
X96634133Y19146378D01*
X96634133Y19146378D02*
X96513181Y19085902D01*
X96513181Y19085902D02*
X96452705Y18964949D01*
X96452705Y18964949D02*
X96452705Y18843997D01*
X96452705Y18843997D02*
X97057467Y18723045D01*
X95968896Y18360187D02*
X95847943Y18299711D01*
X95847943Y18299711D02*
X95606039Y18299711D01*
X95606039Y18299711D02*
X95485086Y18360187D01*
X95485086Y18360187D02*
X95424610Y18481140D01*
X95424610Y18481140D02*
X95424610Y18541616D01*
X95424610Y18541616D02*
X95485086Y18662568D01*
X95485086Y18662568D02*
X95606039Y18723045D01*
X95606039Y18723045D02*
X95787467Y18723045D01*
X95787467Y18723045D02*
X95908420Y18783521D01*
X95908420Y18783521D02*
X95968896Y18904473D01*
X95968896Y18904473D02*
X95968896Y18964949D01*
X95968896Y18964949D02*
X95908420Y19085902D01*
X95908420Y19085902D02*
X95787467Y19146378D01*
X95787467Y19146378D02*
X95606039Y19146378D01*
X95606039Y19146378D02*
X95485086Y19085902D01*
X94396515Y18360187D02*
X94517467Y18299711D01*
X94517467Y18299711D02*
X94759372Y18299711D01*
X94759372Y18299711D02*
X94880325Y18360187D01*
X94880325Y18360187D02*
X94940801Y18481140D01*
X94940801Y18481140D02*
X94940801Y18964949D01*
X94940801Y18964949D02*
X94880325Y19085902D01*
X94880325Y19085902D02*
X94759372Y19146378D01*
X94759372Y19146378D02*
X94517467Y19146378D01*
X94517467Y19146378D02*
X94396515Y19085902D01*
X94396515Y19085902D02*
X94336039Y18964949D01*
X94336039Y18964949D02*
X94336039Y18843997D01*
X94336039Y18843997D02*
X94940801Y18723045D01*
X93791754Y18299711D02*
X93791754Y19146378D01*
X93791754Y18904473D02*
X93731277Y19025426D01*
X93731277Y19025426D02*
X93670801Y19085902D01*
X93670801Y19085902D02*
X93549849Y19146378D01*
X93549849Y19146378D02*
X93428896Y19146378D01*
X93126516Y19146378D02*
X92824135Y18299711D01*
X92824135Y18299711D02*
X92521754Y19146378D01*
X91554135Y18360187D02*
X91675087Y18299711D01*
X91675087Y18299711D02*
X91916992Y18299711D01*
X91916992Y18299711D02*
X92037945Y18360187D01*
X92037945Y18360187D02*
X92098421Y18481140D01*
X92098421Y18481140D02*
X92098421Y18964949D01*
X92098421Y18964949D02*
X92037945Y19085902D01*
X92037945Y19085902D02*
X91916992Y19146378D01*
X91916992Y19146378D02*
X91675087Y19146378D01*
X91675087Y19146378D02*
X91554135Y19085902D01*
X91554135Y19085902D02*
X91493659Y18964949D01*
X91493659Y18964949D02*
X91493659Y18843997D01*
X91493659Y18843997D02*
X92098421Y18723045D01*
X90405088Y18299711D02*
X90405088Y19569711D01*
X90405088Y18360187D02*
X90526040Y18299711D01*
X90526040Y18299711D02*
X90767945Y18299711D01*
X90767945Y18299711D02*
X90888897Y18360187D01*
X90888897Y18360187D02*
X90949374Y18420664D01*
X90949374Y18420664D02*
X91009850Y18541616D01*
X91009850Y18541616D02*
X91009850Y18904473D01*
X91009850Y18904473D02*
X90949374Y19025426D01*
X90949374Y19025426D02*
X90888897Y19085902D01*
X90888897Y19085902D02*
X90767945Y19146378D01*
X90767945Y19146378D02*
X90526040Y19146378D01*
X90526040Y19146378D02*
X90405088Y19085902D01*
X89800326Y18420664D02*
X89739849Y18360187D01*
X89739849Y18360187D02*
X89800326Y18299711D01*
X89800326Y18299711D02*
X89860802Y18360187D01*
X89860802Y18360187D02*
X89800326Y18420664D01*
X89800326Y18420664D02*
X89800326Y18299711D01*
X156747469Y17525082D02*
X156021755Y17525082D01*
X156384612Y16255082D02*
X156384612Y17525082D01*
X155598422Y16255082D02*
X155598422Y17525082D01*
X155054136Y16255082D02*
X155054136Y16920320D01*
X155054136Y16920320D02*
X155114612Y17041273D01*
X155114612Y17041273D02*
X155235564Y17101749D01*
X155235564Y17101749D02*
X155416993Y17101749D01*
X155416993Y17101749D02*
X155537945Y17041273D01*
X155537945Y17041273D02*
X155598422Y16980797D01*
X153965564Y16315558D02*
X154086516Y16255082D01*
X154086516Y16255082D02*
X154328421Y16255082D01*
X154328421Y16255082D02*
X154449374Y16315558D01*
X154449374Y16315558D02*
X154509850Y16436511D01*
X154509850Y16436511D02*
X154509850Y16920320D01*
X154509850Y16920320D02*
X154449374Y17041273D01*
X154449374Y17041273D02*
X154328421Y17101749D01*
X154328421Y17101749D02*
X154086516Y17101749D01*
X154086516Y17101749D02*
X153965564Y17041273D01*
X153965564Y17041273D02*
X153905088Y16920320D01*
X153905088Y16920320D02*
X153905088Y16799368D01*
X153905088Y16799368D02*
X154509850Y16678416D01*
X152514136Y17101749D02*
X152272231Y16255082D01*
X152272231Y16255082D02*
X152030326Y16859844D01*
X152030326Y16859844D02*
X151788422Y16255082D01*
X151788422Y16255082D02*
X151546517Y17101749D01*
X150881279Y16255082D02*
X151002231Y16315558D01*
X151002231Y16315558D02*
X151062708Y16376035D01*
X151062708Y16376035D02*
X151123184Y16496987D01*
X151123184Y16496987D02*
X151123184Y16859844D01*
X151123184Y16859844D02*
X151062708Y16980797D01*
X151062708Y16980797D02*
X151002231Y17041273D01*
X151002231Y17041273D02*
X150881279Y17101749D01*
X150881279Y17101749D02*
X150699850Y17101749D01*
X150699850Y17101749D02*
X150578898Y17041273D01*
X150578898Y17041273D02*
X150518422Y16980797D01*
X150518422Y16980797D02*
X150457946Y16859844D01*
X150457946Y16859844D02*
X150457946Y16496987D01*
X150457946Y16496987D02*
X150518422Y16376035D01*
X150518422Y16376035D02*
X150578898Y16315558D01*
X150578898Y16315558D02*
X150699850Y16255082D01*
X150699850Y16255082D02*
X150881279Y16255082D01*
X149913660Y16255082D02*
X149913660Y17101749D01*
X149913660Y16859844D02*
X149853183Y16980797D01*
X149853183Y16980797D02*
X149792707Y17041273D01*
X149792707Y17041273D02*
X149671755Y17101749D01*
X149671755Y17101749D02*
X149550802Y17101749D01*
X149127470Y16255082D02*
X149127470Y17525082D01*
X149006517Y16738892D02*
X148643660Y16255082D01*
X148643660Y17101749D02*
X149127470Y16617939D01*
X147131756Y16255082D02*
X147131756Y17101749D01*
X147131756Y17525082D02*
X147192232Y17464606D01*
X147192232Y17464606D02*
X147131756Y17404130D01*
X147131756Y17404130D02*
X147071279Y17464606D01*
X147071279Y17464606D02*
X147131756Y17525082D01*
X147131756Y17525082D02*
X147131756Y17404130D01*
X146587470Y16315558D02*
X146466517Y16255082D01*
X146466517Y16255082D02*
X146224613Y16255082D01*
X146224613Y16255082D02*
X146103660Y16315558D01*
X146103660Y16315558D02*
X146043184Y16436511D01*
X146043184Y16436511D02*
X146043184Y16496987D01*
X146043184Y16496987D02*
X146103660Y16617939D01*
X146103660Y16617939D02*
X146224613Y16678416D01*
X146224613Y16678416D02*
X146406041Y16678416D01*
X146406041Y16678416D02*
X146526994Y16738892D01*
X146526994Y16738892D02*
X146587470Y16859844D01*
X146587470Y16859844D02*
X146587470Y16920320D01*
X146587470Y16920320D02*
X146526994Y17041273D01*
X146526994Y17041273D02*
X146406041Y17101749D01*
X146406041Y17101749D02*
X146224613Y17101749D01*
X146224613Y17101749D02*
X146103660Y17041273D01*
X144349851Y16255082D02*
X144470803Y16315558D01*
X144470803Y16315558D02*
X144531280Y16436511D01*
X144531280Y16436511D02*
X144531280Y17525082D01*
X143866042Y16255082D02*
X143866042Y17101749D01*
X143866042Y17525082D02*
X143926518Y17464606D01*
X143926518Y17464606D02*
X143866042Y17404130D01*
X143866042Y17404130D02*
X143805565Y17464606D01*
X143805565Y17464606D02*
X143866042Y17525082D01*
X143866042Y17525082D02*
X143866042Y17404130D01*
X142716994Y16315558D02*
X142837946Y16255082D01*
X142837946Y16255082D02*
X143079851Y16255082D01*
X143079851Y16255082D02*
X143200803Y16315558D01*
X143200803Y16315558D02*
X143261280Y16376035D01*
X143261280Y16376035D02*
X143321756Y16496987D01*
X143321756Y16496987D02*
X143321756Y16859844D01*
X143321756Y16859844D02*
X143261280Y16980797D01*
X143261280Y16980797D02*
X143200803Y17041273D01*
X143200803Y17041273D02*
X143079851Y17101749D01*
X143079851Y17101749D02*
X142837946Y17101749D01*
X142837946Y17101749D02*
X142716994Y17041273D01*
X141688899Y16315558D02*
X141809851Y16255082D01*
X141809851Y16255082D02*
X142051756Y16255082D01*
X142051756Y16255082D02*
X142172709Y16315558D01*
X142172709Y16315558D02*
X142233185Y16436511D01*
X142233185Y16436511D02*
X142233185Y16920320D01*
X142233185Y16920320D02*
X142172709Y17041273D01*
X142172709Y17041273D02*
X142051756Y17101749D01*
X142051756Y17101749D02*
X141809851Y17101749D01*
X141809851Y17101749D02*
X141688899Y17041273D01*
X141688899Y17041273D02*
X141628423Y16920320D01*
X141628423Y16920320D02*
X141628423Y16799368D01*
X141628423Y16799368D02*
X142233185Y16678416D01*
X141084138Y17101749D02*
X141084138Y16255082D01*
X141084138Y16980797D02*
X141023661Y17041273D01*
X141023661Y17041273D02*
X140902709Y17101749D01*
X140902709Y17101749D02*
X140721280Y17101749D01*
X140721280Y17101749D02*
X140600328Y17041273D01*
X140600328Y17041273D02*
X140539852Y16920320D01*
X140539852Y16920320D02*
X140539852Y16255082D01*
X139995566Y16315558D02*
X139874613Y16255082D01*
X139874613Y16255082D02*
X139632709Y16255082D01*
X139632709Y16255082D02*
X139511756Y16315558D01*
X139511756Y16315558D02*
X139451280Y16436511D01*
X139451280Y16436511D02*
X139451280Y16496987D01*
X139451280Y16496987D02*
X139511756Y16617939D01*
X139511756Y16617939D02*
X139632709Y16678416D01*
X139632709Y16678416D02*
X139814137Y16678416D01*
X139814137Y16678416D02*
X139935090Y16738892D01*
X139935090Y16738892D02*
X139995566Y16859844D01*
X139995566Y16859844D02*
X139995566Y16920320D01*
X139995566Y16920320D02*
X139935090Y17041273D01*
X139935090Y17041273D02*
X139814137Y17101749D01*
X139814137Y17101749D02*
X139632709Y17101749D01*
X139632709Y17101749D02*
X139511756Y17041273D01*
X138423185Y16315558D02*
X138544137Y16255082D01*
X138544137Y16255082D02*
X138786042Y16255082D01*
X138786042Y16255082D02*
X138906995Y16315558D01*
X138906995Y16315558D02*
X138967471Y16436511D01*
X138967471Y16436511D02*
X138967471Y16920320D01*
X138967471Y16920320D02*
X138906995Y17041273D01*
X138906995Y17041273D02*
X138786042Y17101749D01*
X138786042Y17101749D02*
X138544137Y17101749D01*
X138544137Y17101749D02*
X138423185Y17041273D01*
X138423185Y17041273D02*
X138362709Y16920320D01*
X138362709Y16920320D02*
X138362709Y16799368D01*
X138362709Y16799368D02*
X138967471Y16678416D01*
X137274138Y16255082D02*
X137274138Y17525082D01*
X137274138Y16315558D02*
X137395090Y16255082D01*
X137395090Y16255082D02*
X137636995Y16255082D01*
X137636995Y16255082D02*
X137757947Y16315558D01*
X137757947Y16315558D02*
X137818424Y16376035D01*
X137818424Y16376035D02*
X137878900Y16496987D01*
X137878900Y16496987D02*
X137878900Y16859844D01*
X137878900Y16859844D02*
X137818424Y16980797D01*
X137818424Y16980797D02*
X137757947Y17041273D01*
X137757947Y17041273D02*
X137636995Y17101749D01*
X137636995Y17101749D02*
X137395090Y17101749D01*
X137395090Y17101749D02*
X137274138Y17041273D01*
X135883185Y17101749D02*
X135399376Y17101749D01*
X135701757Y16255082D02*
X135701757Y17343654D01*
X135701757Y17343654D02*
X135641280Y17464606D01*
X135641280Y17464606D02*
X135520328Y17525082D01*
X135520328Y17525082D02*
X135399376Y17525082D01*
X134794614Y16255082D02*
X134915566Y16315558D01*
X134915566Y16315558D02*
X134976043Y16376035D01*
X134976043Y16376035D02*
X135036519Y16496987D01*
X135036519Y16496987D02*
X135036519Y16859844D01*
X135036519Y16859844D02*
X134976043Y16980797D01*
X134976043Y16980797D02*
X134915566Y17041273D01*
X134915566Y17041273D02*
X134794614Y17101749D01*
X134794614Y17101749D02*
X134613185Y17101749D01*
X134613185Y17101749D02*
X134492233Y17041273D01*
X134492233Y17041273D02*
X134431757Y16980797D01*
X134431757Y16980797D02*
X134371281Y16859844D01*
X134371281Y16859844D02*
X134371281Y16496987D01*
X134371281Y16496987D02*
X134431757Y16376035D01*
X134431757Y16376035D02*
X134492233Y16315558D01*
X134492233Y16315558D02*
X134613185Y16255082D01*
X134613185Y16255082D02*
X134794614Y16255082D01*
X133826995Y16255082D02*
X133826995Y17101749D01*
X133826995Y16859844D02*
X133766518Y16980797D01*
X133766518Y16980797D02*
X133706042Y17041273D01*
X133706042Y17041273D02*
X133585090Y17101749D01*
X133585090Y17101749D02*
X133464137Y17101749D01*
X131528900Y17101749D02*
X131528900Y16255082D01*
X132073186Y17101749D02*
X132073186Y16436511D01*
X132073186Y16436511D02*
X132012709Y16315558D01*
X132012709Y16315558D02*
X131891757Y16255082D01*
X131891757Y16255082D02*
X131710328Y16255082D01*
X131710328Y16255082D02*
X131589376Y16315558D01*
X131589376Y16315558D02*
X131528900Y16376035D01*
X130984614Y16315558D02*
X130863661Y16255082D01*
X130863661Y16255082D02*
X130621757Y16255082D01*
X130621757Y16255082D02*
X130500804Y16315558D01*
X130500804Y16315558D02*
X130440328Y16436511D01*
X130440328Y16436511D02*
X130440328Y16496987D01*
X130440328Y16496987D02*
X130500804Y16617939D01*
X130500804Y16617939D02*
X130621757Y16678416D01*
X130621757Y16678416D02*
X130803185Y16678416D01*
X130803185Y16678416D02*
X130924138Y16738892D01*
X130924138Y16738892D02*
X130984614Y16859844D01*
X130984614Y16859844D02*
X130984614Y16920320D01*
X130984614Y16920320D02*
X130924138Y17041273D01*
X130924138Y17041273D02*
X130803185Y17101749D01*
X130803185Y17101749D02*
X130621757Y17101749D01*
X130621757Y17101749D02*
X130500804Y17041273D01*
X129412233Y16315558D02*
X129533185Y16255082D01*
X129533185Y16255082D02*
X129775090Y16255082D01*
X129775090Y16255082D02*
X129896043Y16315558D01*
X129896043Y16315558D02*
X129956519Y16436511D01*
X129956519Y16436511D02*
X129956519Y16920320D01*
X129956519Y16920320D02*
X129896043Y17041273D01*
X129896043Y17041273D02*
X129775090Y17101749D01*
X129775090Y17101749D02*
X129533185Y17101749D01*
X129533185Y17101749D02*
X129412233Y17041273D01*
X129412233Y17041273D02*
X129351757Y16920320D01*
X129351757Y16920320D02*
X129351757Y16799368D01*
X129351757Y16799368D02*
X129956519Y16678416D01*
X127658424Y16255082D02*
X127779376Y16315558D01*
X127779376Y16315558D02*
X127839853Y16376035D01*
X127839853Y16376035D02*
X127900329Y16496987D01*
X127900329Y16496987D02*
X127900329Y16859844D01*
X127900329Y16859844D02*
X127839853Y16980797D01*
X127839853Y16980797D02*
X127779376Y17041273D01*
X127779376Y17041273D02*
X127658424Y17101749D01*
X127658424Y17101749D02*
X127476995Y17101749D01*
X127476995Y17101749D02*
X127356043Y17041273D01*
X127356043Y17041273D02*
X127295567Y16980797D01*
X127295567Y16980797D02*
X127235091Y16859844D01*
X127235091Y16859844D02*
X127235091Y16496987D01*
X127235091Y16496987D02*
X127295567Y16376035D01*
X127295567Y16376035D02*
X127356043Y16315558D01*
X127356043Y16315558D02*
X127476995Y16255082D01*
X127476995Y16255082D02*
X127658424Y16255082D01*
X126690805Y17101749D02*
X126690805Y16255082D01*
X126690805Y16980797D02*
X126630328Y17041273D01*
X126630328Y17041273D02*
X126509376Y17101749D01*
X126509376Y17101749D02*
X126327947Y17101749D01*
X126327947Y17101749D02*
X126206995Y17041273D01*
X126206995Y17041273D02*
X126146519Y16920320D01*
X126146519Y16920320D02*
X126146519Y16255082D01*
X125360328Y16255082D02*
X125481280Y16315558D01*
X125481280Y16315558D02*
X125541757Y16436511D01*
X125541757Y16436511D02*
X125541757Y17525082D01*
X124997471Y17101749D02*
X124695090Y16255082D01*
X124392709Y17101749D02*
X124695090Y16255082D01*
X124695090Y16255082D02*
X124816042Y15952701D01*
X124816042Y15952701D02*
X124876519Y15892225D01*
X124876519Y15892225D02*
X124997471Y15831749D01*
X122396995Y17101749D02*
X122396995Y16255082D01*
X122941281Y17101749D02*
X122941281Y16436511D01*
X122941281Y16436511D02*
X122880804Y16315558D01*
X122880804Y16315558D02*
X122759852Y16255082D01*
X122759852Y16255082D02*
X122578423Y16255082D01*
X122578423Y16255082D02*
X122457471Y16315558D01*
X122457471Y16315558D02*
X122396995Y16376035D01*
X121792233Y17101749D02*
X121792233Y16255082D01*
X121792233Y16980797D02*
X121731756Y17041273D01*
X121731756Y17041273D02*
X121610804Y17101749D01*
X121610804Y17101749D02*
X121429375Y17101749D01*
X121429375Y17101749D02*
X121308423Y17041273D01*
X121308423Y17041273D02*
X121247947Y16920320D01*
X121247947Y16920320D02*
X121247947Y16255082D01*
X120098899Y16255082D02*
X120098899Y17525082D01*
X120098899Y16315558D02*
X120219851Y16255082D01*
X120219851Y16255082D02*
X120461756Y16255082D01*
X120461756Y16255082D02*
X120582708Y16315558D01*
X120582708Y16315558D02*
X120643185Y16376035D01*
X120643185Y16376035D02*
X120703661Y16496987D01*
X120703661Y16496987D02*
X120703661Y16859844D01*
X120703661Y16859844D02*
X120643185Y16980797D01*
X120643185Y16980797D02*
X120582708Y17041273D01*
X120582708Y17041273D02*
X120461756Y17101749D01*
X120461756Y17101749D02*
X120219851Y17101749D01*
X120219851Y17101749D02*
X120098899Y17041273D01*
X119010327Y16315558D02*
X119131279Y16255082D01*
X119131279Y16255082D02*
X119373184Y16255082D01*
X119373184Y16255082D02*
X119494137Y16315558D01*
X119494137Y16315558D02*
X119554613Y16436511D01*
X119554613Y16436511D02*
X119554613Y16920320D01*
X119554613Y16920320D02*
X119494137Y17041273D01*
X119494137Y17041273D02*
X119373184Y17101749D01*
X119373184Y17101749D02*
X119131279Y17101749D01*
X119131279Y17101749D02*
X119010327Y17041273D01*
X119010327Y17041273D02*
X118949851Y16920320D01*
X118949851Y16920320D02*
X118949851Y16799368D01*
X118949851Y16799368D02*
X119554613Y16678416D01*
X118405566Y16255082D02*
X118405566Y17101749D01*
X118405566Y16859844D02*
X118345089Y16980797D01*
X118345089Y16980797D02*
X118284613Y17041273D01*
X118284613Y17041273D02*
X118163661Y17101749D01*
X118163661Y17101749D02*
X118042708Y17101749D01*
X116833185Y17101749D02*
X116349376Y17101749D01*
X116651757Y17525082D02*
X116651757Y16436511D01*
X116651757Y16436511D02*
X116591280Y16315558D01*
X116591280Y16315558D02*
X116470328Y16255082D01*
X116470328Y16255082D02*
X116349376Y16255082D01*
X115926043Y16255082D02*
X115926043Y17525082D01*
X115381757Y16255082D02*
X115381757Y16920320D01*
X115381757Y16920320D02*
X115442233Y17041273D01*
X115442233Y17041273D02*
X115563185Y17101749D01*
X115563185Y17101749D02*
X115744614Y17101749D01*
X115744614Y17101749D02*
X115865566Y17041273D01*
X115865566Y17041273D02*
X115926043Y16980797D01*
X114293185Y16315558D02*
X114414137Y16255082D01*
X114414137Y16255082D02*
X114656042Y16255082D01*
X114656042Y16255082D02*
X114776995Y16315558D01*
X114776995Y16315558D02*
X114837471Y16436511D01*
X114837471Y16436511D02*
X114837471Y16920320D01*
X114837471Y16920320D02*
X114776995Y17041273D01*
X114776995Y17041273D02*
X114656042Y17101749D01*
X114656042Y17101749D02*
X114414137Y17101749D01*
X114414137Y17101749D02*
X114293185Y17041273D01*
X114293185Y17041273D02*
X114232709Y16920320D01*
X114232709Y16920320D02*
X114232709Y16799368D01*
X114232709Y16799368D02*
X114837471Y16678416D01*
X112902233Y17101749D02*
X112418424Y17101749D01*
X112720805Y17525082D02*
X112720805Y16436511D01*
X112720805Y16436511D02*
X112660328Y16315558D01*
X112660328Y16315558D02*
X112539376Y16255082D01*
X112539376Y16255082D02*
X112418424Y16255082D01*
X111511281Y16315558D02*
X111632233Y16255082D01*
X111632233Y16255082D02*
X111874138Y16255082D01*
X111874138Y16255082D02*
X111995091Y16315558D01*
X111995091Y16315558D02*
X112055567Y16436511D01*
X112055567Y16436511D02*
X112055567Y16920320D01*
X112055567Y16920320D02*
X111995091Y17041273D01*
X111995091Y17041273D02*
X111874138Y17101749D01*
X111874138Y17101749D02*
X111632233Y17101749D01*
X111632233Y17101749D02*
X111511281Y17041273D01*
X111511281Y17041273D02*
X111450805Y16920320D01*
X111450805Y16920320D02*
X111450805Y16799368D01*
X111450805Y16799368D02*
X112055567Y16678416D01*
X110906520Y16255082D02*
X110906520Y17101749D01*
X110906520Y16859844D02*
X110846043Y16980797D01*
X110846043Y16980797D02*
X110785567Y17041273D01*
X110785567Y17041273D02*
X110664615Y17101749D01*
X110664615Y17101749D02*
X110543662Y17101749D01*
X110120330Y16255082D02*
X110120330Y17101749D01*
X110120330Y16980797D02*
X110059853Y17041273D01*
X110059853Y17041273D02*
X109938901Y17101749D01*
X109938901Y17101749D02*
X109757472Y17101749D01*
X109757472Y17101749D02*
X109636520Y17041273D01*
X109636520Y17041273D02*
X109576044Y16920320D01*
X109576044Y16920320D02*
X109576044Y16255082D01*
X109576044Y16920320D02*
X109515568Y17041273D01*
X109515568Y17041273D02*
X109394615Y17101749D01*
X109394615Y17101749D02*
X109213187Y17101749D01*
X109213187Y17101749D02*
X109092234Y17041273D01*
X109092234Y17041273D02*
X109031758Y16920320D01*
X109031758Y16920320D02*
X109031758Y16255082D01*
X108487473Y16315558D02*
X108366520Y16255082D01*
X108366520Y16255082D02*
X108124616Y16255082D01*
X108124616Y16255082D02*
X108003663Y16315558D01*
X108003663Y16315558D02*
X107943187Y16436511D01*
X107943187Y16436511D02*
X107943187Y16496987D01*
X107943187Y16496987D02*
X108003663Y16617939D01*
X108003663Y16617939D02*
X108124616Y16678416D01*
X108124616Y16678416D02*
X108306044Y16678416D01*
X108306044Y16678416D02*
X108426997Y16738892D01*
X108426997Y16738892D02*
X108487473Y16859844D01*
X108487473Y16859844D02*
X108487473Y16920320D01*
X108487473Y16920320D02*
X108426997Y17041273D01*
X108426997Y17041273D02*
X108306044Y17101749D01*
X108306044Y17101749D02*
X108124616Y17101749D01*
X108124616Y17101749D02*
X108003663Y17041273D01*
X106491759Y16315558D02*
X106370806Y16255082D01*
X106370806Y16255082D02*
X106128902Y16255082D01*
X106128902Y16255082D02*
X106007949Y16315558D01*
X106007949Y16315558D02*
X105947473Y16436511D01*
X105947473Y16436511D02*
X105947473Y16496987D01*
X105947473Y16496987D02*
X106007949Y16617939D01*
X106007949Y16617939D02*
X106128902Y16678416D01*
X106128902Y16678416D02*
X106310330Y16678416D01*
X106310330Y16678416D02*
X106431283Y16738892D01*
X106431283Y16738892D02*
X106491759Y16859844D01*
X106491759Y16859844D02*
X106491759Y16920320D01*
X106491759Y16920320D02*
X106431283Y17041273D01*
X106431283Y17041273D02*
X106310330Y17101749D01*
X106310330Y17101749D02*
X106128902Y17101749D01*
X106128902Y17101749D02*
X106007949Y17041273D01*
X104919378Y16315558D02*
X105040330Y16255082D01*
X105040330Y16255082D02*
X105282235Y16255082D01*
X105282235Y16255082D02*
X105403188Y16315558D01*
X105403188Y16315558D02*
X105463664Y16436511D01*
X105463664Y16436511D02*
X105463664Y16920320D01*
X105463664Y16920320D02*
X105403188Y17041273D01*
X105403188Y17041273D02*
X105282235Y17101749D01*
X105282235Y17101749D02*
X105040330Y17101749D01*
X105040330Y17101749D02*
X104919378Y17041273D01*
X104919378Y17041273D02*
X104858902Y16920320D01*
X104858902Y16920320D02*
X104858902Y16799368D01*
X104858902Y16799368D02*
X105463664Y16678416D01*
X104496045Y17101749D02*
X104012236Y17101749D01*
X104314617Y17525082D02*
X104314617Y16436511D01*
X104314617Y16436511D02*
X104254140Y16315558D01*
X104254140Y16315558D02*
X104133188Y16255082D01*
X104133188Y16255082D02*
X104012236Y16255082D01*
X102802712Y17101749D02*
X102318903Y17101749D01*
X102621284Y16255082D02*
X102621284Y17343654D01*
X102621284Y17343654D02*
X102560807Y17464606D01*
X102560807Y17464606D02*
X102439855Y17525082D01*
X102439855Y17525082D02*
X102318903Y17525082D01*
X101714141Y16255082D02*
X101835093Y16315558D01*
X101835093Y16315558D02*
X101895570Y16376035D01*
X101895570Y16376035D02*
X101956046Y16496987D01*
X101956046Y16496987D02*
X101956046Y16859844D01*
X101956046Y16859844D02*
X101895570Y16980797D01*
X101895570Y16980797D02*
X101835093Y17041273D01*
X101835093Y17041273D02*
X101714141Y17101749D01*
X101714141Y17101749D02*
X101532712Y17101749D01*
X101532712Y17101749D02*
X101411760Y17041273D01*
X101411760Y17041273D02*
X101351284Y16980797D01*
X101351284Y16980797D02*
X101290808Y16859844D01*
X101290808Y16859844D02*
X101290808Y16496987D01*
X101290808Y16496987D02*
X101351284Y16376035D01*
X101351284Y16376035D02*
X101411760Y16315558D01*
X101411760Y16315558D02*
X101532712Y16255082D01*
X101532712Y16255082D02*
X101714141Y16255082D01*
X100746522Y16255082D02*
X100746522Y17101749D01*
X100746522Y16859844D02*
X100686045Y16980797D01*
X100686045Y16980797D02*
X100625569Y17041273D01*
X100625569Y17041273D02*
X100504617Y17101749D01*
X100504617Y17101749D02*
X100383664Y17101749D01*
X100141760Y17101749D02*
X99657951Y17101749D01*
X99960332Y17525082D02*
X99960332Y16436511D01*
X99960332Y16436511D02*
X99899855Y16315558D01*
X99899855Y16315558D02*
X99778903Y16255082D01*
X99778903Y16255082D02*
X99657951Y16255082D01*
X99234618Y16255082D02*
X99234618Y17525082D01*
X98690332Y16255082D02*
X98690332Y16920320D01*
X98690332Y16920320D02*
X98750808Y17041273D01*
X98750808Y17041273D02*
X98871760Y17101749D01*
X98871760Y17101749D02*
X99053189Y17101749D01*
X99053189Y17101749D02*
X99174141Y17041273D01*
X99174141Y17041273D02*
X99234618Y16980797D01*
X97117951Y16255082D02*
X97117951Y17101749D01*
X97117951Y17525082D02*
X97178427Y17464606D01*
X97178427Y17464606D02*
X97117951Y17404130D01*
X97117951Y17404130D02*
X97057474Y17464606D01*
X97057474Y17464606D02*
X97117951Y17525082D01*
X97117951Y17525082D02*
X97117951Y17404130D01*
X96513189Y17101749D02*
X96513189Y16255082D01*
X96513189Y16980797D02*
X96452712Y17041273D01*
X96452712Y17041273D02*
X96331760Y17101749D01*
X96331760Y17101749D02*
X96150331Y17101749D01*
X96150331Y17101749D02*
X96029379Y17041273D01*
X96029379Y17041273D02*
X95968903Y16920320D01*
X95968903Y16920320D02*
X95968903Y16255082D01*
X94577950Y17101749D02*
X94094141Y17101749D01*
X94396522Y17525082D02*
X94396522Y16436511D01*
X94396522Y16436511D02*
X94336045Y16315558D01*
X94336045Y16315558D02*
X94215093Y16255082D01*
X94215093Y16255082D02*
X94094141Y16255082D01*
X93670808Y16255082D02*
X93670808Y17525082D01*
X93126522Y16255082D02*
X93126522Y16920320D01*
X93126522Y16920320D02*
X93186998Y17041273D01*
X93186998Y17041273D02*
X93307950Y17101749D01*
X93307950Y17101749D02*
X93489379Y17101749D01*
X93489379Y17101749D02*
X93610331Y17041273D01*
X93610331Y17041273D02*
X93670808Y16980797D01*
X92037950Y16315558D02*
X92158902Y16255082D01*
X92158902Y16255082D02*
X92400807Y16255082D01*
X92400807Y16255082D02*
X92521760Y16315558D01*
X92521760Y16315558D02*
X92582236Y16436511D01*
X92582236Y16436511D02*
X92582236Y16920320D01*
X92582236Y16920320D02*
X92521760Y17041273D01*
X92521760Y17041273D02*
X92400807Y17101749D01*
X92400807Y17101749D02*
X92158902Y17101749D01*
X92158902Y17101749D02*
X92037950Y17041273D01*
X92037950Y17041273D02*
X91977474Y16920320D01*
X91977474Y16920320D02*
X91977474Y16799368D01*
X91977474Y16799368D02*
X92582236Y16678416D01*
X155840326Y14331406D02*
X155900802Y14270929D01*
X155900802Y14270929D02*
X156082231Y14210453D01*
X156082231Y14210453D02*
X156203183Y14210453D01*
X156203183Y14210453D02*
X156384612Y14270929D01*
X156384612Y14270929D02*
X156505564Y14391882D01*
X156505564Y14391882D02*
X156566041Y14512834D01*
X156566041Y14512834D02*
X156626517Y14754739D01*
X156626517Y14754739D02*
X156626517Y14936168D01*
X156626517Y14936168D02*
X156566041Y15178072D01*
X156566041Y15178072D02*
X156505564Y15299025D01*
X156505564Y15299025D02*
X156384612Y15419977D01*
X156384612Y15419977D02*
X156203183Y15480453D01*
X156203183Y15480453D02*
X156082231Y15480453D01*
X156082231Y15480453D02*
X155900802Y15419977D01*
X155900802Y15419977D02*
X155840326Y15359501D01*
X155296041Y14875691D02*
X154872707Y14875691D01*
X154691279Y14210453D02*
X155296041Y14210453D01*
X155296041Y14210453D02*
X155296041Y15480453D01*
X155296041Y15480453D02*
X154691279Y15480453D01*
X153421278Y14210453D02*
X153844612Y14815215D01*
X154146993Y14210453D02*
X154146993Y15480453D01*
X154146993Y15480453D02*
X153663183Y15480453D01*
X153663183Y15480453D02*
X153542231Y15419977D01*
X153542231Y15419977D02*
X153481754Y15359501D01*
X153481754Y15359501D02*
X153421278Y15238549D01*
X153421278Y15238549D02*
X153421278Y15057120D01*
X153421278Y15057120D02*
X153481754Y14936168D01*
X153481754Y14936168D02*
X153542231Y14875691D01*
X153542231Y14875691D02*
X153663183Y14815215D01*
X153663183Y14815215D02*
X154146993Y14815215D01*
X152876993Y14210453D02*
X152876993Y15480453D01*
X152876993Y15480453D02*
X152151278Y14210453D01*
X152151278Y14210453D02*
X152151278Y15480453D01*
X151546517Y14694263D02*
X150578898Y14694263D01*
X149732231Y15480453D02*
X149490326Y15480453D01*
X149490326Y15480453D02*
X149369374Y15419977D01*
X149369374Y15419977D02*
X149248421Y15299025D01*
X149248421Y15299025D02*
X149187945Y15057120D01*
X149187945Y15057120D02*
X149187945Y14633787D01*
X149187945Y14633787D02*
X149248421Y14391882D01*
X149248421Y14391882D02*
X149369374Y14270929D01*
X149369374Y14270929D02*
X149490326Y14210453D01*
X149490326Y14210453D02*
X149732231Y14210453D01*
X149732231Y14210453D02*
X149853183Y14270929D01*
X149853183Y14270929D02*
X149974136Y14391882D01*
X149974136Y14391882D02*
X150034612Y14633787D01*
X150034612Y14633787D02*
X150034612Y15057120D01*
X150034612Y15057120D02*
X149974136Y15299025D01*
X149974136Y15299025D02*
X149853183Y15419977D01*
X149853183Y15419977D02*
X149732231Y15480453D01*
X148643660Y14210453D02*
X148643660Y15480453D01*
X148643660Y14875691D02*
X147917945Y14875691D01*
X147917945Y14210453D02*
X147917945Y15480453D01*
X146708422Y14210453D02*
X147313184Y14210453D01*
X147313184Y14210453D02*
X147313184Y15480453D01*
X146285089Y14694263D02*
X145317470Y14694263D01*
X144773184Y14270929D02*
X144591755Y14210453D01*
X144591755Y14210453D02*
X144289374Y14210453D01*
X144289374Y14210453D02*
X144168422Y14270929D01*
X144168422Y14270929D02*
X144107946Y14331406D01*
X144107946Y14331406D02*
X144047469Y14452358D01*
X144047469Y14452358D02*
X144047469Y14573310D01*
X144047469Y14573310D02*
X144107946Y14694263D01*
X144107946Y14694263D02*
X144168422Y14754739D01*
X144168422Y14754739D02*
X144289374Y14815215D01*
X144289374Y14815215D02*
X144531279Y14875691D01*
X144531279Y14875691D02*
X144652231Y14936168D01*
X144652231Y14936168D02*
X144712708Y14996644D01*
X144712708Y14996644D02*
X144773184Y15117596D01*
X144773184Y15117596D02*
X144773184Y15238549D01*
X144773184Y15238549D02*
X144712708Y15359501D01*
X144712708Y15359501D02*
X144652231Y15419977D01*
X144652231Y15419977D02*
X144531279Y15480453D01*
X144531279Y15480453D02*
X144228898Y15480453D01*
X144228898Y15480453D02*
X144047469Y15419977D01*
X143503184Y14694263D02*
X142535565Y14694263D01*
X141991279Y15359501D02*
X141930803Y15419977D01*
X141930803Y15419977D02*
X141809850Y15480453D01*
X141809850Y15480453D02*
X141507469Y15480453D01*
X141507469Y15480453D02*
X141386517Y15419977D01*
X141386517Y15419977D02*
X141326041Y15359501D01*
X141326041Y15359501D02*
X141265564Y15238549D01*
X141265564Y15238549D02*
X141265564Y15117596D01*
X141265564Y15117596D02*
X141326041Y14936168D01*
X141326041Y14936168D02*
X142051755Y14210453D01*
X142051755Y14210453D02*
X141265564Y14210453D01*
X140721279Y14331406D02*
X140660802Y14270929D01*
X140660802Y14270929D02*
X140721279Y14210453D01*
X140721279Y14210453D02*
X140781755Y14270929D01*
X140781755Y14270929D02*
X140721279Y14331406D01*
X140721279Y14331406D02*
X140721279Y14210453D01*
X139874612Y15480453D02*
X139753659Y15480453D01*
X139753659Y15480453D02*
X139632707Y15419977D01*
X139632707Y15419977D02*
X139572231Y15359501D01*
X139572231Y15359501D02*
X139511755Y15238549D01*
X139511755Y15238549D02*
X139451278Y14996644D01*
X139451278Y14996644D02*
X139451278Y14694263D01*
X139451278Y14694263D02*
X139511755Y14452358D01*
X139511755Y14452358D02*
X139572231Y14331406D01*
X139572231Y14331406D02*
X139632707Y14270929D01*
X139632707Y14270929D02*
X139753659Y14210453D01*
X139753659Y14210453D02*
X139874612Y14210453D01*
X139874612Y14210453D02*
X139995564Y14270929D01*
X139995564Y14270929D02*
X140056040Y14331406D01*
X140056040Y14331406D02*
X140116517Y14452358D01*
X140116517Y14452358D02*
X140176993Y14694263D01*
X140176993Y14694263D02*
X140176993Y14996644D01*
X140176993Y14996644D02*
X140116517Y15238549D01*
X140116517Y15238549D02*
X140056040Y15359501D01*
X140056040Y15359501D02*
X139995564Y15419977D01*
X139995564Y15419977D02*
X139874612Y15480453D01*
X137757945Y14210453D02*
X137878897Y14270929D01*
X137878897Y14270929D02*
X137939374Y14391882D01*
X137939374Y14391882D02*
X137939374Y15480453D01*
X137274136Y14210453D02*
X137274136Y15057120D01*
X137274136Y15480453D02*
X137334612Y15419977D01*
X137334612Y15419977D02*
X137274136Y15359501D01*
X137274136Y15359501D02*
X137213659Y15419977D01*
X137213659Y15419977D02*
X137274136Y15480453D01*
X137274136Y15480453D02*
X137274136Y15359501D01*
X136125088Y14270929D02*
X136246040Y14210453D01*
X136246040Y14210453D02*
X136487945Y14210453D01*
X136487945Y14210453D02*
X136608897Y14270929D01*
X136608897Y14270929D02*
X136669374Y14331406D01*
X136669374Y14331406D02*
X136729850Y14452358D01*
X136729850Y14452358D02*
X136729850Y14815215D01*
X136729850Y14815215D02*
X136669374Y14936168D01*
X136669374Y14936168D02*
X136608897Y14996644D01*
X136608897Y14996644D02*
X136487945Y15057120D01*
X136487945Y15057120D02*
X136246040Y15057120D01*
X136246040Y15057120D02*
X136125088Y14996644D01*
X135096993Y14270929D02*
X135217945Y14210453D01*
X135217945Y14210453D02*
X135459850Y14210453D01*
X135459850Y14210453D02*
X135580803Y14270929D01*
X135580803Y14270929D02*
X135641279Y14391882D01*
X135641279Y14391882D02*
X135641279Y14875691D01*
X135641279Y14875691D02*
X135580803Y14996644D01*
X135580803Y14996644D02*
X135459850Y15057120D01*
X135459850Y15057120D02*
X135217945Y15057120D01*
X135217945Y15057120D02*
X135096993Y14996644D01*
X135096993Y14996644D02*
X135036517Y14875691D01*
X135036517Y14875691D02*
X135036517Y14754739D01*
X135036517Y14754739D02*
X135641279Y14633787D01*
X134492232Y15057120D02*
X134492232Y14210453D01*
X134492232Y14936168D02*
X134431755Y14996644D01*
X134431755Y14996644D02*
X134310803Y15057120D01*
X134310803Y15057120D02*
X134129374Y15057120D01*
X134129374Y15057120D02*
X134008422Y14996644D01*
X134008422Y14996644D02*
X133947946Y14875691D01*
X133947946Y14875691D02*
X133947946Y14210453D01*
X133403660Y14270929D02*
X133282707Y14210453D01*
X133282707Y14210453D02*
X133040803Y14210453D01*
X133040803Y14210453D02*
X132919850Y14270929D01*
X132919850Y14270929D02*
X132859374Y14391882D01*
X132859374Y14391882D02*
X132859374Y14452358D01*
X132859374Y14452358D02*
X132919850Y14573310D01*
X132919850Y14573310D02*
X133040803Y14633787D01*
X133040803Y14633787D02*
X133222231Y14633787D01*
X133222231Y14633787D02*
X133343184Y14694263D01*
X133343184Y14694263D02*
X133403660Y14815215D01*
X133403660Y14815215D02*
X133403660Y14875691D01*
X133403660Y14875691D02*
X133343184Y14996644D01*
X133343184Y14996644D02*
X133222231Y15057120D01*
X133222231Y15057120D02*
X133040803Y15057120D01*
X133040803Y15057120D02*
X132919850Y14996644D01*
X131831279Y14270929D02*
X131952231Y14210453D01*
X131952231Y14210453D02*
X132194136Y14210453D01*
X132194136Y14210453D02*
X132315089Y14270929D01*
X132315089Y14270929D02*
X132375565Y14391882D01*
X132375565Y14391882D02*
X132375565Y14875691D01*
X132375565Y14875691D02*
X132315089Y14996644D01*
X132315089Y14996644D02*
X132194136Y15057120D01*
X132194136Y15057120D02*
X131952231Y15057120D01*
X131952231Y15057120D02*
X131831279Y14996644D01*
X131831279Y14996644D02*
X131770803Y14875691D01*
X131770803Y14875691D02*
X131770803Y14754739D01*
X131770803Y14754739D02*
X132375565Y14633787D01*
X131226518Y14331406D02*
X131166041Y14270929D01*
X131166041Y14270929D02*
X131226518Y14210453D01*
X131226518Y14210453D02*
X131286994Y14270929D01*
X131286994Y14270929D02*
X131226518Y14331406D01*
X131226518Y14331406D02*
X131226518Y14210453D01*
X128746994Y14573310D02*
X128142232Y14573310D01*
X128867946Y14210453D02*
X128444613Y15480453D01*
X128444613Y15480453D02*
X128021279Y14210453D01*
X127597947Y15057120D02*
X127597947Y14210453D01*
X127597947Y14936168D02*
X127537470Y14996644D01*
X127537470Y14996644D02*
X127416518Y15057120D01*
X127416518Y15057120D02*
X127235089Y15057120D01*
X127235089Y15057120D02*
X127114137Y14996644D01*
X127114137Y14996644D02*
X127053661Y14875691D01*
X127053661Y14875691D02*
X127053661Y14210453D01*
X126569851Y15057120D02*
X126267470Y14210453D01*
X125965089Y15057120D02*
X126267470Y14210453D01*
X126267470Y14210453D02*
X126388422Y13908072D01*
X126388422Y13908072D02*
X126448899Y13847596D01*
X126448899Y13847596D02*
X126569851Y13787120D01*
X123969375Y15057120D02*
X123969375Y14210453D01*
X124513661Y15057120D02*
X124513661Y14391882D01*
X124513661Y14391882D02*
X124453184Y14270929D01*
X124453184Y14270929D02*
X124332232Y14210453D01*
X124332232Y14210453D02*
X124150803Y14210453D01*
X124150803Y14210453D02*
X124029851Y14270929D01*
X124029851Y14270929D02*
X123969375Y14331406D01*
X123425089Y14270929D02*
X123304136Y14210453D01*
X123304136Y14210453D02*
X123062232Y14210453D01*
X123062232Y14210453D02*
X122941279Y14270929D01*
X122941279Y14270929D02*
X122880803Y14391882D01*
X122880803Y14391882D02*
X122880803Y14452358D01*
X122880803Y14452358D02*
X122941279Y14573310D01*
X122941279Y14573310D02*
X123062232Y14633787D01*
X123062232Y14633787D02*
X123243660Y14633787D01*
X123243660Y14633787D02*
X123364613Y14694263D01*
X123364613Y14694263D02*
X123425089Y14815215D01*
X123425089Y14815215D02*
X123425089Y14875691D01*
X123425089Y14875691D02*
X123364613Y14996644D01*
X123364613Y14996644D02*
X123243660Y15057120D01*
X123243660Y15057120D02*
X123062232Y15057120D01*
X123062232Y15057120D02*
X122941279Y14996644D01*
X121852708Y14270929D02*
X121973660Y14210453D01*
X121973660Y14210453D02*
X122215565Y14210453D01*
X122215565Y14210453D02*
X122336518Y14270929D01*
X122336518Y14270929D02*
X122396994Y14391882D01*
X122396994Y14391882D02*
X122396994Y14875691D01*
X122396994Y14875691D02*
X122336518Y14996644D01*
X122336518Y14996644D02*
X122215565Y15057120D01*
X122215565Y15057120D02*
X121973660Y15057120D01*
X121973660Y15057120D02*
X121852708Y14996644D01*
X121852708Y14996644D02*
X121792232Y14875691D01*
X121792232Y14875691D02*
X121792232Y14754739D01*
X121792232Y14754739D02*
X122396994Y14633787D01*
X121187470Y14270929D02*
X121187470Y14210453D01*
X121187470Y14210453D02*
X121247947Y14089501D01*
X121247947Y14089501D02*
X121308423Y14029025D01*
X119675566Y14210453D02*
X119675566Y15057120D01*
X119675566Y14936168D02*
X119615089Y14996644D01*
X119615089Y14996644D02*
X119494137Y15057120D01*
X119494137Y15057120D02*
X119312708Y15057120D01*
X119312708Y15057120D02*
X119191756Y14996644D01*
X119191756Y14996644D02*
X119131280Y14875691D01*
X119131280Y14875691D02*
X119131280Y14210453D01*
X119131280Y14875691D02*
X119070804Y14996644D01*
X119070804Y14996644D02*
X118949851Y15057120D01*
X118949851Y15057120D02*
X118768423Y15057120D01*
X118768423Y15057120D02*
X118647470Y14996644D01*
X118647470Y14996644D02*
X118586994Y14875691D01*
X118586994Y14875691D02*
X118586994Y14210453D01*
X117800804Y14210453D02*
X117921756Y14270929D01*
X117921756Y14270929D02*
X117982233Y14331406D01*
X117982233Y14331406D02*
X118042709Y14452358D01*
X118042709Y14452358D02*
X118042709Y14815215D01*
X118042709Y14815215D02*
X117982233Y14936168D01*
X117982233Y14936168D02*
X117921756Y14996644D01*
X117921756Y14996644D02*
X117800804Y15057120D01*
X117800804Y15057120D02*
X117619375Y15057120D01*
X117619375Y15057120D02*
X117498423Y14996644D01*
X117498423Y14996644D02*
X117437947Y14936168D01*
X117437947Y14936168D02*
X117377471Y14815215D01*
X117377471Y14815215D02*
X117377471Y14452358D01*
X117377471Y14452358D02*
X117437947Y14331406D01*
X117437947Y14331406D02*
X117498423Y14270929D01*
X117498423Y14270929D02*
X117619375Y14210453D01*
X117619375Y14210453D02*
X117800804Y14210453D01*
X116288899Y14210453D02*
X116288899Y15480453D01*
X116288899Y14270929D02*
X116409851Y14210453D01*
X116409851Y14210453D02*
X116651756Y14210453D01*
X116651756Y14210453D02*
X116772708Y14270929D01*
X116772708Y14270929D02*
X116833185Y14331406D01*
X116833185Y14331406D02*
X116893661Y14452358D01*
X116893661Y14452358D02*
X116893661Y14815215D01*
X116893661Y14815215D02*
X116833185Y14936168D01*
X116833185Y14936168D02*
X116772708Y14996644D01*
X116772708Y14996644D02*
X116651756Y15057120D01*
X116651756Y15057120D02*
X116409851Y15057120D01*
X116409851Y15057120D02*
X116288899Y14996644D01*
X115684137Y14210453D02*
X115684137Y15057120D01*
X115684137Y15480453D02*
X115744613Y15419977D01*
X115744613Y15419977D02*
X115684137Y15359501D01*
X115684137Y15359501D02*
X115623660Y15419977D01*
X115623660Y15419977D02*
X115684137Y15480453D01*
X115684137Y15480453D02*
X115684137Y15359501D01*
X115260803Y15057120D02*
X114776994Y15057120D01*
X115079375Y14210453D02*
X115079375Y15299025D01*
X115079375Y15299025D02*
X115018898Y15419977D01*
X115018898Y15419977D02*
X114897946Y15480453D01*
X114897946Y15480453D02*
X114776994Y15480453D01*
X114353661Y14210453D02*
X114353661Y15057120D01*
X114353661Y15480453D02*
X114414137Y15419977D01*
X114414137Y15419977D02*
X114353661Y15359501D01*
X114353661Y15359501D02*
X114293184Y15419977D01*
X114293184Y15419977D02*
X114353661Y15480453D01*
X114353661Y15480453D02*
X114353661Y15359501D01*
X113204613Y14270929D02*
X113325565Y14210453D01*
X113325565Y14210453D02*
X113567470Y14210453D01*
X113567470Y14210453D02*
X113688422Y14270929D01*
X113688422Y14270929D02*
X113748899Y14331406D01*
X113748899Y14331406D02*
X113809375Y14452358D01*
X113809375Y14452358D02*
X113809375Y14815215D01*
X113809375Y14815215D02*
X113748899Y14936168D01*
X113748899Y14936168D02*
X113688422Y14996644D01*
X113688422Y14996644D02*
X113567470Y15057120D01*
X113567470Y15057120D02*
X113325565Y15057120D01*
X113325565Y15057120D02*
X113204613Y14996644D01*
X112116042Y14210453D02*
X112116042Y14875691D01*
X112116042Y14875691D02*
X112176518Y14996644D01*
X112176518Y14996644D02*
X112297470Y15057120D01*
X112297470Y15057120D02*
X112539375Y15057120D01*
X112539375Y15057120D02*
X112660328Y14996644D01*
X112116042Y14270929D02*
X112236994Y14210453D01*
X112236994Y14210453D02*
X112539375Y14210453D01*
X112539375Y14210453D02*
X112660328Y14270929D01*
X112660328Y14270929D02*
X112720804Y14391882D01*
X112720804Y14391882D02*
X112720804Y14512834D01*
X112720804Y14512834D02*
X112660328Y14633787D01*
X112660328Y14633787D02*
X112539375Y14694263D01*
X112539375Y14694263D02*
X112236994Y14694263D01*
X112236994Y14694263D02*
X112116042Y14754739D01*
X111692708Y15057120D02*
X111208899Y15057120D01*
X111511280Y15480453D02*
X111511280Y14391882D01*
X111511280Y14391882D02*
X111450803Y14270929D01*
X111450803Y14270929D02*
X111329851Y14210453D01*
X111329851Y14210453D02*
X111208899Y14210453D01*
X110785566Y14210453D02*
X110785566Y15057120D01*
X110785566Y15480453D02*
X110846042Y15419977D01*
X110846042Y15419977D02*
X110785566Y15359501D01*
X110785566Y15359501D02*
X110725089Y15419977D01*
X110725089Y15419977D02*
X110785566Y15480453D01*
X110785566Y15480453D02*
X110785566Y15359501D01*
X109999375Y14210453D02*
X110120327Y14270929D01*
X110120327Y14270929D02*
X110180804Y14331406D01*
X110180804Y14331406D02*
X110241280Y14452358D01*
X110241280Y14452358D02*
X110241280Y14815215D01*
X110241280Y14815215D02*
X110180804Y14936168D01*
X110180804Y14936168D02*
X110120327Y14996644D01*
X110120327Y14996644D02*
X109999375Y15057120D01*
X109999375Y15057120D02*
X109817946Y15057120D01*
X109817946Y15057120D02*
X109696994Y14996644D01*
X109696994Y14996644D02*
X109636518Y14936168D01*
X109636518Y14936168D02*
X109576042Y14815215D01*
X109576042Y14815215D02*
X109576042Y14452358D01*
X109576042Y14452358D02*
X109636518Y14331406D01*
X109636518Y14331406D02*
X109696994Y14270929D01*
X109696994Y14270929D02*
X109817946Y14210453D01*
X109817946Y14210453D02*
X109999375Y14210453D01*
X109031756Y15057120D02*
X109031756Y14210453D01*
X109031756Y14936168D02*
X108971279Y14996644D01*
X108971279Y14996644D02*
X108850327Y15057120D01*
X108850327Y15057120D02*
X108668898Y15057120D01*
X108668898Y15057120D02*
X108547946Y14996644D01*
X108547946Y14996644D02*
X108487470Y14875691D01*
X108487470Y14875691D02*
X108487470Y14210453D01*
X107822231Y14270929D02*
X107822231Y14210453D01*
X107822231Y14210453D02*
X107882708Y14089501D01*
X107882708Y14089501D02*
X107943184Y14029025D01*
X106128898Y14210453D02*
X106249850Y14270929D01*
X106249850Y14270929D02*
X106310327Y14331406D01*
X106310327Y14331406D02*
X106370803Y14452358D01*
X106370803Y14452358D02*
X106370803Y14815215D01*
X106370803Y14815215D02*
X106310327Y14936168D01*
X106310327Y14936168D02*
X106249850Y14996644D01*
X106249850Y14996644D02*
X106128898Y15057120D01*
X106128898Y15057120D02*
X105947469Y15057120D01*
X105947469Y15057120D02*
X105826517Y14996644D01*
X105826517Y14996644D02*
X105766041Y14936168D01*
X105766041Y14936168D02*
X105705565Y14815215D01*
X105705565Y14815215D02*
X105705565Y14452358D01*
X105705565Y14452358D02*
X105766041Y14331406D01*
X105766041Y14331406D02*
X105826517Y14270929D01*
X105826517Y14270929D02*
X105947469Y14210453D01*
X105947469Y14210453D02*
X106128898Y14210453D01*
X105161279Y14210453D02*
X105161279Y15057120D01*
X105161279Y14815215D02*
X105100802Y14936168D01*
X105100802Y14936168D02*
X105040326Y14996644D01*
X105040326Y14996644D02*
X104919374Y15057120D01*
X104919374Y15057120D02*
X104798421Y15057120D01*
X103407470Y14210453D02*
X103407470Y15057120D01*
X103407470Y14815215D02*
X103346993Y14936168D01*
X103346993Y14936168D02*
X103286517Y14996644D01*
X103286517Y14996644D02*
X103165565Y15057120D01*
X103165565Y15057120D02*
X103044612Y15057120D01*
X102137470Y14270929D02*
X102258422Y14210453D01*
X102258422Y14210453D02*
X102500327Y14210453D01*
X102500327Y14210453D02*
X102621280Y14270929D01*
X102621280Y14270929D02*
X102681756Y14391882D01*
X102681756Y14391882D02*
X102681756Y14875691D01*
X102681756Y14875691D02*
X102621280Y14996644D01*
X102621280Y14996644D02*
X102500327Y15057120D01*
X102500327Y15057120D02*
X102258422Y15057120D01*
X102258422Y15057120D02*
X102137470Y14996644D01*
X102137470Y14996644D02*
X102076994Y14875691D01*
X102076994Y14875691D02*
X102076994Y14754739D01*
X102076994Y14754739D02*
X102681756Y14633787D01*
X100988423Y14210453D02*
X100988423Y15480453D01*
X100988423Y14270929D02*
X101109375Y14210453D01*
X101109375Y14210453D02*
X101351280Y14210453D01*
X101351280Y14210453D02*
X101472232Y14270929D01*
X101472232Y14270929D02*
X101532709Y14331406D01*
X101532709Y14331406D02*
X101593185Y14452358D01*
X101593185Y14452358D02*
X101593185Y14815215D01*
X101593185Y14815215D02*
X101532709Y14936168D01*
X101532709Y14936168D02*
X101472232Y14996644D01*
X101472232Y14996644D02*
X101351280Y15057120D01*
X101351280Y15057120D02*
X101109375Y15057120D01*
X101109375Y15057120D02*
X100988423Y14996644D01*
X100383661Y14210453D02*
X100383661Y15057120D01*
X100383661Y15480453D02*
X100444137Y15419977D01*
X100444137Y15419977D02*
X100383661Y15359501D01*
X100383661Y15359501D02*
X100323184Y15419977D01*
X100323184Y15419977D02*
X100383661Y15480453D01*
X100383661Y15480453D02*
X100383661Y15359501D01*
X99839375Y14270929D02*
X99718422Y14210453D01*
X99718422Y14210453D02*
X99476518Y14210453D01*
X99476518Y14210453D02*
X99355565Y14270929D01*
X99355565Y14270929D02*
X99295089Y14391882D01*
X99295089Y14391882D02*
X99295089Y14452358D01*
X99295089Y14452358D02*
X99355565Y14573310D01*
X99355565Y14573310D02*
X99476518Y14633787D01*
X99476518Y14633787D02*
X99657946Y14633787D01*
X99657946Y14633787D02*
X99778899Y14694263D01*
X99778899Y14694263D02*
X99839375Y14815215D01*
X99839375Y14815215D02*
X99839375Y14875691D01*
X99839375Y14875691D02*
X99778899Y14996644D01*
X99778899Y14996644D02*
X99657946Y15057120D01*
X99657946Y15057120D02*
X99476518Y15057120D01*
X99476518Y15057120D02*
X99355565Y14996644D01*
X98932232Y15057120D02*
X98448423Y15057120D01*
X98750804Y15480453D02*
X98750804Y14391882D01*
X98750804Y14391882D02*
X98690327Y14270929D01*
X98690327Y14270929D02*
X98569375Y14210453D01*
X98569375Y14210453D02*
X98448423Y14210453D01*
X98025090Y14210453D02*
X98025090Y15057120D01*
X98025090Y14815215D02*
X97964613Y14936168D01*
X97964613Y14936168D02*
X97904137Y14996644D01*
X97904137Y14996644D02*
X97783185Y15057120D01*
X97783185Y15057120D02*
X97662232Y15057120D01*
X97238900Y14210453D02*
X97238900Y15057120D01*
X97238900Y15480453D02*
X97299376Y15419977D01*
X97299376Y15419977D02*
X97238900Y15359501D01*
X97238900Y15359501D02*
X97178423Y15419977D01*
X97178423Y15419977D02*
X97238900Y15480453D01*
X97238900Y15480453D02*
X97238900Y15359501D01*
X96634138Y14210453D02*
X96634138Y15480453D01*
X96634138Y14996644D02*
X96513185Y15057120D01*
X96513185Y15057120D02*
X96271280Y15057120D01*
X96271280Y15057120D02*
X96150328Y14996644D01*
X96150328Y14996644D02*
X96089852Y14936168D01*
X96089852Y14936168D02*
X96029376Y14815215D01*
X96029376Y14815215D02*
X96029376Y14452358D01*
X96029376Y14452358D02*
X96089852Y14331406D01*
X96089852Y14331406D02*
X96150328Y14270929D01*
X96150328Y14270929D02*
X96271280Y14210453D01*
X96271280Y14210453D02*
X96513185Y14210453D01*
X96513185Y14210453D02*
X96634138Y14270929D01*
X94940804Y15057120D02*
X94940804Y14210453D01*
X95485090Y15057120D02*
X95485090Y14391882D01*
X95485090Y14391882D02*
X95424613Y14270929D01*
X95424613Y14270929D02*
X95303661Y14210453D01*
X95303661Y14210453D02*
X95122232Y14210453D01*
X95122232Y14210453D02*
X95001280Y14270929D01*
X95001280Y14270929D02*
X94940804Y14331406D01*
X94517470Y15057120D02*
X94033661Y15057120D01*
X94336042Y15480453D02*
X94336042Y14391882D01*
X94336042Y14391882D02*
X94275565Y14270929D01*
X94275565Y14270929D02*
X94154613Y14210453D01*
X94154613Y14210453D02*
X94033661Y14210453D01*
X93610328Y14210453D02*
X93610328Y15057120D01*
X93610328Y15480453D02*
X93670804Y15419977D01*
X93670804Y15419977D02*
X93610328Y15359501D01*
X93610328Y15359501D02*
X93549851Y15419977D01*
X93549851Y15419977D02*
X93610328Y15480453D01*
X93610328Y15480453D02*
X93610328Y15359501D01*
X92824137Y14210453D02*
X92945089Y14270929D01*
X92945089Y14270929D02*
X93005566Y14331406D01*
X93005566Y14331406D02*
X93066042Y14452358D01*
X93066042Y14452358D02*
X93066042Y14815215D01*
X93066042Y14815215D02*
X93005566Y14936168D01*
X93005566Y14936168D02*
X92945089Y14996644D01*
X92945089Y14996644D02*
X92824137Y15057120D01*
X92824137Y15057120D02*
X92642708Y15057120D01*
X92642708Y15057120D02*
X92521756Y14996644D01*
X92521756Y14996644D02*
X92461280Y14936168D01*
X92461280Y14936168D02*
X92400804Y14815215D01*
X92400804Y14815215D02*
X92400804Y14452358D01*
X92400804Y14452358D02*
X92461280Y14331406D01*
X92461280Y14331406D02*
X92521756Y14270929D01*
X92521756Y14270929D02*
X92642708Y14210453D01*
X92642708Y14210453D02*
X92824137Y14210453D01*
X91856518Y15057120D02*
X91856518Y14210453D01*
X91856518Y14936168D02*
X91796041Y14996644D01*
X91796041Y14996644D02*
X91675089Y15057120D01*
X91675089Y15057120D02*
X91493660Y15057120D01*
X91493660Y15057120D02*
X91372708Y14996644D01*
X91372708Y14996644D02*
X91312232Y14875691D01*
X91312232Y14875691D02*
X91312232Y14210453D01*
X156566041Y12165824D02*
X156566041Y13012491D01*
X156566041Y12891539D02*
X156505564Y12952015D01*
X156505564Y12952015D02*
X156384612Y13012491D01*
X156384612Y13012491D02*
X156203183Y13012491D01*
X156203183Y13012491D02*
X156082231Y12952015D01*
X156082231Y12952015D02*
X156021755Y12831062D01*
X156021755Y12831062D02*
X156021755Y12165824D01*
X156021755Y12831062D02*
X155961279Y12952015D01*
X155961279Y12952015D02*
X155840326Y13012491D01*
X155840326Y13012491D02*
X155658898Y13012491D01*
X155658898Y13012491D02*
X155537945Y12952015D01*
X155537945Y12952015D02*
X155477469Y12831062D01*
X155477469Y12831062D02*
X155477469Y12165824D01*
X154328422Y13012491D02*
X154328422Y12165824D01*
X154872708Y13012491D02*
X154872708Y12347253D01*
X154872708Y12347253D02*
X154812231Y12226300D01*
X154812231Y12226300D02*
X154691279Y12165824D01*
X154691279Y12165824D02*
X154509850Y12165824D01*
X154509850Y12165824D02*
X154388898Y12226300D01*
X154388898Y12226300D02*
X154328422Y12286777D01*
X153784136Y12226300D02*
X153663183Y12165824D01*
X153663183Y12165824D02*
X153421279Y12165824D01*
X153421279Y12165824D02*
X153300326Y12226300D01*
X153300326Y12226300D02*
X153239850Y12347253D01*
X153239850Y12347253D02*
X153239850Y12407729D01*
X153239850Y12407729D02*
X153300326Y12528681D01*
X153300326Y12528681D02*
X153421279Y12589158D01*
X153421279Y12589158D02*
X153602707Y12589158D01*
X153602707Y12589158D02*
X153723660Y12649634D01*
X153723660Y12649634D02*
X153784136Y12770586D01*
X153784136Y12770586D02*
X153784136Y12831062D01*
X153784136Y12831062D02*
X153723660Y12952015D01*
X153723660Y12952015D02*
X153602707Y13012491D01*
X153602707Y13012491D02*
X153421279Y13012491D01*
X153421279Y13012491D02*
X153300326Y12952015D01*
X152876993Y13012491D02*
X152393184Y13012491D01*
X152695565Y13435824D02*
X152695565Y12347253D01*
X152695565Y12347253D02*
X152635088Y12226300D01*
X152635088Y12226300D02*
X152514136Y12165824D01*
X152514136Y12165824D02*
X152393184Y12165824D01*
X150457946Y12226300D02*
X150578898Y12165824D01*
X150578898Y12165824D02*
X150820803Y12165824D01*
X150820803Y12165824D02*
X150941755Y12226300D01*
X150941755Y12226300D02*
X151002232Y12286777D01*
X151002232Y12286777D02*
X151062708Y12407729D01*
X151062708Y12407729D02*
X151062708Y12770586D01*
X151062708Y12770586D02*
X151002232Y12891539D01*
X151002232Y12891539D02*
X150941755Y12952015D01*
X150941755Y12952015D02*
X150820803Y13012491D01*
X150820803Y13012491D02*
X150578898Y13012491D01*
X150578898Y13012491D02*
X150457946Y12952015D01*
X149732232Y12165824D02*
X149853184Y12226300D01*
X149853184Y12226300D02*
X149913661Y12286777D01*
X149913661Y12286777D02*
X149974137Y12407729D01*
X149974137Y12407729D02*
X149974137Y12770586D01*
X149974137Y12770586D02*
X149913661Y12891539D01*
X149913661Y12891539D02*
X149853184Y12952015D01*
X149853184Y12952015D02*
X149732232Y13012491D01*
X149732232Y13012491D02*
X149550803Y13012491D01*
X149550803Y13012491D02*
X149429851Y12952015D01*
X149429851Y12952015D02*
X149369375Y12891539D01*
X149369375Y12891539D02*
X149308899Y12770586D01*
X149308899Y12770586D02*
X149308899Y12407729D01*
X149308899Y12407729D02*
X149369375Y12286777D01*
X149369375Y12286777D02*
X149429851Y12226300D01*
X149429851Y12226300D02*
X149550803Y12165824D01*
X149550803Y12165824D02*
X149732232Y12165824D01*
X148764613Y12165824D02*
X148764613Y13012491D01*
X148764613Y12891539D02*
X148704136Y12952015D01*
X148704136Y12952015D02*
X148583184Y13012491D01*
X148583184Y13012491D02*
X148401755Y13012491D01*
X148401755Y13012491D02*
X148280803Y12952015D01*
X148280803Y12952015D02*
X148220327Y12831062D01*
X148220327Y12831062D02*
X148220327Y12165824D01*
X148220327Y12831062D02*
X148159851Y12952015D01*
X148159851Y12952015D02*
X148038898Y13012491D01*
X148038898Y13012491D02*
X147857470Y13012491D01*
X147857470Y13012491D02*
X147736517Y12952015D01*
X147736517Y12952015D02*
X147676041Y12831062D01*
X147676041Y12831062D02*
X147676041Y12165824D01*
X147071280Y13012491D02*
X147071280Y11742491D01*
X147071280Y12952015D02*
X146950327Y13012491D01*
X146950327Y13012491D02*
X146708422Y13012491D01*
X146708422Y13012491D02*
X146587470Y12952015D01*
X146587470Y12952015D02*
X146526994Y12891539D01*
X146526994Y12891539D02*
X146466518Y12770586D01*
X146466518Y12770586D02*
X146466518Y12407729D01*
X146466518Y12407729D02*
X146526994Y12286777D01*
X146526994Y12286777D02*
X146587470Y12226300D01*
X146587470Y12226300D02*
X146708422Y12165824D01*
X146708422Y12165824D02*
X146950327Y12165824D01*
X146950327Y12165824D02*
X147071280Y12226300D01*
X145740803Y12165824D02*
X145861755Y12226300D01*
X145861755Y12226300D02*
X145922232Y12347253D01*
X145922232Y12347253D02*
X145922232Y13435824D01*
X145377946Y13012491D02*
X145075565Y12165824D01*
X144773184Y13012491D02*
X145075565Y12165824D01*
X145075565Y12165824D02*
X145196517Y11863443D01*
X145196517Y11863443D02*
X145256994Y11802967D01*
X145256994Y11802967D02*
X145377946Y11742491D01*
X143442708Y13012491D02*
X143200803Y12165824D01*
X143200803Y12165824D02*
X142958898Y12770586D01*
X142958898Y12770586D02*
X142716994Y12165824D01*
X142716994Y12165824D02*
X142475089Y13012491D01*
X141991280Y12165824D02*
X141991280Y13012491D01*
X141991280Y13435824D02*
X142051756Y13375348D01*
X142051756Y13375348D02*
X141991280Y13314872D01*
X141991280Y13314872D02*
X141930803Y13375348D01*
X141930803Y13375348D02*
X141991280Y13435824D01*
X141991280Y13435824D02*
X141991280Y13314872D01*
X141567946Y13012491D02*
X141084137Y13012491D01*
X141386518Y13435824D02*
X141386518Y12347253D01*
X141386518Y12347253D02*
X141326041Y12226300D01*
X141326041Y12226300D02*
X141205089Y12165824D01*
X141205089Y12165824D02*
X141084137Y12165824D01*
X140660804Y12165824D02*
X140660804Y13435824D01*
X140116518Y12165824D02*
X140116518Y12831062D01*
X140116518Y12831062D02*
X140176994Y12952015D01*
X140176994Y12952015D02*
X140297946Y13012491D01*
X140297946Y13012491D02*
X140479375Y13012491D01*
X140479375Y13012491D02*
X140600327Y12952015D01*
X140600327Y12952015D02*
X140660804Y12891539D01*
X138725565Y13012491D02*
X138241756Y13012491D01*
X138544137Y13435824D02*
X138544137Y12347253D01*
X138544137Y12347253D02*
X138483660Y12226300D01*
X138483660Y12226300D02*
X138362708Y12165824D01*
X138362708Y12165824D02*
X138241756Y12165824D01*
X137818423Y12165824D02*
X137818423Y13435824D01*
X137274137Y12165824D02*
X137274137Y12831062D01*
X137274137Y12831062D02*
X137334613Y12952015D01*
X137334613Y12952015D02*
X137455565Y13012491D01*
X137455565Y13012491D02*
X137636994Y13012491D01*
X137636994Y13012491D02*
X137757946Y12952015D01*
X137757946Y12952015D02*
X137818423Y12891539D01*
X136185565Y12226300D02*
X136306517Y12165824D01*
X136306517Y12165824D02*
X136548422Y12165824D01*
X136548422Y12165824D02*
X136669375Y12226300D01*
X136669375Y12226300D02*
X136729851Y12347253D01*
X136729851Y12347253D02*
X136729851Y12831062D01*
X136729851Y12831062D02*
X136669375Y12952015D01*
X136669375Y12952015D02*
X136548422Y13012491D01*
X136548422Y13012491D02*
X136306517Y13012491D01*
X136306517Y13012491D02*
X136185565Y12952015D01*
X136185565Y12952015D02*
X136125089Y12831062D01*
X136125089Y12831062D02*
X136125089Y12710110D01*
X136125089Y12710110D02*
X136729851Y12589158D01*
X134794613Y13012491D02*
X134310804Y13012491D01*
X134613185Y13435824D02*
X134613185Y12347253D01*
X134613185Y12347253D02*
X134552708Y12226300D01*
X134552708Y12226300D02*
X134431756Y12165824D01*
X134431756Y12165824D02*
X134310804Y12165824D01*
X133403661Y12226300D02*
X133524613Y12165824D01*
X133524613Y12165824D02*
X133766518Y12165824D01*
X133766518Y12165824D02*
X133887471Y12226300D01*
X133887471Y12226300D02*
X133947947Y12347253D01*
X133947947Y12347253D02*
X133947947Y12831062D01*
X133947947Y12831062D02*
X133887471Y12952015D01*
X133887471Y12952015D02*
X133766518Y13012491D01*
X133766518Y13012491D02*
X133524613Y13012491D01*
X133524613Y13012491D02*
X133403661Y12952015D01*
X133403661Y12952015D02*
X133343185Y12831062D01*
X133343185Y12831062D02*
X133343185Y12710110D01*
X133343185Y12710110D02*
X133947947Y12589158D01*
X132798900Y12165824D02*
X132798900Y13012491D01*
X132798900Y12770586D02*
X132738423Y12891539D01*
X132738423Y12891539D02*
X132677947Y12952015D01*
X132677947Y12952015D02*
X132556995Y13012491D01*
X132556995Y13012491D02*
X132436042Y13012491D01*
X132012710Y12165824D02*
X132012710Y13012491D01*
X132012710Y12891539D02*
X131952233Y12952015D01*
X131952233Y12952015D02*
X131831281Y13012491D01*
X131831281Y13012491D02*
X131649852Y13012491D01*
X131649852Y13012491D02*
X131528900Y12952015D01*
X131528900Y12952015D02*
X131468424Y12831062D01*
X131468424Y12831062D02*
X131468424Y12165824D01*
X131468424Y12831062D02*
X131407948Y12952015D01*
X131407948Y12952015D02*
X131286995Y13012491D01*
X131286995Y13012491D02*
X131105567Y13012491D01*
X131105567Y13012491D02*
X130984614Y12952015D01*
X130984614Y12952015D02*
X130924138Y12831062D01*
X130924138Y12831062D02*
X130924138Y12165824D01*
X130379853Y12226300D02*
X130258900Y12165824D01*
X130258900Y12165824D02*
X130016996Y12165824D01*
X130016996Y12165824D02*
X129896043Y12226300D01*
X129896043Y12226300D02*
X129835567Y12347253D01*
X129835567Y12347253D02*
X129835567Y12407729D01*
X129835567Y12407729D02*
X129896043Y12528681D01*
X129896043Y12528681D02*
X130016996Y12589158D01*
X130016996Y12589158D02*
X130198424Y12589158D01*
X130198424Y12589158D02*
X130319377Y12649634D01*
X130319377Y12649634D02*
X130379853Y12770586D01*
X130379853Y12770586D02*
X130379853Y12831062D01*
X130379853Y12831062D02*
X130319377Y12952015D01*
X130319377Y12952015D02*
X130198424Y13012491D01*
X130198424Y13012491D02*
X130016996Y13012491D01*
X130016996Y13012491D02*
X129896043Y12952015D01*
X128142234Y12165824D02*
X128263186Y12226300D01*
X128263186Y12226300D02*
X128323663Y12286777D01*
X128323663Y12286777D02*
X128384139Y12407729D01*
X128384139Y12407729D02*
X128384139Y12770586D01*
X128384139Y12770586D02*
X128323663Y12891539D01*
X128323663Y12891539D02*
X128263186Y12952015D01*
X128263186Y12952015D02*
X128142234Y13012491D01*
X128142234Y13012491D02*
X127960805Y13012491D01*
X127960805Y13012491D02*
X127839853Y12952015D01*
X127839853Y12952015D02*
X127779377Y12891539D01*
X127779377Y12891539D02*
X127718901Y12770586D01*
X127718901Y12770586D02*
X127718901Y12407729D01*
X127718901Y12407729D02*
X127779377Y12286777D01*
X127779377Y12286777D02*
X127839853Y12226300D01*
X127839853Y12226300D02*
X127960805Y12165824D01*
X127960805Y12165824D02*
X128142234Y12165824D01*
X127356043Y13012491D02*
X126872234Y13012491D01*
X127174615Y12165824D02*
X127174615Y13254396D01*
X127174615Y13254396D02*
X127114138Y13375348D01*
X127114138Y13375348D02*
X126993186Y13435824D01*
X126993186Y13435824D02*
X126872234Y13435824D01*
X125662710Y13012491D02*
X125178901Y13012491D01*
X125481282Y13435824D02*
X125481282Y12347253D01*
X125481282Y12347253D02*
X125420805Y12226300D01*
X125420805Y12226300D02*
X125299853Y12165824D01*
X125299853Y12165824D02*
X125178901Y12165824D01*
X124755568Y12165824D02*
X124755568Y13435824D01*
X124211282Y12165824D02*
X124211282Y12831062D01*
X124211282Y12831062D02*
X124271758Y12952015D01*
X124271758Y12952015D02*
X124392710Y13012491D01*
X124392710Y13012491D02*
X124574139Y13012491D01*
X124574139Y13012491D02*
X124695091Y12952015D01*
X124695091Y12952015D02*
X124755568Y12891539D01*
X123122710Y12226300D02*
X123243662Y12165824D01*
X123243662Y12165824D02*
X123485567Y12165824D01*
X123485567Y12165824D02*
X123606520Y12226300D01*
X123606520Y12226300D02*
X123666996Y12347253D01*
X123666996Y12347253D02*
X123666996Y12831062D01*
X123666996Y12831062D02*
X123606520Y12952015D01*
X123606520Y12952015D02*
X123485567Y13012491D01*
X123485567Y13012491D02*
X123243662Y13012491D01*
X123243662Y13012491D02*
X123122710Y12952015D01*
X123122710Y12952015D02*
X123062234Y12831062D01*
X123062234Y12831062D02*
X123062234Y12710110D01*
X123062234Y12710110D02*
X123666996Y12589158D01*
X120824615Y12286777D02*
X120885091Y12226300D01*
X120885091Y12226300D02*
X121066520Y12165824D01*
X121066520Y12165824D02*
X121187472Y12165824D01*
X121187472Y12165824D02*
X121368901Y12226300D01*
X121368901Y12226300D02*
X121489853Y12347253D01*
X121489853Y12347253D02*
X121550330Y12468205D01*
X121550330Y12468205D02*
X121610806Y12710110D01*
X121610806Y12710110D02*
X121610806Y12891539D01*
X121610806Y12891539D02*
X121550330Y13133443D01*
X121550330Y13133443D02*
X121489853Y13254396D01*
X121489853Y13254396D02*
X121368901Y13375348D01*
X121368901Y13375348D02*
X121187472Y13435824D01*
X121187472Y13435824D02*
X121066520Y13435824D01*
X121066520Y13435824D02*
X120885091Y13375348D01*
X120885091Y13375348D02*
X120824615Y13314872D01*
X120280330Y12831062D02*
X119856996Y12831062D01*
X119675568Y12165824D02*
X120280330Y12165824D01*
X120280330Y12165824D02*
X120280330Y13435824D01*
X120280330Y13435824D02*
X119675568Y13435824D01*
X118405567Y12165824D02*
X118828901Y12770586D01*
X119131282Y12165824D02*
X119131282Y13435824D01*
X119131282Y13435824D02*
X118647472Y13435824D01*
X118647472Y13435824D02*
X118526520Y13375348D01*
X118526520Y13375348D02*
X118466043Y13314872D01*
X118466043Y13314872D02*
X118405567Y13193920D01*
X118405567Y13193920D02*
X118405567Y13012491D01*
X118405567Y13012491D02*
X118466043Y12891539D01*
X118466043Y12891539D02*
X118526520Y12831062D01*
X118526520Y12831062D02*
X118647472Y12770586D01*
X118647472Y12770586D02*
X119131282Y12770586D01*
X117861282Y12165824D02*
X117861282Y13435824D01*
X117861282Y13435824D02*
X117135567Y12165824D01*
X117135567Y12165824D02*
X117135567Y13435824D01*
X116530806Y12649634D02*
X115563187Y12649634D01*
X114716520Y13435824D02*
X114474615Y13435824D01*
X114474615Y13435824D02*
X114353663Y13375348D01*
X114353663Y13375348D02*
X114232710Y13254396D01*
X114232710Y13254396D02*
X114172234Y13012491D01*
X114172234Y13012491D02*
X114172234Y12589158D01*
X114172234Y12589158D02*
X114232710Y12347253D01*
X114232710Y12347253D02*
X114353663Y12226300D01*
X114353663Y12226300D02*
X114474615Y12165824D01*
X114474615Y12165824D02*
X114716520Y12165824D01*
X114716520Y12165824D02*
X114837472Y12226300D01*
X114837472Y12226300D02*
X114958425Y12347253D01*
X114958425Y12347253D02*
X115018901Y12589158D01*
X115018901Y12589158D02*
X115018901Y13012491D01*
X115018901Y13012491D02*
X114958425Y13254396D01*
X114958425Y13254396D02*
X114837472Y13375348D01*
X114837472Y13375348D02*
X114716520Y13435824D01*
X113627949Y12165824D02*
X113627949Y13435824D01*
X113627949Y12831062D02*
X112902234Y12831062D01*
X112902234Y12165824D02*
X112902234Y13435824D01*
X111692711Y12165824D02*
X112297473Y12165824D01*
X112297473Y12165824D02*
X112297473Y13435824D01*
X111269378Y12649634D02*
X110301759Y12649634D01*
X109757473Y12226300D02*
X109576044Y12165824D01*
X109576044Y12165824D02*
X109273663Y12165824D01*
X109273663Y12165824D02*
X109152711Y12226300D01*
X109152711Y12226300D02*
X109092235Y12286777D01*
X109092235Y12286777D02*
X109031758Y12407729D01*
X109031758Y12407729D02*
X109031758Y12528681D01*
X109031758Y12528681D02*
X109092235Y12649634D01*
X109092235Y12649634D02*
X109152711Y12710110D01*
X109152711Y12710110D02*
X109273663Y12770586D01*
X109273663Y12770586D02*
X109515568Y12831062D01*
X109515568Y12831062D02*
X109636520Y12891539D01*
X109636520Y12891539D02*
X109696997Y12952015D01*
X109696997Y12952015D02*
X109757473Y13072967D01*
X109757473Y13072967D02*
X109757473Y13193920D01*
X109757473Y13193920D02*
X109696997Y13314872D01*
X109696997Y13314872D02*
X109636520Y13375348D01*
X109636520Y13375348D02*
X109515568Y13435824D01*
X109515568Y13435824D02*
X109213187Y13435824D01*
X109213187Y13435824D02*
X109031758Y13375348D01*
X108487473Y12649634D02*
X107519854Y12649634D01*
X106975568Y13314872D02*
X106915092Y13375348D01*
X106915092Y13375348D02*
X106794139Y13435824D01*
X106794139Y13435824D02*
X106491758Y13435824D01*
X106491758Y13435824D02*
X106370806Y13375348D01*
X106370806Y13375348D02*
X106310330Y13314872D01*
X106310330Y13314872D02*
X106249853Y13193920D01*
X106249853Y13193920D02*
X106249853Y13072967D01*
X106249853Y13072967D02*
X106310330Y12891539D01*
X106310330Y12891539D02*
X107036044Y12165824D01*
X107036044Y12165824D02*
X106249853Y12165824D01*
X105705568Y12286777D02*
X105645091Y12226300D01*
X105645091Y12226300D02*
X105705568Y12165824D01*
X105705568Y12165824D02*
X105766044Y12226300D01*
X105766044Y12226300D02*
X105705568Y12286777D01*
X105705568Y12286777D02*
X105705568Y12165824D01*
X104858901Y13435824D02*
X104737948Y13435824D01*
X104737948Y13435824D02*
X104616996Y13375348D01*
X104616996Y13375348D02*
X104556520Y13314872D01*
X104556520Y13314872D02*
X104496044Y13193920D01*
X104496044Y13193920D02*
X104435567Y12952015D01*
X104435567Y12952015D02*
X104435567Y12649634D01*
X104435567Y12649634D02*
X104496044Y12407729D01*
X104496044Y12407729D02*
X104556520Y12286777D01*
X104556520Y12286777D02*
X104616996Y12226300D01*
X104616996Y12226300D02*
X104737948Y12165824D01*
X104737948Y12165824D02*
X104858901Y12165824D01*
X104858901Y12165824D02*
X104979853Y12226300D01*
X104979853Y12226300D02*
X105040329Y12286777D01*
X105040329Y12286777D02*
X105100806Y12407729D01*
X105100806Y12407729D02*
X105161282Y12649634D01*
X105161282Y12649634D02*
X105161282Y12952015D01*
X105161282Y12952015D02*
X105100806Y13193920D01*
X105100806Y13193920D02*
X105040329Y13314872D01*
X105040329Y13314872D02*
X104979853Y13375348D01*
X104979853Y13375348D02*
X104858901Y13435824D01*
X102742234Y12165824D02*
X102863186Y12226300D01*
X102863186Y12226300D02*
X102923663Y12347253D01*
X102923663Y12347253D02*
X102923663Y13435824D01*
X102258425Y12165824D02*
X102258425Y13012491D01*
X102258425Y13435824D02*
X102318901Y13375348D01*
X102318901Y13375348D02*
X102258425Y13314872D01*
X102258425Y13314872D02*
X102197948Y13375348D01*
X102197948Y13375348D02*
X102258425Y13435824D01*
X102258425Y13435824D02*
X102258425Y13314872D01*
X101109377Y12226300D02*
X101230329Y12165824D01*
X101230329Y12165824D02*
X101472234Y12165824D01*
X101472234Y12165824D02*
X101593186Y12226300D01*
X101593186Y12226300D02*
X101653663Y12286777D01*
X101653663Y12286777D02*
X101714139Y12407729D01*
X101714139Y12407729D02*
X101714139Y12770586D01*
X101714139Y12770586D02*
X101653663Y12891539D01*
X101653663Y12891539D02*
X101593186Y12952015D01*
X101593186Y12952015D02*
X101472234Y13012491D01*
X101472234Y13012491D02*
X101230329Y13012491D01*
X101230329Y13012491D02*
X101109377Y12952015D01*
X100081282Y12226300D02*
X100202234Y12165824D01*
X100202234Y12165824D02*
X100444139Y12165824D01*
X100444139Y12165824D02*
X100565092Y12226300D01*
X100565092Y12226300D02*
X100625568Y12347253D01*
X100625568Y12347253D02*
X100625568Y12831062D01*
X100625568Y12831062D02*
X100565092Y12952015D01*
X100565092Y12952015D02*
X100444139Y13012491D01*
X100444139Y13012491D02*
X100202234Y13012491D01*
X100202234Y13012491D02*
X100081282Y12952015D01*
X100081282Y12952015D02*
X100020806Y12831062D01*
X100020806Y12831062D02*
X100020806Y12710110D01*
X100020806Y12710110D02*
X100625568Y12589158D01*
X99476521Y13012491D02*
X99476521Y12165824D01*
X99476521Y12891539D02*
X99416044Y12952015D01*
X99416044Y12952015D02*
X99295092Y13012491D01*
X99295092Y13012491D02*
X99113663Y13012491D01*
X99113663Y13012491D02*
X98992711Y12952015D01*
X98992711Y12952015D02*
X98932235Y12831062D01*
X98932235Y12831062D02*
X98932235Y12165824D01*
X98387949Y12226300D02*
X98266996Y12165824D01*
X98266996Y12165824D02*
X98025092Y12165824D01*
X98025092Y12165824D02*
X97904139Y12226300D01*
X97904139Y12226300D02*
X97843663Y12347253D01*
X97843663Y12347253D02*
X97843663Y12407729D01*
X97843663Y12407729D02*
X97904139Y12528681D01*
X97904139Y12528681D02*
X98025092Y12589158D01*
X98025092Y12589158D02*
X98206520Y12589158D01*
X98206520Y12589158D02*
X98327473Y12649634D01*
X98327473Y12649634D02*
X98387949Y12770586D01*
X98387949Y12770586D02*
X98387949Y12831062D01*
X98387949Y12831062D02*
X98327473Y12952015D01*
X98327473Y12952015D02*
X98206520Y13012491D01*
X98206520Y13012491D02*
X98025092Y13012491D01*
X98025092Y13012491D02*
X97904139Y12952015D01*
X96815568Y12226300D02*
X96936520Y12165824D01*
X96936520Y12165824D02*
X97178425Y12165824D01*
X97178425Y12165824D02*
X97299378Y12226300D01*
X97299378Y12226300D02*
X97359854Y12347253D01*
X97359854Y12347253D02*
X97359854Y12831062D01*
X97359854Y12831062D02*
X97299378Y12952015D01*
X97299378Y12952015D02*
X97178425Y13012491D01*
X97178425Y13012491D02*
X96936520Y13012491D01*
X96936520Y13012491D02*
X96815568Y12952015D01*
X96815568Y12952015D02*
X96755092Y12831062D01*
X96755092Y12831062D02*
X96755092Y12710110D01*
X96755092Y12710110D02*
X97359854Y12589158D01*
X96210807Y12286777D02*
X96150330Y12226300D01*
X96150330Y12226300D02*
X96210807Y12165824D01*
X96210807Y12165824D02*
X96271283Y12226300D01*
X96271283Y12226300D02*
X96210807Y12286777D01*
X96210807Y12286777D02*
X96210807Y12165824D01*
D11*
%TO.C,G1*%
G36*
X161219860Y24051691D02*
G01*
X161250176Y24046909D01*
X161335976Y24040032D01*
X161430040Y24038536D01*
X161563791Y24041237D01*
X161563791Y23223069D01*
X161361597Y23223069D01*
X161354419Y23521715D01*
X161351960Y23615669D01*
X161347772Y23713318D01*
X161340998Y23776186D01*
X161329638Y23813788D01*
X161311694Y23835641D01*
X161285164Y23851259D01*
X161238020Y23867511D01*
X161174486Y23856148D01*
X161159339Y23849242D01*
X161116266Y23849751D01*
X161064597Y23887715D01*
X161062300Y23889897D01*
X161020559Y23939623D01*
X161003310Y23979695D01*
X161020218Y24010625D01*
X161072967Y24039413D01*
X161145157Y24054978D01*
X161219860Y24051691D01*
G37*
G36*
X164977633Y21974724D02*
G01*
X164803806Y21974724D01*
X164795183Y22257065D01*
X164790646Y22376632D01*
X164784100Y22464259D01*
X164773982Y22520234D01*
X164758436Y22554525D01*
X164735607Y22577102D01*
X164694677Y22596987D01*
X164610138Y22600224D01*
X164541022Y22600662D01*
X164476386Y22641298D01*
X164456371Y22661344D01*
X164420062Y22717952D01*
X164431649Y22758110D01*
X164491315Y22782042D01*
X164599245Y22789970D01*
X164614208Y22789701D01*
X164692521Y22780921D01*
X164750020Y22763597D01*
X164783703Y22750237D01*
X164799298Y22763597D01*
X164800069Y22767061D01*
X164829532Y22783347D01*
X164888466Y22789970D01*
X164977633Y22789970D01*
X164977633Y21974724D01*
G37*
G36*
X161742126Y21974724D02*
G01*
X161563791Y21974724D01*
X161563791Y22251016D01*
X161563002Y22363512D01*
X161559239Y22452326D01*
X161550873Y22509814D01*
X161536286Y22546397D01*
X161513858Y22572498D01*
X161457095Y22603667D01*
X161378694Y22601699D01*
X161327833Y22595930D01*
X161282362Y22611170D01*
X161237483Y22661429D01*
X161225295Y22677998D01*
X161198048Y22720704D01*
X161200259Y22743713D01*
X161230851Y22763559D01*
X161251692Y22772258D01*
X161324787Y22786287D01*
X161409781Y22788631D01*
X161486113Y22779574D01*
X161533220Y22759398D01*
X161556272Y22741674D01*
X161563791Y22759398D01*
X161564006Y22761748D01*
X161590864Y22782120D01*
X161652959Y22789970D01*
X161742126Y22789970D01*
X161742126Y21974724D01*
G37*
G36*
X161894985Y23770813D02*
G01*
X161895623Y23672003D01*
X161899269Y23580541D01*
X161907707Y23520713D01*
X161922682Y23481618D01*
X161945938Y23452357D01*
X161994140Y23414003D01*
X162050344Y23406094D01*
X162118604Y23441064D01*
X162126617Y23446876D01*
X162148970Y23468935D01*
X162163187Y23500991D01*
X162171089Y23553283D01*
X162174495Y23636047D01*
X162175226Y23759519D01*
X162175226Y24038315D01*
X162384277Y24038315D01*
X162375288Y23725075D01*
X162373085Y23661704D01*
X162362879Y23513665D01*
X162344825Y23406016D01*
X162316398Y23331096D01*
X162275073Y23281242D01*
X162218324Y23248790D01*
X162206306Y23244358D01*
X162115700Y23227161D01*
X162019532Y23228877D01*
X161944263Y23249442D01*
X161910580Y23262802D01*
X161894985Y23249442D01*
X161894214Y23245978D01*
X161864751Y23229692D01*
X161805818Y23223069D01*
X161716650Y23223069D01*
X161716650Y24038315D01*
X161894985Y24038315D01*
X161894985Y23770813D01*
G37*
G36*
X164746126Y24030503D02*
G01*
X164757086Y24025264D01*
X164805225Y24009065D01*
X164824774Y24014791D01*
X164825542Y24017873D01*
X164854998Y24032405D01*
X164913942Y24038315D01*
X165003109Y24038315D01*
X165003109Y23223069D01*
X164824774Y23223069D01*
X164824774Y23484903D01*
X164824664Y23515130D01*
X164819321Y23656672D01*
X164804033Y23755404D01*
X164776142Y23817851D01*
X164732989Y23850535D01*
X164671916Y23859980D01*
X164659597Y23859708D01*
X164601913Y23846598D01*
X164561676Y23809086D01*
X164536227Y23740648D01*
X164522907Y23634762D01*
X164519057Y23484903D01*
X164519057Y23223069D01*
X164336774Y23223069D01*
X164345117Y23566495D01*
X164345354Y23576183D01*
X164349205Y23712427D01*
X164354087Y23807925D01*
X164361730Y23872299D01*
X164373864Y23915173D01*
X164392218Y23946168D01*
X164418521Y23974908D01*
X164430133Y23985812D01*
X164527626Y24041599D01*
X164638926Y24057509D01*
X164746126Y24030503D01*
G37*
G36*
X160784225Y24037309D02*
G01*
X160886591Y23984443D01*
X160963498Y23902952D01*
X161013011Y23789041D01*
X161028786Y23642177D01*
X161028560Y23623349D01*
X161007048Y23472134D01*
X160951923Y23353177D01*
X160865229Y23271110D01*
X160820663Y23249123D01*
X160701070Y23223874D01*
X160576356Y23234461D01*
X160467667Y23280391D01*
X160423092Y23312901D01*
X160380267Y23359754D01*
X160381740Y23399331D01*
X160425556Y23438991D01*
X160431790Y23443037D01*
X160475207Y23464753D01*
X160516622Y23462620D01*
X160579322Y23436218D01*
X160606778Y23424721D01*
X160699673Y23411997D01*
X160774975Y23443679D01*
X160825487Y23517394D01*
X160843604Y23582641D01*
X160845125Y23683981D01*
X160816555Y23769610D01*
X160764695Y23832508D01*
X160696348Y23865658D01*
X160618315Y23862042D01*
X160537398Y23814643D01*
X160533717Y23811378D01*
X160501483Y23790462D01*
X160470955Y23799078D01*
X160424300Y23841452D01*
X160408749Y23857108D01*
X160375763Y23896487D01*
X160375239Y23924817D01*
X160403938Y23961139D01*
X160444964Y23996893D01*
X160547310Y24042757D01*
X160665764Y24056488D01*
X160784225Y24037309D01*
G37*
G36*
X163158260Y23557953D02*
G01*
X163145387Y23471830D01*
X163119115Y23385109D01*
X163075943Y23323281D01*
X163007953Y23271241D01*
X162914159Y23233204D01*
X162792344Y23225766D01*
X162673346Y23255818D01*
X162574728Y23321328D01*
X162549013Y23347988D01*
X162518200Y23389094D01*
X162500316Y23436997D01*
X162490827Y23506416D01*
X162485204Y23612066D01*
X162484278Y23636604D01*
X162659278Y23636604D01*
X162659897Y23609873D01*
X162676425Y23527835D01*
X162721811Y23463937D01*
X162723659Y23462097D01*
X162786270Y23413056D01*
X162842172Y23406740D01*
X162908374Y23441064D01*
X162915839Y23446528D01*
X162946560Y23481208D01*
X162961239Y23533966D01*
X162964995Y23621073D01*
X162964986Y23626583D01*
X162958145Y23740082D01*
X162935561Y23811753D01*
X162892798Y23849189D01*
X162825423Y23859980D01*
X162796107Y23858069D01*
X162720089Y23825129D01*
X162674480Y23751309D01*
X162659278Y23636604D01*
X162484278Y23636604D01*
X162484006Y23643797D01*
X162482891Y23742030D01*
X162489558Y23808952D01*
X162506694Y23860081D01*
X162536987Y23910933D01*
X162609529Y23986768D01*
X162715651Y24040947D01*
X162833360Y24058523D01*
X162949100Y24037751D01*
X163049315Y23976885D01*
X163077918Y23945080D01*
X163132112Y23839523D01*
X163160025Y23706125D01*
X163159012Y23621073D01*
X163158260Y23557953D01*
G37*
G36*
X165792319Y23636243D02*
G01*
X165792325Y23630954D01*
X165774450Y23475951D01*
X165721892Y23356782D01*
X165635184Y23274675D01*
X165599115Y23256163D01*
X165479562Y23226745D01*
X165350543Y23231256D01*
X165233358Y23269949D01*
X165184640Y23298236D01*
X165144611Y23336097D01*
X165147981Y23374668D01*
X165191866Y23424704D01*
X165236116Y23461760D01*
X165269521Y23467239D01*
X165312668Y23442343D01*
X165380455Y23411842D01*
X165462267Y23402610D01*
X165527931Y23420902D01*
X165552250Y23445423D01*
X165586150Y23496941D01*
X165616336Y23554263D01*
X165105015Y23554263D01*
X165105015Y23656987D01*
X165116677Y23758074D01*
X165308827Y23758074D01*
X165325472Y23746465D01*
X165381155Y23736432D01*
X165463189Y23732598D01*
X165493024Y23732719D01*
X165567692Y23736900D01*
X165597682Y23751935D01*
X165587845Y23784400D01*
X165543029Y23840873D01*
X165511281Y23867204D01*
X165457737Y23885456D01*
X165431199Y23879699D01*
X165376360Y23847386D01*
X165328996Y23801222D01*
X165308827Y23758074D01*
X165116677Y23758074D01*
X165118533Y23774162D01*
X165168250Y23895374D01*
X165247937Y23986747D01*
X165350629Y24043014D01*
X165469360Y24058907D01*
X165597164Y24029158D01*
X165652438Y23996701D01*
X165727319Y23908964D01*
X165775137Y23786412D01*
X165779082Y23751935D01*
X165792319Y23636243D01*
G37*
G36*
X167313811Y23504191D02*
G01*
X167288856Y23394177D01*
X167243504Y23316523D01*
X167174655Y23262950D01*
X167151682Y23252869D01*
X167071116Y23232618D01*
X166980905Y23224089D01*
X166941784Y23224459D01*
X166876138Y23233901D01*
X166822245Y23263169D01*
X166757986Y23321978D01*
X166715975Y23365065D01*
X166683300Y23407803D01*
X166666442Y23454264D01*
X166660220Y23520190D01*
X166659611Y23600525D01*
X166843620Y23600525D01*
X166844082Y23595866D01*
X166865291Y23492329D01*
X166902644Y23435342D01*
X166960528Y23405594D01*
X167031859Y23405992D01*
X167089873Y23448723D01*
X167128864Y23528894D01*
X167143129Y23641611D01*
X167139739Y23711293D01*
X167116327Y23797527D01*
X167067374Y23845274D01*
X166989038Y23859980D01*
X166940131Y23852611D01*
X166878568Y23807063D01*
X166845914Y23722170D01*
X166843620Y23600525D01*
X166659611Y23600525D01*
X166659453Y23621326D01*
X166660148Y23674383D01*
X166670005Y23795407D01*
X166695377Y23883065D01*
X166741174Y23949781D01*
X166812307Y24007975D01*
X166867684Y24040409D01*
X166936221Y24058723D01*
X167026905Y24056603D01*
X167104882Y24044392D01*
X167171648Y24013687D01*
X167237086Y23952801D01*
X167267246Y23918851D01*
X167297523Y23875429D01*
X167313738Y23827301D01*
X167320261Y23759055D01*
X167321464Y23655278D01*
X167321464Y23654841D01*
X167320792Y23641611D01*
X167313811Y23504191D01*
G37*
G36*
X160340923Y23622540D02*
G01*
X160340402Y23594291D01*
X160316118Y23445981D01*
X160256268Y23331959D01*
X160161823Y23254222D01*
X160126357Y23240115D01*
X160028051Y23225917D01*
X159917643Y23232607D01*
X159815473Y23257980D01*
X159741880Y23299824D01*
X159677144Y23360640D01*
X159738976Y23422472D01*
X159740373Y23423868D01*
X159784485Y23462867D01*
X159816987Y23467954D01*
X159859984Y23442854D01*
X159945387Y23406939D01*
X160035983Y23409751D01*
X160111635Y23452357D01*
X160120515Y23461392D01*
X160152831Y23501798D01*
X160153895Y23528673D01*
X160118807Y23544633D01*
X160042663Y23552291D01*
X159920562Y23554263D01*
X159678536Y23554263D01*
X159678536Y23703686D01*
X159680535Y23758074D01*
X159856871Y23758074D01*
X159873107Y23746569D01*
X159928308Y23736465D01*
X160009729Y23732598D01*
X160078762Y23735304D01*
X160139382Y23744504D01*
X160162588Y23758074D01*
X160155922Y23781031D01*
X160117679Y23828143D01*
X160062407Y23868403D01*
X160009729Y23885456D01*
X159982181Y23879902D01*
X159925646Y23848032D01*
X159877335Y23801972D01*
X159856871Y23758074D01*
X159680535Y23758074D01*
X159681327Y23779612D01*
X159697427Y23859924D01*
X159731738Y23920744D01*
X159805646Y23993107D01*
X159917761Y24048078D01*
X160040323Y24056146D01*
X160107276Y24042640D01*
X160212724Y23992180D01*
X160285380Y23907412D01*
X160327396Y23785233D01*
X160329654Y23758074D01*
X160340923Y23622540D01*
G37*
G36*
X162560237Y22190583D02*
G01*
X162535315Y22094918D01*
X162479104Y22019820D01*
X162470636Y22013367D01*
X162432265Y21994777D01*
X162374815Y21983445D01*
X162287691Y21977942D01*
X162160297Y21976839D01*
X161894985Y21977930D01*
X161894985Y22241596D01*
X162098796Y22241596D01*
X162111371Y22190517D01*
X162164146Y22152429D01*
X162212851Y22135584D01*
X162254700Y22131736D01*
X162302608Y22145753D01*
X162350492Y22167825D01*
X162386677Y22207510D01*
X162377606Y22257640D01*
X162356747Y22282879D01*
X162309057Y22300906D01*
X162225282Y22305918D01*
X162174787Y22305328D01*
X162123848Y22298888D01*
X162102879Y22279862D01*
X162098796Y22241596D01*
X161894985Y22241596D01*
X161894985Y22270124D01*
X161896846Y22400445D01*
X161907822Y22545042D01*
X161932355Y22649585D01*
X161974637Y22720211D01*
X162038858Y22763058D01*
X162129208Y22784265D01*
X162249878Y22789970D01*
X162329209Y22786815D01*
X162407048Y22770024D01*
X162468312Y22734381D01*
X162538983Y22678792D01*
X162469179Y22618749D01*
X162410955Y22580597D01*
X162370099Y22581491D01*
X162325971Y22607378D01*
X162248091Y22624706D01*
X162174709Y22614378D01*
X162120164Y22579480D01*
X162098796Y22523098D01*
X162098839Y22515554D01*
X162103382Y22483649D01*
X162123736Y22466690D01*
X162171613Y22459970D01*
X162258725Y22458776D01*
X162289985Y22458325D01*
X162402987Y22446419D01*
X162474842Y22419420D01*
X162516925Y22376824D01*
X162554048Y22290118D01*
X162559184Y22207510D01*
X162560237Y22190583D01*
G37*
G36*
X164429869Y22350563D02*
G01*
X164428598Y22244834D01*
X164423309Y22174643D01*
X164411174Y22127544D01*
X164389368Y22091087D01*
X164355063Y22052826D01*
X164314351Y22014777D01*
X164252402Y21982804D01*
X164168684Y21974724D01*
X164143465Y21975346D01*
X164063911Y21984496D01*
X164007854Y22001097D01*
X163974171Y22014457D01*
X163958576Y22001097D01*
X163957804Y21997633D01*
X163928342Y21981347D01*
X163869408Y21974724D01*
X163780241Y21974724D01*
X163780241Y22382347D01*
X163958576Y22382347D01*
X163959694Y22353417D01*
X163973576Y22270211D01*
X163998235Y22209681D01*
X164037912Y22173174D01*
X164098321Y22153059D01*
X164142467Y22158186D01*
X164197987Y22193531D01*
X164229107Y22266626D01*
X164238817Y22382347D01*
X164235675Y22454392D01*
X164214017Y22545002D01*
X164169229Y22595790D01*
X164098321Y22611635D01*
X164072402Y22608547D01*
X164012098Y22569651D01*
X163972690Y22491844D01*
X163958576Y22382347D01*
X163780241Y22382347D01*
X163780241Y23121164D01*
X163958576Y23121164D01*
X163958576Y22929194D01*
X163958739Y22873371D01*
X163961022Y22799266D01*
X163968166Y22762326D01*
X163982875Y22753466D01*
X164007854Y22763597D01*
X164021111Y22769285D01*
X164087403Y22784051D01*
X164168684Y22789970D01*
X164225886Y22786989D01*
X164292560Y22765062D01*
X164355063Y22711868D01*
X164364516Y22701930D01*
X164395588Y22665228D01*
X164414835Y22627366D01*
X164425083Y22575897D01*
X164429159Y22498374D01*
X164429890Y22382347D01*
X164429869Y22350563D01*
G37*
G36*
X165781180Y22141984D02*
G01*
X165719138Y22049922D01*
X165705821Y22036754D01*
X165671990Y22007843D01*
X165635311Y21990123D01*
X165583761Y21980983D01*
X165505314Y21977812D01*
X165387944Y21977997D01*
X165130492Y21979813D01*
X165130492Y22261334D01*
X165309217Y22261334D01*
X165311479Y22237762D01*
X165328324Y22188105D01*
X165340973Y22174103D01*
X165395282Y22149362D01*
X165466360Y22141981D01*
X165537640Y22150643D01*
X165592557Y22174032D01*
X165614544Y22210834D01*
X165598130Y22259319D01*
X165537204Y22294284D01*
X165431113Y22305918D01*
X165429085Y22305917D01*
X165354424Y22302325D01*
X165318396Y22288901D01*
X165309217Y22261334D01*
X165130492Y22261334D01*
X165130492Y22641031D01*
X165205772Y22716311D01*
X165250637Y22756113D01*
X165295710Y22778290D01*
X165357885Y22787892D01*
X165454057Y22789970D01*
X165498692Y22789032D01*
X165614719Y22775112D01*
X165694527Y22746857D01*
X165734447Y22707255D01*
X165730808Y22659296D01*
X165679941Y22605968D01*
X165644716Y22583305D01*
X165602621Y22576393D01*
X165545932Y22598816D01*
X165483710Y22620092D01*
X165403539Y22619341D01*
X165342451Y22587020D01*
X165313503Y22527154D01*
X165311499Y22508541D01*
X165313902Y22479854D01*
X165334656Y22465071D01*
X165384631Y22459582D01*
X165474691Y22458776D01*
X165562860Y22456940D01*
X165626459Y22447470D01*
X165672502Y22425033D01*
X165718409Y22384307D01*
X165757840Y22336200D01*
X165794076Y22239915D01*
X165790246Y22210834D01*
X165781180Y22141984D01*
G37*
G36*
X161207121Y22382347D02*
G01*
X161206960Y22363882D01*
X161190514Y22222183D01*
X161144234Y22113540D01*
X161064074Y22027927D01*
X161046277Y22015779D01*
X160953724Y21982563D01*
X160840197Y21973019D01*
X160725024Y21987260D01*
X160627533Y22025398D01*
X160593022Y22047880D01*
X160552207Y22088817D01*
X160557732Y22125922D01*
X160608401Y22168124D01*
X160610959Y22169795D01*
X160656920Y22194195D01*
X160698082Y22193751D01*
X160759124Y22168530D01*
X160763110Y22166658D01*
X160842574Y22141788D01*
X160910457Y22151658D01*
X160960449Y22182651D01*
X161008710Y22237282D01*
X161028786Y22291505D01*
X161017752Y22295693D01*
X160965805Y22300967D01*
X160880967Y22304578D01*
X160774022Y22305918D01*
X160519258Y22305918D01*
X160519866Y22375978D01*
X160531872Y22495142D01*
X160723069Y22495142D01*
X160723090Y22494048D01*
X160737848Y22473079D01*
X160785907Y22462009D01*
X160875928Y22458776D01*
X160945478Y22460959D01*
X161005640Y22468137D01*
X161028786Y22478584D01*
X161027628Y22488222D01*
X161000973Y22538964D01*
X160953037Y22589372D01*
X160902487Y22618734D01*
X160858042Y22616292D01*
X160796192Y22587281D01*
X160744634Y22542374D01*
X160723069Y22495142D01*
X160531872Y22495142D01*
X160532015Y22496562D01*
X160575264Y22625111D01*
X160645689Y22719910D01*
X160645954Y22720147D01*
X160705141Y22763916D01*
X160768922Y22784701D01*
X160860156Y22789970D01*
X160942722Y22783369D01*
X161058337Y22741290D01*
X161140968Y22660396D01*
X161190577Y22540733D01*
X161197069Y22478584D01*
X161207121Y22382347D01*
G37*
G36*
X163569327Y24063197D02*
G01*
X163697138Y24042416D01*
X163795899Y23987159D01*
X163859579Y23902476D01*
X163882147Y23793415D01*
X163882080Y23786397D01*
X163863620Y23693968D01*
X163809482Y23627082D01*
X163715387Y23582421D01*
X163577059Y23556664D01*
X163537809Y23552038D01*
X163472515Y23539065D01*
X163440242Y23518791D01*
X163428286Y23485103D01*
X163427729Y23480764D01*
X163437271Y23436111D01*
X163486545Y23412046D01*
X163579635Y23405264D01*
X163681087Y23426033D01*
X163760429Y23470221D01*
X163768481Y23477391D01*
X163799681Y23496750D01*
X163829888Y23486671D01*
X163876744Y23443029D01*
X163896648Y23422736D01*
X163927448Y23385331D01*
X163925940Y23361171D01*
X163894885Y23333612D01*
X163839095Y23297124D01*
X163767503Y23259593D01*
X163695157Y23236491D01*
X163573214Y23224417D01*
X163451672Y23237201D01*
X163352991Y23274059D01*
X163278101Y23335365D01*
X163230489Y23426101D01*
X163229795Y23536077D01*
X163247656Y23597753D01*
X163295607Y23664039D01*
X163376652Y23706341D01*
X163498987Y23730580D01*
X163499051Y23730587D01*
X163610056Y23748762D01*
X163672967Y23772449D01*
X163690512Y23803506D01*
X163665415Y23843784D01*
X163625092Y23871690D01*
X163541181Y23881691D01*
X163438597Y23846478D01*
X163388383Y23823996D01*
X163350165Y23827311D01*
X163304845Y23863814D01*
X163302957Y23865600D01*
X163262126Y23910727D01*
X163245236Y23942096D01*
X163245305Y23943323D01*
X163269987Y23970795D01*
X163328798Y24002304D01*
X163406722Y24032067D01*
X163488741Y24054304D01*
X163559841Y24063232D01*
X163569327Y24063197D01*
G37*
G36*
X162710572Y22789818D02*
G01*
X162733212Y22781393D01*
X162752339Y22758327D01*
X162771471Y22713754D01*
X162794129Y22640810D01*
X162823834Y22532630D01*
X162864104Y22382347D01*
X162894957Y22267703D01*
X162975212Y22522468D01*
X162990765Y22571625D01*
X163023082Y22669024D01*
X163048119Y22730086D01*
X163071291Y22763778D01*
X163098013Y22779068D01*
X163133700Y22784923D01*
X163151822Y22786546D01*
X163182500Y22784861D01*
X163205612Y22768931D01*
X163226706Y22730116D01*
X163251333Y22659774D01*
X163285041Y22549266D01*
X163306616Y22479507D01*
X163336486Y22390002D01*
X163359800Y22328672D01*
X163372807Y22305918D01*
X163379260Y22315367D01*
X163397153Y22364206D01*
X163421529Y22445267D01*
X163449047Y22547944D01*
X163510630Y22789970D01*
X163607221Y22789970D01*
X163625356Y22789560D01*
X163681284Y22781678D01*
X163703812Y22766929D01*
X163703302Y22763176D01*
X163692291Y22721374D01*
X163669417Y22644285D01*
X163638007Y22542335D01*
X163601389Y22425950D01*
X163562889Y22305556D01*
X163525836Y22191578D01*
X163493556Y22094441D01*
X163469376Y22024572D01*
X163456625Y21992396D01*
X163456208Y21991770D01*
X163423411Y21980053D01*
X163364120Y21979658D01*
X163353171Y21980797D01*
X163318987Y21988121D01*
X163293617Y22007098D01*
X163271386Y22047071D01*
X163246619Y22117384D01*
X163213640Y22227378D01*
X163194097Y22293396D01*
X163166394Y22384511D01*
X163146008Y22448422D01*
X163136344Y22474254D01*
X163130457Y22463608D01*
X163112848Y22413649D01*
X163087044Y22331821D01*
X163056250Y22227970D01*
X162983115Y21974724D01*
X162814217Y21974724D01*
X162685795Y22371356D01*
X162655702Y22464603D01*
X162616611Y22586771D01*
X162585447Y22685431D01*
X162564827Y22752272D01*
X162557372Y22778979D01*
X162559252Y22781123D01*
X162592813Y22787432D01*
X162655101Y22789970D01*
X162680897Y22790467D01*
X162710572Y22789818D01*
G37*
G36*
X166531695Y21974724D02*
G01*
X166353360Y21974724D01*
X166353360Y22246590D01*
X166353262Y22276286D01*
X166348437Y22415058D01*
X166334447Y22511212D01*
X166308654Y22571514D01*
X166268421Y22602733D01*
X166211111Y22611635D01*
X166188842Y22610784D01*
X166139771Y22597419D01*
X166106442Y22562192D01*
X166086076Y22497885D01*
X166075895Y22397276D01*
X166073119Y22253145D01*
X166073119Y21974724D01*
X165864191Y21974724D01*
X165873119Y22308024D01*
X165882046Y22641324D01*
X165965247Y22715647D01*
X165988341Y22734033D01*
X166090175Y22780998D01*
X166201952Y22791777D01*
X166304082Y22763597D01*
X166314458Y22758367D01*
X166332793Y22754852D01*
X166344227Y22770028D01*
X166350383Y22811959D01*
X166352887Y22888711D01*
X166353360Y23008349D01*
X166353345Y23033783D01*
X166352388Y23145262D01*
X166348898Y23215436D01*
X166341431Y23252460D01*
X166328539Y23264489D01*
X166308776Y23259676D01*
X166297886Y23255564D01*
X166235324Y23240469D01*
X166156479Y23228953D01*
X166087782Y23226458D01*
X166031648Y23244073D01*
X165974149Y23292643D01*
X165936280Y23336985D01*
X165901448Y23409511D01*
X165881505Y23511558D01*
X165874467Y23622793D01*
X165876577Y23674485D01*
X166072500Y23674485D01*
X166075329Y23579671D01*
X166091281Y23496355D01*
X166119709Y23443567D01*
X166167205Y23411859D01*
X166235221Y23408313D01*
X166305263Y23455213D01*
X166319884Y23470999D01*
X166343436Y23511949D01*
X166351676Y23569061D01*
X166348193Y23659403D01*
X166340854Y23726138D01*
X166326080Y23798682D01*
X166309034Y23838067D01*
X166293892Y23849529D01*
X166229868Y23865514D01*
X166158901Y23854928D01*
X166106952Y23820081D01*
X166083438Y23761767D01*
X166072500Y23674485D01*
X165876577Y23674485D01*
X165879624Y23749136D01*
X165896574Y23861813D01*
X165923531Y23942515D01*
X165937858Y23963896D01*
X166007458Y24018597D01*
X166100545Y24050785D01*
X166197498Y24052576D01*
X166220165Y24049184D01*
X166313779Y24040965D01*
X166410682Y24038729D01*
X166531695Y24040887D01*
X166531695Y23569061D01*
X166531695Y21974724D01*
G37*
G36*
X163998139Y29599444D02*
G01*
X164073220Y29199088D01*
X164327984Y29090965D01*
X164412712Y29055693D01*
X164508241Y29017765D01*
X164579300Y28991720D01*
X164614766Y28981792D01*
X164621711Y28983507D01*
X164666020Y29006319D01*
X164740433Y29051558D01*
X164836546Y29113983D01*
X164945959Y29188354D01*
X164983501Y29214250D01*
X165091672Y29287118D01*
X165185122Y29347573D01*
X165254904Y29389927D01*
X165292074Y29408491D01*
X165305249Y29408498D01*
X165346229Y29388899D01*
X165409270Y29340367D01*
X165498213Y29259774D01*
X165616899Y29143992D01*
X165670060Y29090584D01*
X165759020Y28999158D01*
X165830286Y28923224D01*
X165877620Y28869500D01*
X165894784Y28844705D01*
X165891551Y28836165D01*
X165865673Y28791217D01*
X165818117Y28716152D01*
X165753949Y28618863D01*
X165678235Y28507246D01*
X165641326Y28453124D01*
X165570359Y28346575D01*
X165513374Y28257633D01*
X165475455Y28194339D01*
X165461685Y28164736D01*
X165464309Y28150501D01*
X165483321Y28093736D01*
X165516195Y28009652D01*
X165557537Y27910698D01*
X165601954Y27809324D01*
X165644054Y27717979D01*
X165678444Y27649113D01*
X165699732Y27615175D01*
X165718358Y27605501D01*
X165780875Y27586232D01*
X165873507Y27564458D01*
X165983952Y27543289D01*
X166045282Y27532607D01*
X166169650Y27510253D01*
X166280606Y27489478D01*
X166359729Y27473696D01*
X166480742Y27447934D01*
X166480742Y26615657D01*
X166359729Y26589894D01*
X166329697Y26583685D01*
X166233668Y26564879D01*
X166114761Y26542534D01*
X165991973Y26520248D01*
X165925427Y26508005D01*
X165827716Y26488375D01*
X165756088Y26471855D01*
X165722627Y26461100D01*
X165722182Y26460763D01*
X165703804Y26430430D01*
X165671713Y26362728D01*
X165630305Y26267389D01*
X165583976Y26154145D01*
X165467929Y25862453D01*
X165681357Y25551801D01*
X165715948Y25501169D01*
X165786538Y25395907D01*
X165843274Y25308623D01*
X165881057Y25247254D01*
X165894784Y25219737D01*
X165890193Y25211225D01*
X165856978Y25170983D01*
X165796927Y25105193D01*
X165716298Y25020622D01*
X165621347Y24924037D01*
X165571982Y24875090D01*
X165478875Y24786000D01*
X165399815Y24714525D01*
X165341932Y24666998D01*
X165312358Y24649749D01*
X165305149Y24651491D01*
X165259591Y24674125D01*
X165183801Y24718842D01*
X165086367Y24780439D01*
X164975877Y24853709D01*
X164674949Y25057668D01*
X164522744Y24974722D01*
X164520924Y24973731D01*
X164443366Y24934202D01*
X164384964Y24909349D01*
X164358235Y24904514D01*
X164357563Y24905486D01*
X164342404Y24937699D01*
X164310789Y25010037D01*
X164265312Y25116394D01*
X164208569Y25250667D01*
X164143155Y25406750D01*
X164071665Y25578540D01*
X163797400Y26239828D01*
X163870271Y26291880D01*
X163987315Y26383865D01*
X164132535Y26532104D01*
X164231926Y26684259D01*
X164260535Y26746691D01*
X164286757Y26826760D01*
X164299296Y26914646D01*
X164302508Y27031795D01*
X164300439Y27132818D01*
X164290223Y27220588D01*
X164267241Y27297453D01*
X164226912Y27384804D01*
X164146731Y27513647D01*
X164016222Y27650058D01*
X163863784Y27748787D01*
X163696446Y27809835D01*
X163521236Y27833200D01*
X163345182Y27818885D01*
X163175312Y27766887D01*
X163018654Y27677208D01*
X162882237Y27549847D01*
X162773089Y27384804D01*
X162737133Y27308263D01*
X162712056Y27231229D01*
X162700370Y27146204D01*
X162697493Y27031795D01*
X162698939Y26946240D01*
X162708176Y26851712D01*
X162729769Y26771534D01*
X162768074Y26684259D01*
X162827478Y26584806D01*
X162957353Y26434580D01*
X163129729Y26291880D01*
X163202601Y26239828D01*
X162928335Y25578540D01*
X162917805Y25553163D01*
X162847027Y25383251D01*
X162782698Y25229922D01*
X162727411Y25099278D01*
X162683763Y24997426D01*
X162654349Y24930470D01*
X162641765Y24904514D01*
X162641607Y24904367D01*
X162614050Y24909698D01*
X162555094Y24934931D01*
X162477256Y24974722D01*
X162325051Y25057668D01*
X162024123Y24853709D01*
X161984463Y24827030D01*
X161877687Y24757272D01*
X161787060Y24701005D01*
X161721142Y24663430D01*
X161688493Y24649749D01*
X161682915Y24651568D01*
X161645038Y24678796D01*
X161582347Y24732771D01*
X161502656Y24805865D01*
X161413782Y24890454D01*
X161323540Y24978911D01*
X161239747Y25063609D01*
X161170218Y25136921D01*
X161122769Y25191223D01*
X161105216Y25218886D01*
X161108027Y25226579D01*
X161133095Y25270432D01*
X161179956Y25344561D01*
X161243507Y25441004D01*
X161318644Y25551801D01*
X161532071Y25862453D01*
X161416024Y26154145D01*
X161413844Y26159618D01*
X161367645Y26272251D01*
X161326570Y26366530D01*
X161295014Y26432724D01*
X161277374Y26461100D01*
X161262408Y26466757D01*
X161204457Y26481310D01*
X161115635Y26500025D01*
X161008027Y26520248D01*
X160954908Y26529785D01*
X160831484Y26552540D01*
X160720274Y26573775D01*
X160640271Y26589894D01*
X160519258Y26615657D01*
X160519258Y27447934D01*
X160640271Y27473696D01*
X160674618Y27480734D01*
X160771928Y27499433D01*
X160891878Y27521422D01*
X161016048Y27543289D01*
X161088945Y27556764D01*
X161189263Y27578679D01*
X161263804Y27599187D01*
X161300268Y27615175D01*
X161308922Y27626975D01*
X161337426Y27679908D01*
X161376339Y27761553D01*
X161420270Y27859462D01*
X161463826Y27961184D01*
X161501614Y28054270D01*
X161528241Y28126271D01*
X161538315Y28164736D01*
X161535146Y28174004D01*
X161509340Y28220516D01*
X161461786Y28296922D01*
X161397566Y28395179D01*
X161321765Y28507246D01*
X161284485Y28561841D01*
X161213654Y28667600D01*
X161156788Y28755259D01*
X161118953Y28816926D01*
X161105216Y28844705D01*
X161110353Y28854085D01*
X161144572Y28895325D01*
X161205595Y28961868D01*
X161287184Y29046997D01*
X161383102Y29143992D01*
X161445132Y29205237D01*
X161548785Y29303411D01*
X161624574Y29367926D01*
X161676340Y29401910D01*
X161707926Y29408491D01*
X161716074Y29405328D01*
X161765037Y29378254D01*
X161843649Y29329274D01*
X161942966Y29264078D01*
X162054041Y29188354D01*
X162094251Y29160659D01*
X162199864Y29089966D01*
X162289166Y29033098D01*
X162353757Y28995293D01*
X162385235Y28981792D01*
X162409617Y28988057D01*
X162473910Y29010970D01*
X162565083Y29046684D01*
X162672016Y29090965D01*
X162926780Y29199088D01*
X163001861Y29599444D01*
X163076941Y29999799D01*
X163923059Y29999799D01*
X163998139Y29599444D01*
G37*
%TD*%
M02*
