M48
; DRILL file {KiCad 8.0.3} date 2024-08-03T11:38:56-0500
; FORMAT={-:-/ absolute / inch / decimal}
; #@! TF.CreationDate,2024-08-03T11:38:56-05:00
; #@! TF.GenerationSoftware,Kicad,Pcbnew,8.0.3
; #@! TF.FileFunction,MixedPlating,1,2
FMAT,2
INCH
; #@! TA.AperFunction,Plated,PTH,ViaDrill
T1C0.0250
; #@! TA.AperFunction,Plated,PTH,ComponentDrill
T2C0.0433
; #@! TA.AperFunction,Plated,PTH,ComponentDrill
T3C0.0559
; #@! TA.AperFunction,Plated,PTH,ComponentDrill
T4C0.0669
; #@! TA.AperFunction,NonPlated,NPTH,ComponentDrill
T5C0.1260
; #@! TA.AperFunction,NonPlated,NPTH,ComponentDrill
T6C0.1496
%
G90
G05
T1
X0.8071Y0.8268
X0.8089Y0.4935
X1.5157Y0.4724
X1.5157Y0.0787
X1.5551Y1.3386
X1.5991Y0.8074
X1.7913Y0.4724
X1.9291Y1.2992
X2.1654Y0.0591
T2
X2.5Y1.4173
X2.5Y0.1575
X2.8937Y1.4173
X2.8937Y0.1575
X3.2874Y1.4173
X3.2874Y0.1575
X3.6811Y1.4173
X3.6811Y0.1575
X4.0748Y1.4173
X4.0748Y0.1575
X4.4685Y1.4173
X4.4685Y0.1575
X4.8622Y1.4173
X4.8622Y0.1575
X5.2559Y1.4173
X5.2559Y0.1575
X5.6496Y1.4173
X5.6496Y0.1575
X6.0433Y1.4173
X6.0433Y0.1575
X6.437Y1.4173
X6.437Y0.1575
T3
X1.9783Y0.8898
X1.9783Y0.689
X2.1752Y0.7894
T4
X0.0965Y1.2628
X0.0965Y1.062
X0.0965Y0.5128
X0.0965Y0.312
X0.2972Y1.2628
X0.2972Y1.062
X0.2972Y0.5128
X0.2972Y0.312
T5
X0.5709Y1.378
X0.5709Y0.1969
X6.7913Y1.378
X6.7913Y0.1969
T6
X1.3484Y0.7894
M30
