%TF.GenerationSoftware,KiCad,Pcbnew,8.0.3*%
%TF.CreationDate,2024-08-03T11:38:59-05:00*%
%TF.ProjectId,1024 Capacitor Discharger,31303234-2043-4617-9061-6369746f7220,rev?*%
%TF.SameCoordinates,PX4153a20PY6dac2c0*%
%TF.FileFunction,Copper,L2,Bot*%
%TF.FilePolarity,Positive*%
%FSLAX46Y46*%
G04 Gerber Fmt 4.6, Leading zero omitted, Abs format (unit mm)*
G04 Created by KiCad (PCBNEW 8.0.3) date 2024-08-03 11:38:59*
%MOMM*%
%LPD*%
G01*
G04 APERTURE LIST*
%TA.AperFunction,ComponentPad*%
%ADD10C,2.550000*%
%TD*%
%TA.AperFunction,ComponentPad*%
%ADD11R,2.130000X2.130000*%
%TD*%
%TA.AperFunction,ComponentPad*%
%ADD12C,2.130000*%
%TD*%
%TA.AperFunction,ComponentPad*%
%ADD13C,1.900000*%
%TD*%
%TA.AperFunction,ViaPad*%
%ADD14C,0.889000*%
%TD*%
%TA.AperFunction,Conductor*%
%ADD15C,0.889000*%
%TD*%
G04 APERTURE END LIST*
D10*
%TO.P,J1,1*%
%TO.N,/Input_B*%
X2450000Y13025000D03*
X2450000Y7925000D03*
X7550000Y13025000D03*
X7550000Y7925000D03*
%TD*%
D11*
%TO.P,Q1,1,G*%
%TO.N,/IGBTg*%
X50250000Y17500000D03*
D12*
%TO.P,Q1,2,C*%
%TO.N,/IGBTc*%
X55250000Y20050000D03*
%TO.P,Q1,3,E*%
%TO.N,/IGBTe*%
X50250000Y22600000D03*
%TD*%
D13*
%TO.P,R11,1*%
%TO.N,Net-(R11-Pad1)*%
X133500000Y36000000D03*
%TO.P,R11,2*%
%TO.N,Net-(R10-Pad2)*%
X133500000Y4000000D03*
%TD*%
%TO.P,R4,1*%
%TO.N,/Vcapdisch*%
X63500000Y36000000D03*
%TO.P,R4,2*%
%TO.N,Net-(R4-Pad2)*%
X63500000Y4000000D03*
%TD*%
%TO.P,R14,1*%
%TO.N,Net-(R13-Pad1)*%
X163500000Y36000000D03*
%TO.P,R14,2*%
%TO.N,GND*%
X163500000Y4000000D03*
%TD*%
%TO.P,R8,1*%
%TO.N,Net-(R7-Pad1)*%
X103500000Y36000000D03*
%TO.P,R8,2*%
%TO.N,Net-(R8-Pad2)*%
X103500000Y4000000D03*
%TD*%
%TO.P,R10,1*%
%TO.N,Net-(R10-Pad1)*%
X123500000Y36000000D03*
%TO.P,R10,2*%
%TO.N,Net-(R10-Pad2)*%
X123500000Y4000000D03*
%TD*%
%TO.P,R6,1*%
%TO.N,Net-(R5-Pad1)*%
X83500000Y36000000D03*
%TO.P,R6,2*%
%TO.N,Net-(R6-Pad2)*%
X83500000Y4000000D03*
%TD*%
%TO.P,R13,1*%
%TO.N,Net-(R13-Pad1)*%
X153500000Y36000000D03*
%TO.P,R13,2*%
%TO.N,Net-(R12-Pad2)*%
X153500000Y4000000D03*
%TD*%
%TO.P,R7,1*%
%TO.N,Net-(R7-Pad1)*%
X93500000Y36000000D03*
%TO.P,R7,2*%
%TO.N,Net-(R6-Pad2)*%
X93500000Y4000000D03*
%TD*%
D10*
%TO.P,J2,1*%
%TO.N,/Input_R*%
X2450000Y32075000D03*
X2450000Y26975000D03*
X7550000Y32075000D03*
X7550000Y26975000D03*
%TD*%
D13*
%TO.P,R5,1*%
%TO.N,Net-(R5-Pad1)*%
X73500000Y36000000D03*
%TO.P,R5,2*%
%TO.N,Net-(R4-Pad2)*%
X73500000Y4000000D03*
%TD*%
%TO.P,R9,1*%
%TO.N,Net-(R10-Pad1)*%
X113500000Y36000000D03*
%TO.P,R9,2*%
%TO.N,Net-(R8-Pad2)*%
X113500000Y4000000D03*
%TD*%
%TO.P,R12,1*%
%TO.N,Net-(R11-Pad1)*%
X143500000Y36000000D03*
%TO.P,R12,2*%
%TO.N,Net-(R12-Pad2)*%
X143500000Y4000000D03*
%TD*%
D14*
%TO.N,GND*%
X38500000Y2000000D03*
X55000000Y1500000D03*
%TO.N,/Vcap*%
X39500000Y34000000D03*
X45500000Y12000000D03*
X49000000Y33000000D03*
%TO.N,/Input_R*%
X20546991Y12535344D03*
X20500000Y21000000D03*
%TO.N,/IGBTe*%
X40617243Y20508832D03*
X38500000Y12000000D03*
%TD*%
D15*
%TO.N,GND*%
X39000000Y1500000D02*
X38500000Y2000000D01*
X55000000Y1500000D02*
X39000000Y1500000D01*
%TO.N,/Vcap*%
X39500000Y34000000D02*
X40500000Y33000000D01*
X45500000Y21000000D02*
X45500000Y12000000D01*
X45500000Y21000000D02*
X40500000Y26000000D01*
X40500000Y26000000D02*
X40500000Y33000000D01*
X40500000Y33000000D02*
X49000000Y33000000D01*
%TO.N,/Input_R*%
X20546991Y12535344D02*
X20546991Y20953009D01*
X20546991Y20953009D02*
X20500000Y21000000D01*
%TO.N,/IGBTe*%
X40617243Y20508832D02*
X40617243Y14117243D01*
X40617243Y14117243D02*
X38500000Y12000000D01*
%TD*%
M02*
