%TF.GenerationSoftware,KiCad,Pcbnew,8.0.3*%
%TF.CreationDate,2024-08-03T11:38:59-05:00*%
%TF.ProjectId,1024 Capacitor Discharger,31303234-2043-4617-9061-6369746f7220,rev?*%
%TF.SameCoordinates,PX4153a20PY6dac2c0*%
%TF.FileFunction,Copper,L1,Top*%
%TF.FilePolarity,Positive*%
%FSLAX46Y46*%
G04 Gerber Fmt 4.6, Leading zero omitted, Abs format (unit mm)*
G04 Created by KiCad (PCBNEW 8.0.3) date 2024-08-03 11:38:59*
%MOMM*%
%LPD*%
G01*
G04 APERTURE LIST*
G04 Aperture macros list*
%AMRoundRect*
0 Rectangle with rounded corners*
0 $1 Rounding radius*
0 $2 $3 $4 $5 $6 $7 $8 $9 X,Y pos of 4 corners*
0 Add a 4 corners polygon primitive as box body*
4,1,4,$2,$3,$4,$5,$6,$7,$8,$9,$2,$3,0*
0 Add four circle primitives for the rounded corners*
1,1,$1+$1,$2,$3*
1,1,$1+$1,$4,$5*
1,1,$1+$1,$6,$7*
1,1,$1+$1,$8,$9*
0 Add four rect primitives between the rounded corners*
20,1,$1+$1,$2,$3,$4,$5,0*
20,1,$1+$1,$4,$5,$6,$7,0*
20,1,$1+$1,$6,$7,$8,$9,0*
20,1,$1+$1,$8,$9,$2,$3,0*%
G04 Aperture macros list end*
%TA.AperFunction,SMDPad,CuDef*%
%ADD10RoundRect,0.090000X-0.660000X0.360000X-0.660000X-0.360000X0.660000X-0.360000X0.660000X0.360000X0*%
%TD*%
%TA.AperFunction,ComponentPad*%
%ADD11C,2.550000*%
%TD*%
%TA.AperFunction,ComponentPad*%
%ADD12R,2.130000X2.130000*%
%TD*%
%TA.AperFunction,ComponentPad*%
%ADD13C,2.130000*%
%TD*%
%TA.AperFunction,SMDPad,CuDef*%
%ADD14C,1.000000*%
%TD*%
%TA.AperFunction,ComponentPad*%
%ADD15C,1.900000*%
%TD*%
%TA.AperFunction,SMDPad,CuDef*%
%ADD16R,1.550000X2.055000*%
%TD*%
%TA.AperFunction,SMDPad,CuDef*%
%ADD17R,2.150000X2.055000*%
%TD*%
%TA.AperFunction,SMDPad,CuDef*%
%ADD18R,2.100000X1.400000*%
%TD*%
%TA.AperFunction,SMDPad,CuDef*%
%ADD19RoundRect,0.250000X1.425000X-0.362500X1.425000X0.362500X-1.425000X0.362500X-1.425000X-0.362500X0*%
%TD*%
%TA.AperFunction,SMDPad,CuDef*%
%ADD20RoundRect,0.250000X-1.425000X0.362500X-1.425000X-0.362500X1.425000X-0.362500X1.425000X0.362500X0*%
%TD*%
%TA.AperFunction,ViaPad*%
%ADD21C,0.889000*%
%TD*%
%TA.AperFunction,Conductor*%
%ADD22C,0.889000*%
%TD*%
G04 APERTURE END LIST*
D10*
%TO.P,D7,1,A1*%
%TO.N,unconnected-(D7-A1-Pad1)*%
X51700000Y7850000D03*
%TO.P,D7,2,K*%
%TO.N,/IGBTc*%
X54800000Y7850000D03*
%TO.P,D7,3,A3*%
%TO.N,unconnected-(D7-A3-Pad3)*%
X54800000Y6150000D03*
%TO.P,D7,4,A2*%
%TO.N,/LED30A*%
X51700000Y6150000D03*
%TD*%
D11*
%TO.P,J1,1*%
%TO.N,/Input_B*%
X2450000Y13025000D03*
X2450000Y7925000D03*
X7550000Y13025000D03*
X7550000Y7925000D03*
%TD*%
D12*
%TO.P,Q1,1,G*%
%TO.N,/IGBTg*%
X50250000Y17500000D03*
D13*
%TO.P,Q1,2,C*%
%TO.N,/IGBTc*%
X55250000Y20050000D03*
%TO.P,Q1,3,E*%
%TO.N,/IGBTe*%
X50250000Y22600000D03*
%TD*%
D14*
%TO.P,FID2,*%
%TO.N,*%
X14500000Y29000000D03*
%TD*%
D15*
%TO.P,R11,1*%
%TO.N,Net-(R11-Pad1)*%
X133500000Y36000000D03*
%TO.P,R11,2*%
%TO.N,Net-(R10-Pad2)*%
X133500000Y4000000D03*
%TD*%
%TO.P,R4,1*%
%TO.N,/Vcapdisch*%
X63500000Y36000000D03*
%TO.P,R4,2*%
%TO.N,Net-(R4-Pad2)*%
X63500000Y4000000D03*
%TD*%
D16*
%TO.P,D2,1,K*%
%TO.N,/Input_R*%
X20500000Y9297500D03*
%TO.P,D2,2,A*%
%TO.N,GND*%
X20500000Y4702500D03*
%TD*%
D17*
%TO.P,D5,1,K*%
%TO.N,/IGBTg*%
X31500000Y9297500D03*
%TO.P,D5,2,A*%
%TO.N,GND*%
X31500000Y4702500D03*
%TD*%
D15*
%TO.P,R14,1*%
%TO.N,Net-(R13-Pad1)*%
X163500000Y36000000D03*
%TO.P,R14,2*%
%TO.N,GND*%
X163500000Y4000000D03*
%TD*%
D18*
%TO.P,D9,1,K*%
%TO.N,/Vcap*%
X36500000Y35200000D03*
%TO.P,D9,2,A*%
%TO.N,/Vcapdisch*%
X36500000Y30800000D03*
%TD*%
D16*
%TO.P,D4,1,K*%
%TO.N,/Vcap*%
X25500000Y35297500D03*
%TO.P,D4,2,A*%
%TO.N,/Input_B*%
X25500000Y30702500D03*
%TD*%
D15*
%TO.P,R8,1*%
%TO.N,Net-(R7-Pad1)*%
X103500000Y36000000D03*
%TO.P,R8,2*%
%TO.N,Net-(R8-Pad2)*%
X103500000Y4000000D03*
%TD*%
%TO.P,R10,1*%
%TO.N,Net-(R10-Pad1)*%
X123500000Y36000000D03*
%TO.P,R10,2*%
%TO.N,Net-(R10-Pad2)*%
X123500000Y4000000D03*
%TD*%
D19*
%TO.P,R3,1*%
%TO.N,/Vcapdisch*%
X44500000Y30037500D03*
%TO.P,R3,2*%
%TO.N,/LEDdischK*%
X44500000Y35962500D03*
%TD*%
D14*
%TO.P,FID3,*%
%TO.N,*%
X170500000Y11000000D03*
%TD*%
D15*
%TO.P,R6,1*%
%TO.N,Net-(R5-Pad1)*%
X83500000Y36000000D03*
%TO.P,R6,2*%
%TO.N,Net-(R6-Pad2)*%
X83500000Y4000000D03*
%TD*%
%TO.P,R13,1*%
%TO.N,Net-(R13-Pad1)*%
X153500000Y36000000D03*
%TO.P,R13,2*%
%TO.N,Net-(R12-Pad2)*%
X153500000Y4000000D03*
%TD*%
%TO.P,R7,1*%
%TO.N,Net-(R7-Pad1)*%
X93500000Y36000000D03*
%TO.P,R7,2*%
%TO.N,Net-(R6-Pad2)*%
X93500000Y4000000D03*
%TD*%
D20*
%TO.P,R1,1*%
%TO.N,/Vcap*%
X30500000Y35962500D03*
%TO.P,R1,2*%
%TO.N,/IGBTg*%
X30500000Y30037500D03*
%TD*%
D11*
%TO.P,J2,1*%
%TO.N,/Input_R*%
X2450000Y32075000D03*
X2450000Y26975000D03*
X7550000Y32075000D03*
X7550000Y26975000D03*
%TD*%
D20*
%TO.P,R2,1*%
%TO.N,/IGBTe*%
X38500000Y9962500D03*
%TO.P,R2,2*%
%TO.N,GND*%
X38500000Y4037500D03*
%TD*%
D15*
%TO.P,R5,1*%
%TO.N,Net-(R5-Pad1)*%
X73500000Y36000000D03*
%TO.P,R5,2*%
%TO.N,Net-(R4-Pad2)*%
X73500000Y4000000D03*
%TD*%
D16*
%TO.P,D1,1,K*%
%TO.N,/Input_B*%
X25500000Y9297500D03*
%TO.P,D1,2,A*%
%TO.N,GND*%
X25500000Y4702500D03*
%TD*%
D10*
%TO.P,D8,1,A1*%
%TO.N,unconnected-(D8-A1-Pad1)*%
X51700000Y33850000D03*
%TO.P,D8,2,K*%
%TO.N,/LEDdischK*%
X54800000Y33850000D03*
%TO.P,D8,3,A3*%
%TO.N,unconnected-(D8-A3-Pad3)*%
X54800000Y32150000D03*
%TO.P,D8,4,A2*%
%TO.N,/Vcap*%
X51700000Y32150000D03*
%TD*%
D14*
%TO.P,FID1,*%
%TO.N,*%
X14500000Y11000000D03*
%TD*%
D15*
%TO.P,R9,1*%
%TO.N,Net-(R10-Pad1)*%
X113500000Y36000000D03*
%TO.P,R9,2*%
%TO.N,Net-(R8-Pad2)*%
X113500000Y4000000D03*
%TD*%
D17*
%TO.P,D6,1,K*%
%TO.N,/Vcap*%
X45500000Y9297500D03*
%TO.P,D6,2,A*%
%TO.N,/LED30A*%
X45500000Y4702500D03*
%TD*%
D16*
%TO.P,D3,1,K*%
%TO.N,/Vcap*%
X20500000Y35297500D03*
%TO.P,D3,2,A*%
%TO.N,/Input_R*%
X20500000Y30702500D03*
%TD*%
D15*
%TO.P,R12,1*%
%TO.N,Net-(R11-Pad1)*%
X143500000Y36000000D03*
%TO.P,R12,2*%
%TO.N,Net-(R12-Pad2)*%
X143500000Y4000000D03*
%TD*%
D21*
%TO.N,GND*%
X38500000Y2000000D03*
X55000000Y1500000D03*
%TO.N,/Vcap*%
X39500000Y34000000D03*
X45500000Y12000000D03*
X49000000Y33000000D03*
%TO.N,/Input_R*%
X20546991Y12535344D03*
X20500000Y21000000D03*
%TO.N,/IGBTe*%
X40617243Y20508832D03*
X38500000Y12000000D03*
%TD*%
D22*
%TO.N,GND*%
X163500000Y4000000D02*
X163500000Y7000000D01*
X38500000Y2000000D02*
X38500000Y4037500D01*
X20500000Y4850000D02*
X25500000Y4850000D01*
X161500000Y9000000D02*
X63218619Y9000000D01*
X63218619Y9000000D02*
X62500000Y9000000D01*
X62500000Y9000000D02*
X55000000Y1500000D01*
X163500000Y7000000D02*
X161500000Y9000000D01*
X37835000Y4702500D02*
X38500000Y4037500D01*
X25500000Y4850000D02*
X31352500Y4850000D01*
X31352500Y4850000D02*
X31500000Y4702500D01*
X31500000Y4702500D02*
X37835000Y4702500D01*
%TO.N,Net-(R6-Pad2)*%
X83500000Y4000000D02*
X93500000Y4000000D01*
%TO.N,Net-(R7-Pad1)*%
X93500000Y36000000D02*
X103500000Y36000000D01*
%TO.N,Net-(R8-Pad2)*%
X103500000Y4000000D02*
X113500000Y4000000D01*
%TO.N,Net-(R10-Pad1)*%
X113500000Y36000000D02*
X123500000Y36000000D01*
%TO.N,Net-(R10-Pad2)*%
X123500000Y4000000D02*
X133500000Y4000000D01*
%TO.N,Net-(R11-Pad1)*%
X133500000Y36000000D02*
X143500000Y36000000D01*
%TO.N,Net-(R12-Pad2)*%
X143500000Y4000000D02*
X153500000Y4000000D01*
%TO.N,Net-(R13-Pad1)*%
X153500000Y36000000D02*
X163500000Y36000000D01*
%TO.N,/Input_B*%
X18951299Y16000000D02*
X23500000Y16000000D01*
X25500000Y9150000D02*
X25500000Y14000000D01*
X25500000Y14000000D02*
X23500000Y16000000D01*
X25500000Y18000000D02*
X25500000Y30850000D01*
X23500000Y16000000D02*
X25500000Y18000000D01*
X18951299Y16000000D02*
X10000000Y16000000D01*
%TO.N,/Vcap*%
X36500000Y35200000D02*
X38300000Y35200000D01*
X45500000Y12000000D02*
X45500000Y9297500D01*
X38300000Y35200000D02*
X39500000Y34000000D01*
X49850000Y32150000D02*
X51700000Y32150000D01*
X49000000Y33000000D02*
X49850000Y32150000D01*
%TO.N,/Input_R*%
X20500000Y30850000D02*
X20500000Y25548701D01*
X18951299Y24000000D02*
X10000000Y24000000D01*
X20500000Y21000000D02*
X20500000Y22451299D01*
X20500000Y12488353D02*
X20546991Y12535344D01*
X20500000Y25548701D02*
X18951299Y24000000D01*
X20500000Y9150000D02*
X20500000Y12488353D01*
X20500000Y22451299D02*
X18951299Y24000000D01*
%TO.N,/IGBTg*%
X31500000Y14000000D02*
X33000000Y15500000D01*
X33000000Y15500000D02*
X36500000Y15500000D01*
X29000000Y16500000D02*
X29000000Y25000000D01*
X44500000Y17500000D02*
X50250000Y17500000D01*
X31500000Y9297500D02*
X31500000Y14000000D01*
X43500000Y16500000D02*
X44500000Y17500000D01*
X37500000Y16500000D02*
X43500000Y16500000D01*
X36500000Y15500000D02*
X37500000Y16500000D01*
X29000000Y25000000D02*
X30500000Y26500000D01*
X31500000Y14000000D02*
X29000000Y16500000D01*
X30500000Y26500000D02*
X30500000Y30037500D01*
%TO.N,/LED30A*%
X45500000Y4702500D02*
X50252500Y4702500D01*
X50252500Y4702500D02*
X51700000Y6150000D01*
%TO.N,/IGBTc*%
X55250000Y8300000D02*
X55250000Y20050000D01*
X54800000Y7850000D02*
X55250000Y8300000D01*
%TO.N,/LEDdischK*%
X45816500Y37279000D02*
X53721000Y37279000D01*
X44500000Y35962500D02*
X45816500Y37279000D01*
X53721000Y37279000D02*
X54800000Y36200000D01*
X54800000Y36200000D02*
X54800000Y33850000D01*
%TO.N,/Vcapdisch*%
X63500000Y33000000D02*
X59500000Y29000000D01*
X63500000Y36000000D02*
X63500000Y33000000D01*
%TO.N,/IGBTe*%
X38500000Y9962500D02*
X38500000Y12000000D01*
X50250000Y22600000D02*
X42708411Y22600000D01*
X42708411Y22600000D02*
X40617243Y20508832D01*
%TO.N,Net-(R4-Pad2)*%
X63500000Y4000000D02*
X73500000Y4000000D01*
%TO.N,Net-(R5-Pad1)*%
X73500000Y36000000D02*
X83500000Y36000000D01*
%TD*%
%TA.AperFunction,Conductor*%
%TO.N,/Input_B*%
G36*
X9515677Y17480315D02*
G01*
X9536319Y17463681D01*
X10463681Y16536319D01*
X10497166Y16474996D01*
X10500000Y16448638D01*
X10500000Y15551362D01*
X10480315Y15484323D01*
X10463681Y15463681D01*
X9500000Y14500001D01*
X9500000Y7051362D01*
X9480315Y6984323D01*
X9463681Y6963681D01*
X8536319Y6036319D01*
X8474996Y6002834D01*
X8448638Y6000000D01*
X1551362Y6000000D01*
X1484323Y6019685D01*
X1463681Y6036319D01*
X536319Y6963681D01*
X502834Y7025004D01*
X500000Y7051362D01*
X500000Y7925000D01*
X916272Y7925000D01*
X935155Y7685069D01*
X991337Y7451053D01*
X1083437Y7228702D01*
X1209184Y7023503D01*
X1209190Y7023494D01*
X1282755Y6937361D01*
X1765244Y7419850D01*
X1789762Y7383156D01*
X1908156Y7264762D01*
X1944848Y7240246D01*
X1462359Y6757757D01*
X1462359Y6757756D01*
X1548493Y6684191D01*
X1548502Y6684185D01*
X1753701Y6558438D01*
X1976052Y6466338D01*
X2210068Y6410156D01*
X2450000Y6391273D01*
X2689931Y6410156D01*
X2923947Y6466338D01*
X3146298Y6558438D01*
X3351497Y6684185D01*
X3351499Y6684186D01*
X3437639Y6757757D01*
X2955150Y7240245D01*
X2991844Y7264762D01*
X3110238Y7383156D01*
X3134755Y7419849D01*
X3617243Y6937361D01*
X3690814Y7023501D01*
X3690815Y7023503D01*
X3816562Y7228702D01*
X3908662Y7451053D01*
X3964844Y7685069D01*
X3983727Y7925000D01*
X6016272Y7925000D01*
X6035155Y7685069D01*
X6091337Y7451053D01*
X6183437Y7228702D01*
X6309184Y7023503D01*
X6309190Y7023494D01*
X6382755Y6937361D01*
X6865244Y7419850D01*
X6889762Y7383156D01*
X7008156Y7264762D01*
X7044848Y7240246D01*
X6562359Y6757757D01*
X6562359Y6757756D01*
X6648493Y6684191D01*
X6648502Y6684185D01*
X6853701Y6558438D01*
X7076052Y6466338D01*
X7310068Y6410156D01*
X7550000Y6391273D01*
X7789931Y6410156D01*
X8023947Y6466338D01*
X8246298Y6558438D01*
X8451497Y6684185D01*
X8451499Y6684186D01*
X8537639Y6757757D01*
X8055150Y7240245D01*
X8091844Y7264762D01*
X8210238Y7383156D01*
X8234755Y7419849D01*
X8717243Y6937361D01*
X8790814Y7023501D01*
X8790815Y7023503D01*
X8916562Y7228702D01*
X9008662Y7451053D01*
X9064844Y7685069D01*
X9083727Y7925000D01*
X9064844Y8164932D01*
X9008662Y8398948D01*
X8916562Y8621299D01*
X8790815Y8826498D01*
X8790809Y8826507D01*
X8717243Y8912641D01*
X8234754Y8430152D01*
X8210238Y8466844D01*
X8091844Y8585238D01*
X8055150Y8609756D01*
X8537639Y9092245D01*
X8537639Y9092246D01*
X8451506Y9165810D01*
X8451497Y9165816D01*
X8246298Y9291563D01*
X8023947Y9383663D01*
X7789931Y9439845D01*
X7550000Y9458728D01*
X7310068Y9439845D01*
X7076052Y9383663D01*
X6853701Y9291563D01*
X6648505Y9165818D01*
X6648496Y9165812D01*
X6562359Y9092245D01*
X7044849Y8609756D01*
X7008156Y8585238D01*
X6889762Y8466844D01*
X6865244Y8430152D01*
X6382755Y8912641D01*
X6309188Y8826504D01*
X6309182Y8826495D01*
X6183437Y8621299D01*
X6091337Y8398948D01*
X6035155Y8164932D01*
X6016272Y7925000D01*
X3983727Y7925000D01*
X3964844Y8164932D01*
X3908662Y8398948D01*
X3816562Y8621299D01*
X3690815Y8826498D01*
X3690809Y8826507D01*
X3617243Y8912641D01*
X3134754Y8430152D01*
X3110238Y8466844D01*
X2991844Y8585238D01*
X2955150Y8609756D01*
X3437639Y9092245D01*
X3437639Y9092246D01*
X3351506Y9165810D01*
X3351497Y9165816D01*
X3146298Y9291563D01*
X2923947Y9383663D01*
X2689931Y9439845D01*
X2450000Y9458728D01*
X2210068Y9439845D01*
X1976052Y9383663D01*
X1753701Y9291563D01*
X1548505Y9165818D01*
X1548496Y9165812D01*
X1462359Y9092245D01*
X1944849Y8609756D01*
X1908156Y8585238D01*
X1789762Y8466844D01*
X1765244Y8430152D01*
X1282755Y8912641D01*
X1209188Y8826504D01*
X1209182Y8826495D01*
X1083437Y8621299D01*
X991337Y8398948D01*
X935155Y8164932D01*
X916272Y7925000D01*
X500000Y7925000D01*
X500000Y13025000D01*
X916272Y13025000D01*
X935155Y12785069D01*
X991337Y12551053D01*
X1083437Y12328702D01*
X1209184Y12123503D01*
X1209190Y12123494D01*
X1282755Y12037361D01*
X1765244Y12519850D01*
X1789762Y12483156D01*
X1908156Y12364762D01*
X1944848Y12340246D01*
X1462359Y11857757D01*
X1462359Y11857756D01*
X1548493Y11784191D01*
X1548502Y11784185D01*
X1753701Y11658438D01*
X1976052Y11566338D01*
X2210068Y11510156D01*
X2450000Y11491273D01*
X2689931Y11510156D01*
X2923947Y11566338D01*
X3146298Y11658438D01*
X3351497Y11784185D01*
X3351499Y11784186D01*
X3437639Y11857757D01*
X2955150Y12340245D01*
X2991844Y12364762D01*
X3110238Y12483156D01*
X3134755Y12519849D01*
X3617243Y12037361D01*
X3690814Y12123501D01*
X3690815Y12123503D01*
X3816562Y12328702D01*
X3908662Y12551053D01*
X3964844Y12785069D01*
X3983727Y13025000D01*
X6016272Y13025000D01*
X6035155Y12785069D01*
X6091337Y12551053D01*
X6183437Y12328702D01*
X6309184Y12123503D01*
X6309190Y12123494D01*
X6382755Y12037361D01*
X6865244Y12519850D01*
X6889762Y12483156D01*
X7008156Y12364762D01*
X7044848Y12340246D01*
X6562359Y11857757D01*
X6562359Y11857756D01*
X6648493Y11784191D01*
X6648502Y11784185D01*
X6853701Y11658438D01*
X7076052Y11566338D01*
X7310068Y11510156D01*
X7550000Y11491273D01*
X7789931Y11510156D01*
X8023947Y11566338D01*
X8246298Y11658438D01*
X8451497Y11784185D01*
X8451499Y11784186D01*
X8537639Y11857757D01*
X8055150Y12340245D01*
X8091844Y12364762D01*
X8210238Y12483156D01*
X8234755Y12519849D01*
X8717243Y12037361D01*
X8790814Y12123501D01*
X8790815Y12123503D01*
X8916562Y12328702D01*
X9008662Y12551053D01*
X9064844Y12785069D01*
X9083727Y13025000D01*
X9064844Y13264932D01*
X9008662Y13498948D01*
X8916562Y13721299D01*
X8790815Y13926498D01*
X8790809Y13926507D01*
X8717243Y14012641D01*
X8234754Y13530152D01*
X8210238Y13566844D01*
X8091844Y13685238D01*
X8055150Y13709756D01*
X8537639Y14192245D01*
X8537639Y14192246D01*
X8451506Y14265810D01*
X8451497Y14265816D01*
X8246298Y14391563D01*
X8023947Y14483663D01*
X7789931Y14539845D01*
X7550000Y14558728D01*
X7310068Y14539845D01*
X7076052Y14483663D01*
X6853701Y14391563D01*
X6648505Y14265818D01*
X6648496Y14265812D01*
X6562359Y14192245D01*
X7044849Y13709756D01*
X7008156Y13685238D01*
X6889762Y13566844D01*
X6865244Y13530152D01*
X6382755Y14012641D01*
X6309188Y13926504D01*
X6309182Y13926495D01*
X6183437Y13721299D01*
X6091337Y13498948D01*
X6035155Y13264932D01*
X6016272Y13025000D01*
X3983727Y13025000D01*
X3964844Y13264932D01*
X3908662Y13498948D01*
X3816562Y13721299D01*
X3690815Y13926498D01*
X3690809Y13926507D01*
X3617243Y14012641D01*
X3134754Y13530152D01*
X3110238Y13566844D01*
X2991844Y13685238D01*
X2955150Y13709756D01*
X3437639Y14192245D01*
X3437639Y14192246D01*
X3351506Y14265810D01*
X3351497Y14265816D01*
X3146298Y14391563D01*
X2923947Y14483663D01*
X2689931Y14539845D01*
X2450000Y14558728D01*
X2210068Y14539845D01*
X1976052Y14483663D01*
X1753701Y14391563D01*
X1548505Y14265818D01*
X1548496Y14265812D01*
X1462359Y14192245D01*
X1944849Y13709756D01*
X1908156Y13685238D01*
X1789762Y13566844D01*
X1765244Y13530152D01*
X1282755Y14012641D01*
X1209188Y13926504D01*
X1209182Y13926495D01*
X1083437Y13721299D01*
X991337Y13498948D01*
X935155Y13264932D01*
X916272Y13025000D01*
X500000Y13025000D01*
X500000Y16448638D01*
X519685Y16515677D01*
X536319Y16536319D01*
X1463681Y17463681D01*
X1525004Y17497166D01*
X1551362Y17500000D01*
X9448638Y17500000D01*
X9515677Y17480315D01*
G37*
%TD.AperFunction*%
%TD*%
%TA.AperFunction,Conductor*%
%TO.N,/Input_R*%
G36*
X8515677Y33980315D02*
G01*
X8536319Y33963681D01*
X9463681Y33036319D01*
X9497166Y32974996D01*
X9500000Y32948638D01*
X9500000Y25500000D01*
X10463681Y24536319D01*
X10497166Y24474996D01*
X10500000Y24448638D01*
X10500000Y23551362D01*
X10480315Y23484323D01*
X10463681Y23463681D01*
X9536319Y22536319D01*
X9474996Y22502834D01*
X9448638Y22500000D01*
X1551362Y22500000D01*
X1484323Y22519685D01*
X1463681Y22536319D01*
X536319Y23463681D01*
X502834Y23525004D01*
X500000Y23551362D01*
X500000Y26975000D01*
X916272Y26975000D01*
X935155Y26735069D01*
X991337Y26501053D01*
X1083437Y26278702D01*
X1209184Y26073503D01*
X1209190Y26073494D01*
X1282755Y25987361D01*
X1765244Y26469850D01*
X1789762Y26433156D01*
X1908156Y26314762D01*
X1944848Y26290246D01*
X1462359Y25807757D01*
X1462359Y25807756D01*
X1548493Y25734191D01*
X1548502Y25734185D01*
X1753701Y25608438D01*
X1976052Y25516338D01*
X2210068Y25460156D01*
X2450000Y25441273D01*
X2689931Y25460156D01*
X2923947Y25516338D01*
X3146298Y25608438D01*
X3351497Y25734185D01*
X3351499Y25734186D01*
X3437639Y25807757D01*
X2955150Y26290245D01*
X2991844Y26314762D01*
X3110238Y26433156D01*
X3134755Y26469849D01*
X3617243Y25987361D01*
X3690814Y26073501D01*
X3690815Y26073503D01*
X3816562Y26278702D01*
X3908662Y26501053D01*
X3964844Y26735069D01*
X3983727Y26975000D01*
X6016272Y26975000D01*
X6035155Y26735069D01*
X6091337Y26501053D01*
X6183437Y26278702D01*
X6309184Y26073503D01*
X6309190Y26073494D01*
X6382755Y25987361D01*
X6865244Y26469850D01*
X6889762Y26433156D01*
X7008156Y26314762D01*
X7044848Y26290246D01*
X6562359Y25807757D01*
X6562359Y25807756D01*
X6648493Y25734191D01*
X6648502Y25734185D01*
X6853701Y25608438D01*
X7076052Y25516338D01*
X7310068Y25460156D01*
X7550000Y25441273D01*
X7789931Y25460156D01*
X8023947Y25516338D01*
X8246298Y25608438D01*
X8451497Y25734185D01*
X8451499Y25734186D01*
X8537639Y25807757D01*
X8055150Y26290245D01*
X8091844Y26314762D01*
X8210238Y26433156D01*
X8234755Y26469849D01*
X8717243Y25987361D01*
X8790814Y26073501D01*
X8790815Y26073503D01*
X8916562Y26278702D01*
X9008662Y26501053D01*
X9064844Y26735069D01*
X9083727Y26975000D01*
X9064844Y27214932D01*
X9008662Y27448948D01*
X8916562Y27671299D01*
X8790815Y27876498D01*
X8790809Y27876507D01*
X8717243Y27962641D01*
X8234754Y27480152D01*
X8210238Y27516844D01*
X8091844Y27635238D01*
X8055150Y27659756D01*
X8537639Y28142245D01*
X8537639Y28142246D01*
X8451506Y28215810D01*
X8451497Y28215816D01*
X8246298Y28341563D01*
X8023947Y28433663D01*
X7789931Y28489845D01*
X7550000Y28508728D01*
X7310068Y28489845D01*
X7076052Y28433663D01*
X6853701Y28341563D01*
X6648505Y28215818D01*
X6648496Y28215812D01*
X6562359Y28142245D01*
X7044849Y27659756D01*
X7008156Y27635238D01*
X6889762Y27516844D01*
X6865244Y27480152D01*
X6382755Y27962641D01*
X6309188Y27876504D01*
X6309182Y27876495D01*
X6183437Y27671299D01*
X6091337Y27448948D01*
X6035155Y27214932D01*
X6016272Y26975000D01*
X3983727Y26975000D01*
X3964844Y27214932D01*
X3908662Y27448948D01*
X3816562Y27671299D01*
X3690815Y27876498D01*
X3690809Y27876507D01*
X3617243Y27962641D01*
X3134754Y27480152D01*
X3110238Y27516844D01*
X2991844Y27635238D01*
X2955150Y27659756D01*
X3437639Y28142245D01*
X3437639Y28142246D01*
X3351506Y28215810D01*
X3351497Y28215816D01*
X3146298Y28341563D01*
X2923947Y28433663D01*
X2689931Y28489845D01*
X2450000Y28508728D01*
X2210068Y28489845D01*
X1976052Y28433663D01*
X1753701Y28341563D01*
X1548505Y28215818D01*
X1548496Y28215812D01*
X1462359Y28142245D01*
X1944849Y27659756D01*
X1908156Y27635238D01*
X1789762Y27516844D01*
X1765244Y27480152D01*
X1282755Y27962641D01*
X1209188Y27876504D01*
X1209182Y27876495D01*
X1083437Y27671299D01*
X991337Y27448948D01*
X935155Y27214932D01*
X916272Y26975000D01*
X500000Y26975000D01*
X500000Y32075000D01*
X916272Y32075000D01*
X935155Y31835069D01*
X991337Y31601053D01*
X1083437Y31378702D01*
X1209184Y31173503D01*
X1209190Y31173494D01*
X1282755Y31087361D01*
X1765244Y31569850D01*
X1789762Y31533156D01*
X1908156Y31414762D01*
X1944848Y31390246D01*
X1462359Y30907757D01*
X1462359Y30907756D01*
X1548493Y30834191D01*
X1548502Y30834185D01*
X1753701Y30708438D01*
X1976052Y30616338D01*
X2210068Y30560156D01*
X2450000Y30541273D01*
X2689931Y30560156D01*
X2923947Y30616338D01*
X3146298Y30708438D01*
X3351497Y30834185D01*
X3351499Y30834186D01*
X3437639Y30907757D01*
X2955150Y31390245D01*
X2991844Y31414762D01*
X3110238Y31533156D01*
X3134755Y31569849D01*
X3617243Y31087361D01*
X3690814Y31173501D01*
X3690815Y31173503D01*
X3816562Y31378702D01*
X3908662Y31601053D01*
X3964844Y31835069D01*
X3983727Y32075000D01*
X6016272Y32075000D01*
X6035155Y31835069D01*
X6091337Y31601053D01*
X6183437Y31378702D01*
X6309184Y31173503D01*
X6309190Y31173494D01*
X6382755Y31087361D01*
X6865244Y31569850D01*
X6889762Y31533156D01*
X7008156Y31414762D01*
X7044848Y31390246D01*
X6562359Y30907757D01*
X6562359Y30907756D01*
X6648493Y30834191D01*
X6648502Y30834185D01*
X6853701Y30708438D01*
X7076052Y30616338D01*
X7310068Y30560156D01*
X7550000Y30541273D01*
X7789931Y30560156D01*
X8023947Y30616338D01*
X8246298Y30708438D01*
X8451497Y30834185D01*
X8451499Y30834186D01*
X8537639Y30907757D01*
X8055150Y31390245D01*
X8091844Y31414762D01*
X8210238Y31533156D01*
X8234755Y31569849D01*
X8717243Y31087361D01*
X8790814Y31173501D01*
X8790815Y31173503D01*
X8916562Y31378702D01*
X9008662Y31601053D01*
X9064844Y31835069D01*
X9083727Y32075000D01*
X9064844Y32314932D01*
X9008662Y32548948D01*
X8916562Y32771299D01*
X8790815Y32976498D01*
X8790809Y32976507D01*
X8717243Y33062641D01*
X8234754Y32580152D01*
X8210238Y32616844D01*
X8091844Y32735238D01*
X8055150Y32759756D01*
X8537639Y33242245D01*
X8537639Y33242246D01*
X8451506Y33315810D01*
X8451497Y33315816D01*
X8246298Y33441563D01*
X8023947Y33533663D01*
X7789931Y33589845D01*
X7550000Y33608728D01*
X7310068Y33589845D01*
X7076052Y33533663D01*
X6853701Y33441563D01*
X6648505Y33315818D01*
X6648496Y33315812D01*
X6562359Y33242245D01*
X7044849Y32759756D01*
X7008156Y32735238D01*
X6889762Y32616844D01*
X6865244Y32580152D01*
X6382755Y33062641D01*
X6309188Y32976504D01*
X6309182Y32976495D01*
X6183437Y32771299D01*
X6091337Y32548948D01*
X6035155Y32314932D01*
X6016272Y32075000D01*
X3983727Y32075000D01*
X3964844Y32314932D01*
X3908662Y32548948D01*
X3816562Y32771299D01*
X3690815Y32976498D01*
X3690809Y32976507D01*
X3617243Y33062641D01*
X3134754Y32580152D01*
X3110238Y32616844D01*
X2991844Y32735238D01*
X2955150Y32759756D01*
X3437639Y33242245D01*
X3437639Y33242246D01*
X3351506Y33315810D01*
X3351497Y33315816D01*
X3146298Y33441563D01*
X2923947Y33533663D01*
X2689931Y33589845D01*
X2450000Y33608728D01*
X2210068Y33589845D01*
X1976052Y33533663D01*
X1753701Y33441563D01*
X1548505Y33315818D01*
X1548496Y33315812D01*
X1462359Y33242245D01*
X1944849Y32759756D01*
X1908156Y32735238D01*
X1789762Y32616844D01*
X1765244Y32580152D01*
X1282755Y33062641D01*
X1209188Y32976504D01*
X1209182Y32976495D01*
X1083437Y32771299D01*
X991337Y32548948D01*
X935155Y32314932D01*
X916272Y32075000D01*
X500000Y32075000D01*
X500000Y32948638D01*
X519685Y33015677D01*
X536319Y33036319D01*
X1463681Y33963681D01*
X1525004Y33997166D01*
X1551362Y34000000D01*
X8448638Y34000000D01*
X8515677Y33980315D01*
G37*
%TD.AperFunction*%
%TD*%
%TA.AperFunction,Conductor*%
%TO.N,/Vcap*%
G36*
X39765931Y38479998D02*
G01*
X39786905Y38463095D01*
X40546856Y37703144D01*
X40580882Y37640832D01*
X40575817Y37570017D01*
X40569330Y37555496D01*
X40525690Y37472345D01*
X40405981Y37156700D01*
X40325192Y36828924D01*
X40325191Y36828918D01*
X40284500Y36493798D01*
X40284500Y35431203D01*
X40325191Y35096083D01*
X40325192Y35096077D01*
X40405981Y34768301D01*
X40525691Y34452655D01*
X40525698Y34452638D01*
X40682576Y34153733D01*
X40682582Y34153722D01*
X40713238Y34109311D01*
X40735475Y34041886D01*
X40717728Y33973143D01*
X40698639Y33948639D01*
X39786903Y33036904D01*
X39724593Y33002880D01*
X39697810Y33000000D01*
X39663400Y33000000D01*
X39595279Y33020002D01*
X39563840Y33048774D01*
X39459427Y33183383D01*
X39459415Y33183396D01*
X39233395Y33409416D01*
X39233382Y33409428D01*
X39137653Y33483683D01*
X38980796Y33605353D01*
X38923199Y33639416D01*
X38705648Y33768076D01*
X38412270Y33895032D01*
X38412268Y33895033D01*
X38412265Y33895034D01*
X38143413Y33973143D01*
X38105293Y33984218D01*
X38105295Y33984218D01*
X37789553Y34034227D01*
X37656520Y34040500D01*
X37656514Y34040500D01*
X35343486Y34040500D01*
X35343479Y34040500D01*
X35210446Y34034227D01*
X34894705Y33984218D01*
X34666571Y33917939D01*
X34587735Y33895034D01*
X34587733Y33895034D01*
X34587729Y33895032D01*
X34294351Y33768076D01*
X34019218Y33605362D01*
X34019207Y33605355D01*
X33766617Y33409428D01*
X33766604Y33409416D01*
X33540584Y33183396D01*
X33540572Y33183383D01*
X33436160Y33048774D01*
X33378603Y33007207D01*
X33336600Y33000000D01*
X32961775Y33000000D01*
X32917095Y33008188D01*
X32756704Y33069017D01*
X32756698Y33069019D01*
X32428923Y33149808D01*
X32428917Y33149809D01*
X32093797Y33190500D01*
X32093794Y33190500D01*
X28906206Y33190500D01*
X28906202Y33190500D01*
X28571082Y33149809D01*
X28571068Y33149806D01*
X28497635Y33131707D01*
X28426707Y33134826D01*
X28368725Y33175797D01*
X28367972Y33176758D01*
X28187497Y33409425D01*
X28184427Y33413383D01*
X28184415Y33413396D01*
X27958395Y33639416D01*
X27958382Y33639428D01*
X27862653Y33713683D01*
X27705796Y33835353D01*
X27705781Y33835362D01*
X27430648Y33998076D01*
X27137270Y34125032D01*
X27137268Y34125033D01*
X27137265Y34125034D01*
X26900435Y34193840D01*
X26830293Y34214218D01*
X26830295Y34214218D01*
X26514553Y34264227D01*
X26381520Y34270500D01*
X26381514Y34270500D01*
X24618486Y34270500D01*
X24618479Y34270500D01*
X24485446Y34264227D01*
X24169705Y34214218D01*
X23961517Y34153733D01*
X23862735Y34125034D01*
X23862733Y34125034D01*
X23862729Y34125032D01*
X23569351Y33998076D01*
X23294218Y33835362D01*
X23294207Y33835355D01*
X23077226Y33667048D01*
X23011140Y33641101D01*
X22941518Y33655002D01*
X22922774Y33667048D01*
X22877257Y33702355D01*
X22705796Y33835353D01*
X22705781Y33835362D01*
X22430648Y33998076D01*
X22137270Y34125032D01*
X22137268Y34125033D01*
X22137265Y34125034D01*
X21900435Y34193840D01*
X21830293Y34214218D01*
X21830295Y34214218D01*
X21514553Y34264227D01*
X21381520Y34270500D01*
X21381514Y34270500D01*
X19618486Y34270500D01*
X19618479Y34270500D01*
X19485446Y34264227D01*
X19169705Y34214218D01*
X18911153Y34139101D01*
X18840157Y34139304D01*
X18780540Y34177858D01*
X18751232Y34242523D01*
X18750000Y34260098D01*
X18750000Y37447810D01*
X18770002Y37515931D01*
X18786905Y37536905D01*
X19713095Y38463095D01*
X19775407Y38497121D01*
X19802190Y38500000D01*
X39697810Y38500000D01*
X39765931Y38479998D01*
G37*
%TD.AperFunction*%
%TD*%
%TA.AperFunction,Conductor*%
%TO.N,/Vcapdisch*%
G36*
X45970282Y32789498D02*
G01*
X46016775Y32735842D01*
X46027948Y32690828D01*
X46030159Y32652872D01*
X46043506Y32577170D01*
X46044627Y32569403D01*
X46052536Y32499221D01*
X46052538Y32499209D01*
X46072569Y32411446D01*
X46073814Y32405291D01*
X46090539Y32310442D01*
X46090539Y32310441D01*
X46110735Y32242980D01*
X46112869Y32234883D01*
X46127144Y32172341D01*
X46159019Y32081246D01*
X46160795Y32075770D01*
X46190263Y31977340D01*
X46215588Y31918628D01*
X46218820Y31910342D01*
X46237874Y31855893D01*
X46237876Y31855888D01*
X46282549Y31763124D01*
X46284722Y31758361D01*
X46327985Y31658065D01*
X46356717Y31608300D01*
X46361119Y31599971D01*
X46383340Y31553828D01*
X46441567Y31461159D01*
X46443998Y31457124D01*
X46501842Y31356936D01*
X46532293Y31316033D01*
X46537904Y31307839D01*
X46561707Y31269955D01*
X46561713Y31269946D01*
X46633987Y31179318D01*
X46636543Y31176000D01*
X46709478Y31078031D01*
X46709482Y31078027D01*
X46740027Y31045651D01*
X46746875Y31037760D01*
X46770751Y31007821D01*
X46857300Y30921272D01*
X46859819Y30918679D01*
X46946255Y30827062D01*
X46948100Y30825107D01*
X46977227Y30800667D01*
X46985331Y30793241D01*
X47857822Y29920751D01*
X48119945Y29711714D01*
X48294281Y29602172D01*
X48403824Y29533342D01*
X48460173Y29506206D01*
X48460174Y29506205D01*
X48641457Y29418904D01*
X48705891Y29387874D01*
X48705907Y29387869D01*
X48705908Y29387868D01*
X49022338Y29277144D01*
X49022341Y29277144D01*
X49022345Y29277142D01*
X49264273Y29221924D01*
X49349201Y29202539D01*
X49349202Y29202539D01*
X49349206Y29202538D01*
X49568952Y29177779D01*
X49682364Y29165000D01*
X49682366Y29165000D01*
X51867636Y29165000D01*
X51952245Y29174534D01*
X52200794Y29202538D01*
X52527656Y29277143D01*
X52844110Y29387875D01*
X53146176Y29533342D01*
X53430055Y29711715D01*
X53437690Y29717804D01*
X53443595Y29722512D01*
X53509325Y29749345D01*
X53522153Y29750000D01*
X60687000Y29750000D01*
X60755121Y29729998D01*
X60787800Y29699600D01*
X61474800Y28783600D01*
X61499671Y28717102D01*
X61500000Y28708000D01*
X61500000Y27552190D01*
X61479998Y27484069D01*
X61463095Y27463095D01*
X60536905Y26536905D01*
X60474593Y26502879D01*
X60447810Y26500000D01*
X35552190Y26500000D01*
X35484069Y26520002D01*
X35463095Y26536905D01*
X34536905Y27463095D01*
X34502879Y27525407D01*
X34500000Y27552190D01*
X34500000Y28572306D01*
X34508188Y28616987D01*
X34546157Y28717102D01*
X34594018Y28843300D01*
X34674808Y29171079D01*
X34715500Y29506206D01*
X34715500Y30568794D01*
X34693757Y30747858D01*
X34705402Y30817891D01*
X34751626Y30869621D01*
X34868923Y30943590D01*
X34926480Y30985157D01*
X34996328Y31037445D01*
X35236112Y31248846D01*
X35415501Y31452326D01*
X35475553Y31490196D01*
X35510015Y31495000D01*
X37487313Y31495000D01*
X37555434Y31474998D01*
X37585138Y31448412D01*
X37623510Y31401143D01*
X37845310Y31170950D01*
X37845313Y31170947D01*
X37873805Y31144872D01*
X37876751Y31142176D01*
X38029390Y31013124D01*
X38293266Y30832691D01*
X38577675Y30686753D01*
X38878133Y30577611D01*
X38946254Y30557609D01*
X39030360Y30534472D01*
X39344364Y30474572D01*
X39344378Y30474572D01*
X39344379Y30474571D01*
X39403967Y30470823D01*
X39663388Y30454501D01*
X39663390Y30454500D01*
X39663400Y30454500D01*
X39697822Y30454500D01*
X39833885Y30461795D01*
X39969961Y30469090D01*
X39996744Y30471970D01*
X39996760Y30471972D01*
X39996780Y30471974D01*
X40036412Y30476551D01*
X40036414Y30476551D01*
X40036418Y30476552D01*
X40036420Y30476552D01*
X40350594Y30535555D01*
X40654896Y30633469D01*
X40944526Y30768751D01*
X41006836Y30802775D01*
X41082667Y30845884D01*
X41347057Y31025564D01*
X41586842Y31236963D01*
X42498578Y32148698D01*
X42706730Y32384305D01*
X42723777Y32406189D01*
X42725830Y32408823D01*
X42775093Y32474203D01*
X42775095Y32474208D01*
X42775103Y32474217D01*
X42946745Y32743894D01*
X42946749Y32743904D01*
X42946997Y32744351D01*
X42947101Y32744455D01*
X42948871Y32747235D01*
X42949501Y32746834D01*
X42997411Y32794341D01*
X43057329Y32809500D01*
X45902161Y32809500D01*
X45970282Y32789498D01*
G37*
%TD.AperFunction*%
%TD*%
M02*
