M48
; DRILL file {KiCad 8.0.3} date 2024-08-03T11:21:42-0500
; FORMAT={-:-/ absolute / inch / decimal}
; #@! TF.CreationDate,2024-08-03T11:21:42-05:00
; #@! TF.GenerationSoftware,Kicad,Pcbnew,8.0.3
; #@! TF.FileFunction,MixedPlating,1,2
FMAT,2
INCH
; #@! TA.AperFunction,Plated,PTH,ComponentDrill
T1C0.0315
; #@! TA.AperFunction,Plated,PTH,ComponentDrill
T2C0.0398
; #@! TA.AperFunction,Plated,PTH,ComponentDrill
T3C0.0433
; #@! TA.AperFunction,Plated,PTH,ComponentDrill
T4C0.0512
; #@! TA.AperFunction,Plated,PTH,ComponentDrill
T5C0.0563
; #@! TA.AperFunction,Plated,PTH,ComponentDrill
T6C0.0630
; #@! TA.AperFunction,Plated,PTH,ComponentDrill
T7C0.0689
; #@! TA.AperFunction,Plated,PTH,ComponentDrill
T8C0.0787
; #@! TA.AperFunction,NonPlated,NPTH,ComponentDrill
T9C0.1260
%
G90
G05
T1
X1.4173Y0.9744
X1.4173Y0.6791
T2
X1.0138Y0.9154
X1.1122Y1.2106
T3
X0.5299Y1.3386
X0.7299Y1.3386
T4
X0.9094Y0.3902
X1.2165Y0.2398
T5
X1.753Y1.1644
X1.753Y0.9656
X1.753Y0.7667
X1.753Y0.5679
T6
X1.7323Y0.1969
X2.126Y0.1969
X3.937Y1.5354
X4.3307Y1.5354
T7
X0.7264Y1.0236
X0.7264Y0.8677
X0.7264Y0.7118
T8
X2.6873Y1.0876
X3.0709Y1.3091
X3.0709Y0.4232
X3.4544Y1.0876
T9
X0.1969Y1.5354
X0.1969Y0.1969
X4.685Y1.5354
X4.685Y0.1969
M30
